<svg width="120" height="22" viewBox="0 0 120 22" fill="none" xmlns="http://www.w3.org/2000/svg">
<g clip-path="url(#clip0)">
<path d="M0 0H8.79752C10.4732 0 11.73 0.415967 12.661 1.10924C13.685 1.94118 14.2436 3.14286 14.2436 4.62185C14.2436 6.33193 13.5454 7.39496 12.149 8.04202V8.13445C14.0109 8.7353 15.0815 10.3992 15.0815 12.3866C15.0815 14.2815 14.3367 15.7605 13.1265 16.6849C12.1024 17.4244 10.7991 17.7479 9.03025 17.7479H0V0ZM7.91311 6.93277C8.84407 6.93277 9.54228 6.42437 9.54228 5.36135C9.54228 4.34454 8.84406 3.83614 7.86656 3.83614H4.84096V6.88656H7.91311V6.93277ZM8.33204 13.8193C9.40264 13.8193 10.1939 13.1723 10.1939 12.0168C10.1939 10.7689 9.35609 10.2143 8.33204 10.2143H4.88751V13.8655H8.33204V13.8193Z" fill="#837641"/>
<path d="M15.873 0H20.4813V17.7941H15.873V0Z" fill="#837641"/>
<path d="M21.4121 11.4622C21.4121 7.44117 24.0188 4.7605 28.0684 4.7605C32.1181 4.7605 34.6782 7.48739 34.6782 11.4622C34.6782 15.4832 32.1181 18.1639 28.0684 18.1639C24.0188 18.1639 21.4121 15.4832 21.4121 11.4622ZM30.07 11.4622C30.07 9.24369 29.3718 7.85714 27.9753 7.85714C26.5789 7.85714 25.9272 9.24369 25.9272 11.4622C25.9272 13.6807 26.5789 15.1134 27.9753 15.1134C29.3718 15.0672 30.07 13.6807 30.07 11.4622Z" fill="#837641"/>
<path d="M35.1904 11.4622C35.1904 7.44117 37.7971 4.7605 41.8467 4.7605C45.8964 4.7605 48.41 7.44117 48.41 11.4622C48.41 15.4832 45.8499 18.1639 41.8002 18.1639C37.7971 18.1639 35.1904 15.4832 35.1904 11.4622ZM43.8483 11.4622C43.8483 9.24369 43.1501 7.85714 41.7537 7.85714C40.3572 7.85714 39.7056 9.24369 39.7056 11.4622C39.7056 13.6807 40.3572 15.1134 41.7537 15.1134C43.1501 15.0672 43.8483 13.6807 43.8483 11.4622Z" fill="#837641"/>
<path d="M49.3408 5.08404H53.6232V6.979H53.7163C54.5542 5.50001 55.7179 4.71429 57.5798 4.71429C59.2089 4.71429 60.4192 5.50001 61.0243 6.88656H61.1174C62.1414 5.2227 63.4913 4.71429 65.0739 4.71429C68.053 4.71429 69.3098 6.88656 69.3098 9.79833V17.7479H64.8412V10.584C64.8412 9.28993 64.4223 8.45799 63.3051 8.45799C62.188 8.45799 61.6294 9.4748 61.6294 10.8614V17.7479H57.1608V10.584C57.1608 9.28993 56.7419 8.45799 55.6248 8.45799C54.5076 8.45799 53.949 9.4748 53.949 10.8614V17.7479H49.3408V5.08404Z" fill="#837641"/>
<path d="M74.9422 16.084H74.8957V17.7479H70.6133V0H75.0819V6.37815H75.175C76.0128 5.26891 77.1765 4.66807 78.8057 4.66807C82.0175 4.66807 83.8794 7.53361 83.8794 11.3697C83.8794 15.6681 81.8778 18.1639 78.5264 18.1639C77.13 18.1639 75.687 17.5168 74.9422 16.084ZM79.2711 11.3235C79.2711 9.28992 78.5264 7.94958 77.1765 7.94958C75.7801 7.94958 74.9422 9.28992 74.9422 11.3235C74.9422 13.3571 75.8266 14.6975 77.1765 14.6975C78.5264 14.6975 79.2711 13.4034 79.2711 11.3235Z" fill="#837641"/>
<path d="M84.3906 11.416C84.3906 7.44119 87.0439 4.71429 90.8608 4.71429C92.7692 4.71429 94.2122 5.31513 95.3293 6.37816C96.8189 7.81093 97.4705 10.0294 97.424 12.6177H88.8592C89.0454 14.1891 89.7902 15.021 91.14 15.021C91.9314 15.021 92.6296 14.6513 92.9089 13.8193H97.2378C96.493 16.7311 94.2122 18.1639 91.0004 18.1639C87.0439 18.1177 84.3906 15.437 84.3906 11.416ZM88.8592 10.0756H92.9554C92.8623 8.55043 92.0245 7.76471 90.9539 7.76471C89.6971 7.7185 88.9989 8.59665 88.8592 10.0756Z" fill="#837641"/>
<path d="M102.498 7.25628H102.591C103.522 5.49998 104.732 4.8067 106.269 4.8067C106.641 4.8067 106.874 4.85292 107.013 4.94536V8.82771H106.92C104.267 8.36553 102.731 9.61343 102.731 12.479V17.7941H98.2158V5.08401H102.498V7.25628Z" fill="#837641"/>
<path d="M107.479 17.7941H111.808C111.994 18.3488 112.553 18.8572 113.623 18.8572C115.066 18.8572 115.578 17.979 115.578 16.6387V15.7143H115.485C114.787 16.5462 113.809 17.1471 112.413 17.1471C109.667 17.1471 107.246 15.1135 107.246 11.1387C107.246 7.48742 109.201 4.66809 112.18 4.66809C113.902 4.66809 114.926 5.36137 115.625 6.42439H115.718V5.03784H120V16.0378C120 18.0715 119.302 19.6429 118.231 20.5673C117.114 21.5378 115.532 21.9538 113.716 21.9538C110.272 22 107.898 20.6135 107.479 17.7941ZM115.764 10.9538C115.764 9.38238 115.02 8.08826 113.716 8.08826C112.459 8.08826 111.668 9.1975 111.668 10.9538C111.668 12.6639 112.459 13.8656 113.716 13.8656C114.973 13.8656 115.764 12.6177 115.764 10.9538Z" fill="#837641"/>
</g>
<defs>
<clipPath id="clip0">
<rect width="120" height="22" fill="white"/>
</clipPath>
</defs>
</svg>
