<svg width="119" height="21" viewBox="0 0 119 21" fill="none" xmlns="http://www.w3.org/2000/svg">
<g clip-path="url(#clip0)">
<path d="M46.5732 2.04965C46.5732 1.05475 47.3763 0.250052 48.3648 0.250052C49.3567 0.250052 50.1628 1.05475 50.1628 2.04965C50.1628 3.04326 49.3567 3.84882 48.3648 3.84882C47.3763 3.84882 46.5732 3.04326 46.5732 2.04965Z" fill="#837641"/>
<path d="M74.8945 14.0195C74.8945 13.0242 75.6971 12.2186 76.6856 12.2186C77.6771 12.2186 78.4831 13.0242 78.4831 14.0195C78.4831 15.0123 77.6771 15.8187 76.6856 15.8187C75.6971 15.8187 74.8945 15.0123 74.8945 14.0195Z" fill="#978955"/>
<path d="M17.1147 13.2417C15.5688 13.2417 14.4945 12.0139 14.4945 10.2595C14.4945 8.50559 15.5688 7.2787 17.1147 7.2787C18.6695 7.2787 19.7555 8.50559 19.7555 10.2595C19.7555 12.0417 18.6921 13.2417 17.1147 13.2417ZM17.1147 4.65777C13.8442 4.65777 11.4707 7.0143 11.4707 10.2595C11.4707 13.5048 13.8442 15.8609 17.1147 15.8609C20.3974 15.8609 22.7808 13.5048 22.7808 10.2595C22.7808 7.0143 20.3974 4.65777 17.1147 4.65777Z" fill="#837641"/>
<path d="M43.0973 10.5397C42.9702 10.3005 42.8244 10.0979 42.6691 9.93715L42.5703 9.83224L42.6743 9.73245C42.8244 9.57424 42.9779 9.3866 43.1259 9.16912L46.012 4.87866H42.5084L40.3399 8.23477C40.2171 8.41474 39.9693 8.50557 39.5983 8.50557H39.1041V2.1605C39.1041 0.891401 38.3134 0.718688 37.4593 0.718688H35.9971L35.9995 15.6959H39.1041V11.2033H39.3949C39.7488 11.2033 39.9898 11.2442 40.1003 11.4365L41.8129 14.669C42.2913 15.5462 42.768 15.6959 43.6649 15.6959H46.0441L44.2721 12.7649L43.0973 10.5397Z" fill="#837641"/>
<path d="M58.1687 4.63387C56.5896 4.63387 55.5821 5.33537 55.0174 5.92855L54.8289 6.11918L54.7624 5.85991C54.5965 5.22449 54.0374 4.87481 53.1961 4.87481H51.8047L51.8134 15.692H54.8968V10.7064C54.8968 10.219 54.9602 9.79599 55.0891 9.41005C55.4323 8.24202 56.3897 7.51578 57.5863 7.51578C58.5488 7.51578 58.9249 8.02368 58.9249 9.33628V14.0476C58.9249 15.1679 59.443 15.692 60.5641 15.692H62.0315L62.0266 8.81218C62.0266 6.07867 60.6934 4.63387 58.1697 4.63387" fill="#837641"/>
<path d="M48.4058 4.87953H46.9443L46.9543 13.2434H46.9533V15.6946H48.5133C48.5329 15.6946 48.5487 15.6967 48.5683 15.6967L49.295 15.6946H50.0182V15.6903H50.0233L50.0295 6.52178C50.0295 5.41558 49.5006 4.87954 48.4069 4.87954" fill="#837641"/>
<path d="M29.2259 13.2417C27.6801 13.2417 26.6037 12.0139 26.6037 10.2595C26.6037 8.50559 27.6801 7.2787 29.2259 7.2787C30.7774 7.2787 31.8665 8.50559 31.8665 10.2595C31.8665 12.0417 30.8034 13.2417 29.2259 13.2417ZM29.2259 4.65777C25.9521 4.65777 23.5781 7.0143 23.5781 10.2595C23.5781 13.5048 25.9521 15.8609 29.2259 15.8609C32.5052 15.8609 34.8925 13.5048 34.8925 10.2595C34.8925 7.0143 32.5052 4.65777 29.2259 4.65777Z" fill="#837641"/>
<path d="M95.3189 13.2416C93.7738 13.2416 92.6966 12.0139 92.6966 10.2595C92.6966 8.50553 93.7738 7.27864 95.3189 7.27864C96.8707 7.27864 97.9603 8.50553 97.9603 10.2595C97.9603 12.0416 96.8967 13.2416 95.3189 13.2416ZM95.3189 4.65771C92.0459 4.65771 89.6719 7.01424 89.6719 10.2595C89.6719 13.5047 92.0459 15.8608 95.3189 15.8608C98.5987 15.8608 100.985 13.5047 100.985 10.2595C100.985 7.01424 98.5987 4.65771 95.3189 4.65771Z" fill="#978955"/>
<path d="M68.5275 12.7657C66.8417 12.7657 66.2417 11.2949 66.2417 9.91664C66.2417 9.30939 66.3953 7.33025 68.3655 7.33025C69.3446 7.33025 70.6495 7.61085 70.6495 10.0186C70.6495 12.2894 69.4947 12.7657 68.5275 12.7657ZM72.2504 4.85047C71.6653 4.85047 71.215 5.08374 70.9893 5.50976L70.9041 5.67521L70.7612 5.55112C70.2635 5.12041 69.3712 4.60954 67.922 4.60954C65.0388 4.60954 63.0977 6.77502 63.0977 9.99766C63.0977 13.2165 65.1061 15.466 67.98 15.466C68.9616 15.466 69.7374 15.237 70.3523 14.7713L70.5903 14.5926V14.8932C70.5903 16.338 69.6559 17.1351 67.9622 17.1351C67.139 17.1351 66.3898 16.9346 65.8888 16.753C65.2345 16.5555 64.8512 16.7189 64.5859 17.3752L64.3412 17.9807L63.9949 18.8652L64.2094 18.9794C65.2934 19.5547 66.7045 19.898 67.98 19.898C70.606 19.898 73.6721 18.5539 73.6721 14.7713L73.6834 4.85047H72.2509" fill="#837641"/>
<path d="M5.63124 13.1175L3.12125 13.115V10.1142C3.12125 9.47278 3.36988 9.13929 3.91951 9.06254H5.63124C6.85299 9.06254 7.64239 9.83313 7.64326 11.0796C7.64239 12.359 6.87262 13.1168 5.63124 13.1176V13.1175ZM3.12125 5.02233V4.23255C3.12125 3.54129 3.41374 3.2125 4.05562 3.17028H5.33995C6.44145 3.17028 7.1012 3.82956 7.1012 4.93235C7.1012 5.7733 6.64959 6.75455 5.38046 6.75455H3.12125V5.02233ZM8.83688 8.01725L8.38309 7.76224L8.77921 7.42364C9.23983 7.02748 10.0121 6.13707 10.0121 4.59845C10.0121 2.24447 8.18614 0.72504 5.36002 0.72504H2.13484V0.724189H1.76764C0.929764 0.754902 0.259375 1.43635 0.25 2.27944V15.6412H1.7301C1.73385 15.6421 1.73511 15.6412 1.73636 15.6421L5.42372 15.6412C8.56535 15.6412 10.5931 13.9312 10.5931 11.2825C10.5931 9.85651 9.9377 8.6373 8.8362 8.01725" fill="#837641"/>
<path d="M114.76 4.66885C113.48 4.66885 112.243 5.268 111.449 6.2727L111.226 6.55586L111.051 6.23901C110.48 5.19763 109.497 4.66885 108.13 4.66885C106.697 4.66885 105.735 5.46842 105.289 5.94391L104.997 6.26033L104.884 5.84412C104.721 5.24497 104.188 4.9149 103.38 4.9149H102.084L102.071 15.6903H105.016V10.9337C105.016 10.5171 105.068 10.1047 105.172 9.6736C105.453 8.52433 106.226 7.28807 107.524 7.41173C108.325 7.4885 108.716 8.10727 108.716 9.30259V15.6903H111.682V10.9337C111.682 10.4131 111.73 10.0233 111.848 9.63223C112.086 8.53499 112.893 7.41003 114.146 7.41003C115.052 7.41003 115.388 7.92347 115.388 9.30259V14.115C115.388 15.2037 115.873 15.6903 116.961 15.6903H118.347L118.35 8.81133C118.35 6.06332 117.14 4.66885 114.759 4.66885" fill="#978955"/>
<path d="M87.9675 11.9491C87.9587 11.9597 86.6916 13.2958 85.0233 13.2958C83.5034 13.2958 81.9678 12.3632 81.9678 10.2813C81.9678 8.4838 83.1584 7.22749 84.8625 7.22749C85.416 7.22749 86.0455 7.42579 86.144 7.75926L86.1585 7.81556C86.3854 8.57165 87.0725 8.61216 87.2076 8.61216L88.8208 8.61391V7.20367C88.8208 5.34352 86.4548 4.66888 84.8625 4.66888C81.4578 4.66888 78.9873 7.03948 78.9873 10.3039C78.9873 13.5671 81.4309 15.9343 84.8003 15.9343C87.7235 15.9343 89.3133 14.0127 89.3282 13.9935L89.4131 13.8895L88.1355 11.77L87.9675 11.9491" fill="#978955"/>
</g>
<defs>
<clipPath id="clip0">
<rect width="118.6" height="20.1229" fill="white"/>
</clipPath>
</defs>
</svg>
