<svg width="105" height="21" viewBox="0 0 105 21" fill="none" xmlns="http://www.w3.org/2000/svg">
<path d="M6.69882 20.624H2.74626V10.4844H0.0537109V7.18313H2.74616V4.83405C2.74616 2.05038 3.93703 0.0539551 7.87889 0.0539551C8.71259 0.0539551 10.0215 0.226882 10.0215 0.226882V3.29228H8.64672C7.24595 3.29228 6.69903 3.73075 6.69903 4.94296V7.18313H9.96903L9.67784 10.4844H6.69892L6.69882 20.624ZM15.768 6.91931C15.7105 6.91931 15.6512 6.92147 15.5926 6.92298C11.9275 6.92298 10.2507 9.75997 10.2507 13.7872C10.2507 18.8603 12.4258 20.8907 15.6212 20.8907C17.4494 20.8907 18.6506 20.0989 19.3806 18.6211V20.6254H23.1401V7.18453H19.3806V9.25155C18.7845 7.92168 17.5498 6.93507 15.768 6.91931ZM16.724 10.0954C18.2633 10.0954 19.1872 11.2003 19.1872 13.0797L19.1908 14.9993C19.1908 16.266 18.4277 17.7479 16.724 17.7479C14.1047 17.7479 14.1747 14.8376 14.1747 13.8682C14.1747 10.6075 15.5702 10.0954 16.724 10.0954ZM24.6583 13.9057C24.6583 12.2724 24.5824 6.92806 31.3485 6.92806C34.0646 6.92806 35.1987 7.81676 35.1987 7.81676L34.2872 10.7262C34.2872 10.7262 33.1545 10.0843 31.6786 10.0843C29.7883 10.0843 28.5821 11.212 28.5821 13.1962L28.5842 14.6189C28.5842 16.5254 29.748 17.798 31.6825 17.798C33.0271 17.798 34.2663 17.1502 34.2663 17.1502L35.1755 19.9988C35.1755 19.9988 34.1385 20.8931 31.3675 20.8931C24.9251 20.8931 24.6584 16.0982 24.6584 13.9057H24.6583ZM57.2417 6.92298C60.9068 6.92298 62.6101 9.75997 62.6101 13.7872C62.6101 18.8603 60.4349 20.8907 57.2395 20.8907C55.4113 20.8907 54.0598 20.099 53.3297 18.6211V20.6254L49.6176 20.6239V0.462632L53.5589 0.108899V9.06945C54.1278 7.50178 55.9972 6.92298 57.2418 6.92298H57.2417ZM56.1367 10.0954C54.5974 10.0954 53.5589 11.2003 53.5589 13.0797L53.5553 14.9993C53.5529 16.266 54.2744 17.7479 56.1367 17.7479C58.756 17.7479 58.686 14.8376 58.686 13.8682C58.686 10.6075 57.2906 10.0954 56.1367 10.0954ZM42.0372 6.9341C37.8803 6.9341 35.6856 9.26645 35.6856 13.4113V14.1814C35.6856 19.561 38.7676 20.946 42.4418 20.946C46.0132 20.946 47.6297 19.9181 47.6297 19.9181L46.8922 17.1806C46.8922 17.1806 44.9907 18.0132 42.9144 18.0132C40.7619 18.0132 39.8362 17.4486 39.599 15.32H47.9448V13.1238C47.9448 8.62775 45.4818 6.93399 42.0371 6.93399L42.0372 6.9341ZM42.1374 9.67524C43.5764 9.67524 44.5088 10.5833 44.4576 12.6891H39.6062C39.6903 10.4727 40.6958 9.67534 42.1374 9.67534V9.67524ZM70.469 6.91564C66.2 6.91564 63.9527 9.39124 63.9527 13.8276C63.9527 19.9146 67.8266 20.8944 70.4761 20.8944C74.3547 20.8944 76.9351 18.7456 76.9351 13.8829C76.9351 8.82172 74.0337 6.91564 70.469 6.91564ZM70.4153 10.1064C72.2924 10.1064 73.0362 11.5521 73.0362 13.1977V14.6125C73.0362 16.606 71.9954 17.7591 70.4081 17.7591C68.9236 17.7591 67.8804 16.6805 67.8804 14.6125V13.1977C67.8804 10.9922 69.1218 10.1064 70.4153 10.1064ZM84.7869 6.91564C80.518 6.91564 78.2706 9.39124 78.2706 13.8276C78.2706 19.9146 82.1446 20.8944 84.7941 20.8944C88.6726 20.8944 91.2531 18.7456 91.2531 13.8829C91.2531 8.82172 88.3516 6.91564 84.7869 6.91564ZM84.7332 10.1064C86.6103 10.1064 87.354 11.5521 87.354 13.1977V14.6125C87.354 16.606 86.3133 17.7591 84.7261 17.7591C83.2416 17.7591 82.1983 16.6805 82.1983 14.6125V13.1977C82.1983 10.9922 83.4398 10.1064 84.7332 10.1064ZM92.7425 20.624V0.462632L96.6953 0.108899V13.6223L100.617 7.18313H104.791L100.7 13.8522L104.949 20.624H100.763L96.6953 14.0487V20.624H92.7425Z" fill="#837641"/>
</svg>
