<svg width="111" height="29" viewBox="0 0 111 29" fill="none" xmlns="http://www.w3.org/2000/svg">
<path d="M20.8663 2.88368C19.5831 1.43977 17.2634 0.82074 14.296 0.82074H5.68355C5.07642 0.82074 4.56052 1.25664 4.46546 1.84767L0.879426 24.3001C0.808135 24.7428 1.15539 25.1439 1.60997 25.1439H6.92693L8.2623 16.7824L8.22091 17.0442C8.31596 16.4532 8.82803 16.0173 9.43439 16.0173H11.961C16.9246 16.0173 20.8111 14.027 21.9464 8.26956C21.9801 8.09929 22.0093 7.93355 22.0346 7.77161C21.8912 7.69669 21.8912 7.69669 22.0346 7.77161C22.3726 5.64359 22.0321 4.19515 20.8663 2.88368Z" fill="#837641"/>
<path d="M75.7998 13.5006H72.9382C72.6645 13.5006 72.4085 13.6345 72.2551 13.8585L68.3073 19.5978L66.6346 14.0825C66.5296 13.7374 66.2076 13.5006 65.8428 13.5006H63.0302C62.6906 13.5006 62.4514 13.8305 62.5611 14.1476L65.7117 23.2787L62.7481 27.4068C62.5158 27.7307 62.7505 28.1787 63.1528 28.1787H66.0114C66.282 28.1787 66.5357 28.0478 66.6906 27.8284L76.2068 14.2687C76.4345 13.944 76.1999 13.5006 75.7998 13.5006ZM56.6686 18.9711C56.3934 20.577 55.1025 21.6554 53.4552 21.6554C52.6296 21.6554 51.968 21.3928 51.5433 20.8963C51.1225 20.4044 50.9638 19.7029 51.0972 18.9227C51.3532 17.3305 52.6656 16.218 54.2877 16.218C55.0964 16.218 55.7526 16.4829 56.1857 16.9839C56.6219 17.4886 56.7936 18.1939 56.6686 18.9711ZM60.6364 13.5005H57.7894C57.5456 13.5005 57.3379 13.6753 57.2995 13.9137L57.1746 14.6992L56.976 14.4147C56.3589 13.5315 54.9845 13.2356 53.6123 13.2356C50.467 13.2356 47.7802 15.5891 47.2574 18.8894C46.9853 20.5361 47.3716 22.1094 48.3176 23.2075C49.1861 24.2162 50.4257 24.6362 51.9028 24.6362C54.4387 24.6362 55.8446 23.0289 55.8446 23.0289L55.7173 23.8099C55.6698 24.1065 55.9021 24.3752 56.2072 24.3752H58.7706C59.1776 24.3752 59.5234 24.0838 59.587 23.6873L61.1263 14.0658C61.1738 13.7691 60.9407 13.5005 60.6364 13.5005ZM43.5516 13.568C43.2265 15.6748 41.5968 15.6748 40.0199 15.6748H39.1231L39.7524 11.7412C39.7899 11.5035 39.9977 11.3287 40.2415 11.3287H40.6531C41.7263 11.3287 42.7398 11.3287 43.2626 11.9319C43.5753 12.2928 43.6696 12.8286 43.5516 13.568ZM42.8655 8.07086H36.9199C36.5129 8.07086 36.1672 8.36297 36.1035 8.75952L33.6995 23.81C33.652 24.1067 33.8843 24.3753 34.1886 24.3753H37.028C37.4343 24.3753 37.78 24.0832 37.8436 23.6874L38.4929 19.6266C38.5558 19.2301 38.9023 18.938 39.3086 18.938H41.1897C45.1062 18.938 47.3668 17.0673 47.9571 13.3584C48.2231 11.7374 47.9678 10.463 47.1989 9.57077C46.3534 8.59 44.8547 8.07086 42.8655 8.07086Z" fill="#837641"/>
<path d="M106.398 8.48444L103.958 23.8104C103.911 24.1071 104.143 24.3757 104.447 24.3757H106.902C107.308 24.3757 107.655 24.0836 107.718 23.687L110.124 8.63655C110.171 8.33989 109.939 8.07124 109.634 8.07124H106.888C106.644 8.07124 106.436 8.24606 106.398 8.48444ZM99.0749 18.9711C98.7997 20.577 97.5088 21.6554 95.8615 21.6554C95.0359 21.6554 94.3743 21.3928 93.9496 20.8963C93.528 20.4044 93.3701 19.7029 93.5035 18.9227C93.7595 17.3305 95.0719 16.218 96.694 16.218C97.5027 16.218 98.1589 16.4829 98.592 16.9839C99.0282 17.4886 99.1999 18.1939 99.0749 18.9711ZM103.043 13.5005H100.196C99.9519 13.5005 99.7442 13.6753 99.7058 13.9137L99.5809 14.6992L99.3816 14.4147C98.7652 13.5315 97.3908 13.2356 96.0186 13.2356C92.8734 13.2356 90.1865 15.5892 89.6637 18.8894C89.3916 20.5361 89.7779 22.1094 90.7239 23.2075C91.5924 24.2162 92.832 24.6363 94.3092 24.6363C96.845 24.6363 98.2509 23.0289 98.2509 23.0289L98.1236 23.8099C98.0761 24.1065 98.3084 24.3752 98.6135 24.3752H101.177C101.584 24.3752 101.93 24.0838 101.993 23.6873L103.533 14.0658C103.58 13.7691 103.347 13.5005 103.043 13.5005ZM85.9578 13.568C85.6328 15.6748 84.003 15.6748 82.4262 15.6748H81.5293L82.1587 11.7412C82.1962 11.5035 82.404 11.3287 82.6477 11.3287H83.0594C84.1326 11.3287 85.146 11.3287 85.6688 11.9319C85.9815 12.2928 86.0758 12.8286 85.9578 13.568ZM85.2717 8.07086H79.3262C78.9191 8.07086 78.5734 8.36297 78.5098 8.75952L76.1058 23.81C76.0583 24.1067 76.2913 24.3753 76.5949 24.3753H79.6458C79.9302 24.3753 80.1725 24.171 80.2169 23.894L80.8992 19.6266C80.962 19.2301 81.3085 18.938 81.7148 18.938H83.596C87.5124 18.938 89.773 17.0673 90.3633 13.3584C90.6293 11.7374 90.374 10.463 89.6052 9.57077C88.7596 8.59 87.261 8.07086 85.2717 8.07086Z" fill="#978955"/>
<path d="M20.8663 2.88368C19.5831 1.43977 17.2634 0.82074 14.296 0.82074H5.68355C5.07642 0.82074 4.56052 1.25664 4.46546 1.84767L0.879426 24.3001C0.808135 24.7428 1.15539 25.1439 1.60997 25.1439H6.92693L8.2623 16.7824L8.22091 17.0442C8.31596 16.4532 8.82803 16.0173 9.43439 16.0173H11.961C16.9246 16.0173 20.8111 14.027 21.9464 8.26956C21.9801 8.09929 22.0093 7.93355 22.0346 7.77161C21.8912 7.69669 21.8912 7.69669 22.0346 7.77161C22.3726 5.64359 22.0321 4.19515 20.8663 2.88368Z" fill="#837641"/>
<path d="M9.69733 7.79985C9.75406 7.44417 9.98556 7.15282 10.2968 7.00525C10.4386 6.93866 10.5965 6.90157 10.7621 6.90157H17.5141C18.3136 6.90157 19.0595 6.95303 19.741 7.06125C19.9365 7.09225 20.1258 7.12785 20.3098 7.16871C20.4938 7.20879 20.6724 7.25423 20.8456 7.30417C20.9322 7.32912 21.0173 7.35491 21.1009 7.38212C21.4359 7.49261 21.7479 7.62126 22.0346 7.77185C22.3726 5.64308 22.0321 4.19539 20.8663 2.88392C19.5823 1.44002 17.2634 0.820984 14.296 0.820984H5.68278C5.07642 0.820984 4.56052 1.25688 4.46546 1.84791L0.879427 24.2996C0.808136 24.743 1.15539 25.1433 1.60921 25.1433H6.92693L8.2623 16.7819L9.69733 7.79985Z" fill="#837641"/>
<path d="M22.0347 7.77161C22.0086 7.93431 21.9802 8.09928 21.9465 8.26956C20.8112 14.0263 16.9247 16.0173 11.9611 16.0173H9.43373C8.82737 16.0173 8.3153 16.4532 8.22101 17.0442L6.92703 25.1431L6.55984 27.4406C6.49775 27.8281 6.80131 28.1792 7.1984 28.1792H11.6806C12.211 28.1792 12.6625 27.7978 12.7453 27.281L12.7891 27.0554L13.6338 21.7702L13.6883 21.4781C13.7711 20.9612 14.2226 20.5798 14.753 20.5798H15.4238C19.7657 20.5798 23.1654 18.8385 24.1589 13.8022C24.5736 11.6977 24.359 9.94049 23.262 8.70621C22.9293 8.33237 22.5161 8.02361 22.0347 7.77161" fill="#978955"/>
<path d="M20.8454 7.30384C20.6722 7.2539 20.4936 7.20849 20.3096 7.16838C20.1256 7.12824 19.9355 7.09271 19.7408 7.06168C19.0585 6.95271 18.3134 6.90125 17.5131 6.90125H10.7619C10.5956 6.90125 10.4376 6.93836 10.2966 7.00568C9.98459 7.15325 9.75385 7.44384 9.69713 7.80028L8.2621 16.7823L8.2207 17.0441C8.31499 16.4531 8.82706 16.0172 9.43342 16.0172H11.9608C16.9244 16.0172 20.8109 14.0269 21.9462 8.26947C21.9799 8.0992 22.0083 7.93423 22.0344 7.77152C21.7469 7.62168 21.4357 7.49228 21.1007 7.38255C21.0171 7.3553 20.932 7.32879 20.8454 7.30384Z" fill="#837641"/>
</svg>
