<svg width="103" height="46" viewBox="0 0 103 46" fill="none" xmlns="http://www.w3.org/2000/svg">
<path d="M21.067 11.9354C21.067 9.26684 19.1549 7.44438 16.3717 7.44438H11.2939V22.6315H13.3335V16.4265H16.3717C19.1761 16.4265 21.0882 14.604 21.067 11.9354ZM16.223 14.5823H13.3335V9.31023H16.223C17.8589 9.31023 18.9424 10.3516 18.9424 11.9354C18.9424 13.5192 17.8589 14.5823 16.223 14.5823Z" fill="white"/>
<path d="M23.8449 22.6098H25.8207V6.98877H23.8449V22.6098Z" fill="white"/>
<path d="M37.8265 11.7619V13.9966H37.8053C37.0404 12.4995 35.532 11.5666 33.7049 11.5666C30.6667 11.5666 28.3934 13.9749 28.3934 17.2075C28.3934 20.4402 30.688 22.8268 33.7049 22.8268C35.532 22.8268 37.0404 21.8939 37.8053 20.3968H37.8265V22.6098H39.8024V11.7619H37.8265ZM34.1723 21.0477C32.0052 21.0477 30.4118 19.4205 30.4118 17.1859C30.4118 14.9729 32.0052 13.3457 34.1723 13.3457C36.3606 13.3457 37.9328 14.9729 37.9328 17.1859C37.9328 19.4205 36.3606 21.0477 34.1723 21.0477Z" fill="white"/>
<path d="M21.067 11.9354C21.067 9.26684 19.1549 7.44438 16.3717 7.44438H11.2939V22.6315H13.3335V16.4265H16.3717C19.1761 16.4265 21.0882 14.604 21.067 11.9354ZM16.223 14.5823H13.3335V9.31023H16.223C17.8589 9.31023 18.9424 10.3516 18.9424 11.9354C18.9424 13.5192 17.8589 14.5823 16.223 14.5823Z" stroke="white" stroke-width="0.5"/>
<path d="M23.8449 22.6098H25.8207V6.98877H23.8449V22.6098Z" stroke="white" stroke-width="0.5"/>
<path d="M37.8265 11.7619V13.9966H37.8053C37.0404 12.4995 35.532 11.5666 33.7049 11.5666C30.6667 11.5666 28.3934 13.9749 28.3934 17.2075C28.3934 20.4402 30.688 22.8268 33.7049 22.8268C35.532 22.8268 37.0404 21.8939 37.8053 20.3968H37.8265V22.6098H39.8024V11.7619H37.8265ZM34.1723 21.0477C32.0052 21.0477 30.4118 19.4205 30.4118 17.1859C30.4118 14.9729 32.0052 13.3457 34.1723 13.3457C36.3606 13.3457 37.9328 14.9729 37.9328 17.1859C37.9328 19.4205 36.3606 21.0477 34.1723 21.0477Z" stroke="white" stroke-width="0.5"/>
<path fill-rule="evenodd" clip-rule="evenodd" d="M1 0.653564H52.4736V30.7458H1V0.653564ZM3.00755 2.62269V28.7767H50.466V2.62269H3.00755Z" fill="white" stroke="white" stroke-width="0.5" stroke-miterlimit="10"/>
<path d="M64.3013 36.2891C67.6688 36.2891 70.0409 34.0248 69.8503 30.6924H67.7959C67.9865 32.9567 66.504 34.5588 64.3013 34.5588C62.0775 34.5588 60.5738 32.9353 60.5738 30.7351C60.5738 28.5135 62.1199 26.9328 64.2378 26.9328C65.6568 26.9328 66.8217 27.6591 67.3511 28.7271H69.469C68.8337 26.5483 66.8217 25.2025 64.259 25.2025C60.9339 25.2025 58.583 27.5095 58.583 30.7351C58.583 33.9607 60.9127 36.2891 64.3013 36.2891Z" fill="white"/>
<path d="M80.6974 31.6964C80.6339 33.3626 79.2149 34.5588 77.2876 34.5588C75.0849 34.5588 73.5812 32.9994 73.5812 30.6069C73.5812 30.5856 73.5812 30.5642 73.5812 30.5429H82.5188C82.5823 27.2959 80.4432 25.2025 77.2452 25.2025C74.0048 25.2025 71.6751 27.4668 71.6751 30.6924C71.6751 33.9393 74.026 36.2891 77.3511 36.2891C80.3373 36.2891 82.5823 34.4093 82.7094 31.6964H80.6974ZM77.2452 26.7619C78.876 26.7619 80.0408 27.5736 80.4432 29.0048H73.8566C74.3437 27.6377 75.5297 26.7619 77.2452 26.7619Z" fill="white"/>
<path d="M89.6227 36.2891C92.376 36.2891 94.2185 34.8365 94.2185 32.679C94.2185 30.7992 92.7572 30.0515 91.1688 29.8379L88.7755 29.5175C88.2884 29.4321 87.2506 29.2612 87.2506 28.2572C87.2506 27.3386 88.119 26.7619 89.3262 26.7619C90.4699 26.7619 91.2747 27.2532 91.5076 28.0649H93.4985C93.2655 26.2492 91.7618 25.2025 89.3474 25.2025C86.9118 25.2025 85.3234 26.4842 85.3234 28.364C85.3234 30.137 86.7423 30.8206 88.2672 31.0342L90.6816 31.3546C91.1899 31.44 92.2701 31.6323 92.2701 32.7858C92.2701 33.918 91.1899 34.6656 89.6439 34.6656C87.6742 34.6656 86.3823 33.4694 86.4458 31.7391H84.4338C84.3915 34.4947 86.5517 36.2891 89.6227 36.2891Z" fill="white"/>
<path d="M64.3013 36.2891C67.6688 36.2891 70.0409 34.0248 69.8503 30.6924H67.7959C67.9865 32.9567 66.504 34.5588 64.3013 34.5588C62.0775 34.5588 60.5738 32.9353 60.5738 30.7351C60.5738 28.5135 62.1199 26.9328 64.2378 26.9328C65.6568 26.9328 66.8217 27.6591 67.3511 28.7271H69.469C68.8337 26.5483 66.8217 25.2025 64.259 25.2025C60.9339 25.2025 58.583 27.5095 58.583 30.7351C58.583 33.9607 60.9127 36.2891 64.3013 36.2891Z" stroke="white" stroke-width="0.5"/>
<path d="M80.6974 31.6964C80.6339 33.3626 79.2149 34.5588 77.2876 34.5588C75.0849 34.5588 73.5812 32.9994 73.5812 30.6069C73.5812 30.5856 73.5812 30.5642 73.5812 30.5429H82.5188C82.5823 27.2959 80.4432 25.2025 77.2452 25.2025C74.0048 25.2025 71.6751 27.4668 71.6751 30.6924C71.6751 33.9393 74.026 36.2891 77.3511 36.2891C80.3373 36.2891 82.5823 34.4093 82.7094 31.6964H80.6974ZM77.2452 26.7619C78.876 26.7619 80.0408 27.5736 80.4432 29.0048H73.8566C74.3437 27.6377 75.5297 26.7619 77.2452 26.7619Z" stroke="white" stroke-width="0.5"/>
<path d="M89.6227 36.2891C92.376 36.2891 94.2185 34.8365 94.2185 32.679C94.2185 30.7992 92.7572 30.0515 91.1688 29.8379L88.7755 29.5175C88.2884 29.4321 87.2506 29.2612 87.2506 28.2572C87.2506 27.3386 88.119 26.7619 89.3262 26.7619C90.4699 26.7619 91.2747 27.2532 91.5076 28.0649H93.4985C93.2655 26.2492 91.7618 25.2025 89.3474 25.2025C86.9118 25.2025 85.3234 26.4842 85.3234 28.364C85.3234 30.137 86.7423 30.8206 88.2672 31.0342L90.6816 31.3546C91.1899 31.44 92.2701 31.6323 92.2701 32.7858C92.2701 33.918 91.1899 34.6656 89.6439 34.6656C87.6742 34.6656 86.3823 33.4694 86.4458 31.7391H84.4338C84.3915 34.4947 86.5517 36.2891 89.6227 36.2891Z" stroke="white" stroke-width="0.5"/>
<path fill-rule="evenodd" clip-rule="evenodd" d="M50.665 14.9078H102.139V45H50.665V14.9078ZM52.6726 16.8769V43.0309H100.131V16.8769H52.6726Z" fill="white" stroke="white" stroke-width="0.5" stroke-miterlimit="10"/>
</svg>
