<svg width="98" height="25" viewBox="0 0 98 25" fill="none" xmlns="http://www.w3.org/2000/svg">
<path d="M31.4238 19.1065L32.6393 16.3329C33.9528 17.296 35.6977 17.7968 37.4229 17.7968C38.6972 17.7968 39.501 17.3152 39.501 16.5833C39.4814 14.5417 31.8747 16.1403 31.8159 11.0169C31.7963 8.41666 34.1489 6.41351 37.4817 6.41351C39.4618 6.41351 41.4418 6.89504 42.8534 7.99292L41.7163 10.8243C40.4224 10.0153 38.8148 9.43749 37.2856 9.43749C36.2466 9.43749 35.5604 9.91902 35.5604 10.5354C35.58 12.5385 43.2455 11.4406 43.3239 16.3329C43.3239 18.991 41.0301 20.8593 37.7365 20.8593C35.3252 20.8593 33.1098 20.3007 31.4238 19.1065Z" fill="#837641"/>
<path d="M78.0634 15.3314C77.4557 16.3715 76.3186 17.0841 75.0051 17.0841C73.0642 17.0841 71.4958 15.5432 71.4958 13.6364C71.4958 11.7296 73.0642 10.1887 75.0051 10.1887C76.3186 10.1887 77.4557 10.9013 78.0634 11.9414L81.4158 10.1116C80.1611 7.91587 77.7497 6.41351 75.0051 6.41351C70.9469 6.41351 67.6533 9.64936 67.6533 13.6364C67.6533 17.6234 70.9469 20.8593 75.0051 20.8593C77.7694 20.8593 80.1611 19.3762 81.4158 17.1612L78.0634 15.3314Z" fill="#837641"/>
<path d="M49.2052 0.42334H45.0098V20.5896H49.2052V0.42334Z" fill="#837641"/>
<path d="M83.0625 0.42334V20.5896H87.2579V14.5417L92.2375 20.5896H97.6092L91.2769 13.4053L97.1387 6.70243H92.0022L87.2579 12.2689V0.42334H83.0625Z" fill="#837641"/>
<path d="M61.6731 15.3699C61.0654 16.3522 59.8107 17.0841 58.3992 17.0841C56.4583 17.0841 54.8899 15.5432 54.8899 13.6364C54.8899 11.7296 56.4583 10.1887 58.3992 10.1887C59.8107 10.1887 61.0654 10.9591 61.6731 11.9607V15.3699ZM61.6731 6.70243V8.33961C60.987 7.20321 59.2814 6.41351 57.4973 6.41351C53.8117 6.41351 50.9102 9.61084 50.9102 13.6171C50.9102 17.6234 53.8117 20.8593 57.4973 20.8593C59.2814 20.8593 60.987 20.0696 61.6731 18.9332V20.5704H65.8685V6.70243H61.6731Z" fill="#837641"/>
<path d="M5.48716 15.3506C5.48716 16.7567 4.33049 17.8931 2.89934 17.8931C1.4682 17.8931 0.311523 16.7567 0.311523 15.3506C0.311523 13.9446 1.4682 12.8082 2.89934 12.8082H5.48716V15.3506Z" fill="#837641"/>
<path d="M6.78125 15.3506C6.78125 13.9446 7.93793 12.8082 9.36907 12.8082C10.8002 12.8082 11.9569 13.9446 11.9569 15.3506V21.7068C11.9569 23.1128 10.8002 24.2492 9.36907 24.2492C7.93793 24.2492 6.78125 23.1128 6.78125 21.7068V15.3506Z" fill="#837641"/>
<path d="M9.36907 5.14228C7.93793 5.14228 6.78125 4.00588 6.78125 2.59983C6.78125 1.19377 7.93793 0.057373 9.36907 0.057373C10.8002 0.057373 11.9569 1.19377 11.9569 2.59983V5.14228H9.36907Z" fill="#837641"/>
<path d="M9.36896 6.4328C10.8001 6.4328 11.9568 7.5692 11.9568 8.97525C11.9568 10.3813 10.8001 11.5177 9.36896 11.5177H2.87981C1.44867 11.5177 0.291992 10.3813 0.291992 8.97525C0.291992 7.5692 1.44867 6.4328 2.87981 6.4328H9.36896Z" fill="#837641"/>
<path d="M19.7402 8.97525C19.7402 7.5692 20.8969 6.4328 22.3281 6.4328C23.7592 6.4328 24.9159 7.5692 24.9159 8.97525C24.9159 10.3813 23.7592 11.5177 22.3281 11.5177H19.7402V8.97525Z" fill="#837641"/>
<path d="M18.4461 8.97522C18.4461 10.3813 17.2895 11.5177 15.8583 11.5177C14.4272 11.5177 13.2705 10.3813 13.2705 8.97522V2.59983C13.2705 1.19377 14.4272 0.057373 15.8583 0.057373C17.2895 0.057373 18.4461 1.19377 18.4461 2.59983V8.97522Z" fill="#837641"/>
<path d="M15.8583 19.1643C17.2895 19.1643 18.4461 20.3007 18.4461 21.7068C18.4461 23.1128 17.2895 24.2492 15.8583 24.2492C14.4272 24.2492 13.2705 23.1128 13.2705 21.7068V19.1643H15.8583Z" fill="#837641"/>
<path d="M15.8583 17.8931C14.4272 17.8931 13.2705 16.7567 13.2705 15.3506C13.2705 13.9446 14.4272 12.8082 15.8583 12.8082H22.3475C23.7786 12.8082 24.9353 13.9446 24.9353 15.3506C24.9353 16.7567 23.7786 17.8931 22.3475 17.8931H15.8583Z" fill="#837641"/>
</svg>
