<svg xmlns="http://www.w3.org/2000/svg" xmlns:xlink="http://www.w3.org/1999/xlink" viewBox="0 0 67 67"><defs><linearGradient id="Безымянный_градиент_5" x1="11.32" y1="10.91" x2="55.68" y2="55.26" gradientUnits="userSpaceOnUse"><stop offset="0" stop-color="#fff"/><stop offset="1" stop-opacity="0"/></linearGradient></defs><title>icons</title><g id="Слой_6" data-name="Слой 6"><path d="M33.5,7.73A25.36,25.36,0,1,0,58.86,33.09H33.5Z" fill="#1d2f3c"/><path d="M33.5,7.73V33.09H58.86A25.39,25.39,0,0,0,33.5,7.73Z" fill="#ffcc48"/><path d="M58.86,33.09A25.36,25.36,0,1,1,33.5,7.73v-6A31.36,31.36,0,1,0,64.86,33.09Z" fill="#253d4c"/><path d="M58.86,33.09h6A31.36,31.36,0,0,0,33.5,1.73v6A25.39,25.39,0,0,1,58.86,33.09Z" fill="#ffb31a"/><circle cx="33.5" cy="33.09" r="31.36" opacity="0.2" fill="url(#Безымянный_градиент_5)"/></g></svg>