<svg width="67" height="67" viewBox="0 0 67 67" fill="none" xmlns="http://www.w3.org/2000/svg">
<path d="M33.4997 7.72998C28.4839 7.72998 23.5808 9.21732 19.4104 12.0039C15.24 14.7905 11.9895 18.7512 10.0701 23.3851C8.15064 28.0191 7.64842 33.1181 8.62694 38.0375C9.60547 42.9568 12.0208 47.4755 15.5674 51.0222C19.1141 54.5689 23.6328 56.9842 28.5522 57.9627C33.4715 58.9412 38.5706 58.439 43.2045 56.5196C47.8384 54.6001 51.7991 51.3497 54.5857 47.1792C57.3723 43.0088 58.8597 38.1057 58.8597 33.09H33.4997V7.72998Z" fill="#1D2F3C"/>
<path d="M33.5 7.72998V33.09H58.86C58.8521 26.3665 56.1777 19.9207 51.4235 15.1665C46.6693 10.4123 40.2235 7.73792 33.5 7.72998Z" fill="#FFCC48"/>
<path d="M58.8597 33.09C58.8597 38.1057 57.3723 43.0088 54.5857 47.1792C51.7991 51.3497 47.8385 54.6001 43.2045 56.5196C38.5706 58.439 33.4715 58.9412 28.5522 57.9627C23.6328 56.9842 19.1141 54.5689 15.5674 51.0222C12.0208 47.4755 9.60547 42.9568 8.62695 38.0375C7.64843 33.1181 8.15064 28.0191 10.0701 23.3851C11.9895 18.7512 15.24 14.7905 19.4104 12.0039C23.5808 9.21732 28.4839 7.72998 33.4997 7.72998V1.72998C27.2972 1.72998 21.2341 3.56921 16.077 7.01509C10.9199 10.461 6.90036 15.3587 4.5268 21.089C2.15324 26.8193 1.5322 33.1248 2.74224 39.208C3.95227 45.2913 6.93902 50.8791 11.3248 55.2649C15.7106 59.6506 21.2984 62.6374 27.3816 63.8474C33.4649 65.0574 39.7703 64.4364 45.5006 62.0628C51.2309 59.6893 56.1287 55.6698 59.5746 50.5127C63.0204 45.3555 64.8597 39.2924 64.8597 33.09H58.8597Z" fill="#253D4C"/>
<path d="M58.86 33.09H64.86C64.86 24.7728 61.556 16.7963 55.6749 10.9151C49.7937 5.03397 41.8172 1.72998 33.5 1.72998V7.72998C40.2235 7.73792 46.6693 10.4123 51.4235 15.1665C56.1777 19.9207 58.8521 26.3665 58.86 33.09Z" fill="#FFB31A"/>
<path opacity="0.2" d="M33.4996 64.45C50.8193 64.45 64.8596 50.4096 64.8596 33.09C64.8596 15.7703 50.8193 1.72998 33.4996 1.72998C16.18 1.72998 2.13965 15.7703 2.13965 33.09C2.13965 50.4096 16.18 64.45 33.4996 64.45Z" fill="url(#paint0_linear)"/>
<defs>
<linearGradient id="paint0_linear" x1="11.3196" y1="10.91" x2="55.6796" y2="55.26" gradientUnits="userSpaceOnUse">
<stop stop-color="white"/>
<stop offset="1" stop-opacity="0"/>
</linearGradient>
</defs>
</svg>
