<svg xmlns="http://www.w3.org/2000/svg" xmlns:xlink="http://www.w3.org/1999/xlink" viewBox="0 0 67 67"><defs><linearGradient id="Безымянный_градиент_5" x1="6.83" y1="32.93" x2="56.03" y2="32.93" gradientUnits="userSpaceOnUse"><stop offset="0" stop-color="#fff"/><stop offset="1" stop-opacity="0"/></linearGradient></defs><title>icons</title><g id="Слой_6" data-name="Слой 6"><circle cx="16.47" cy="12.88" r="9.64" fill="#ffcc48"/><path d="M16.47,6.24a6.64,6.64,0,1,1-6.64,6.64,6.65,6.65,0,0,1,6.64-6.64m0-3a9.64,9.64,0,1,0,9.64,9.64,9.65,9.65,0,0,0-9.64-9.64Z" fill="#ffb31a"/><polygon points="56.03 12.88 16.47 12.88 24.57 23.28 47.94 23.28 56.03 12.88" fill="#1d2f3c"/><polygon points="47.94 23.28 24.57 23.28 36.25 38.29 47.94 23.28" fill="#16242d"/><rect x="34.75" y="35.72" width="3" height="27.17" fill="#16242d"/><rect x="31.89" y="12.05" width="27.17" height="3" transform="translate(8.76 43.61) rotate(-55.91)" fill="#16242d"/><rect x="25.31" y="61.39" width="22.02" height="3" fill="#16242d"/><path d="M47.94,23.28,56,12.88h-8.3l6.6-9.74L51.85,1.46,44.11,12.88h-18A9.64,9.64,0,0,0,7.59,9.13,10,10,0,0,0,7,10.94a9.6,9.6,0,0,0-.2,1.94A9.45,9.45,0,0,0,7,14.82a9.76,9.76,0,0,0,.56,1.81,9.63,9.63,0,0,0,14.8,3.85l2.18,2.8L34.75,36.36v25H25.31v3h22v-3H37.75v-25Z" opacity="0.2" fill="url(#Безымянный_градиент_5)"/></g></svg>