<svg width="54" height="65" viewBox="0 0 54 65" fill="none" xmlns="http://www.w3.org/2000/svg">
<path d="M39.5902 34.05H13.7402V40.5201H39.5902V34.05Z" fill="#FFCC48"/>
<path d="M17.5801 10.51L19.5801 34.05H33.7401L35.7401 10.51H17.5801Z" fill="#1D2F3C"/>
<path d="M35.7402 10.51L33.7402 34.05H39.5802L44.5802 10.51H35.7402Z" fill="#16242D"/>
<path d="M8.74023 10.51L13.7402 34.05H19.5802L17.5802 10.51H8.74023Z" fill="#16242D"/>
<path d="M19.5801 40.52L17.5801 64.07H35.7401L33.7401 40.52H19.5801Z" fill="#1D2F3C"/>
<path d="M13.7402 40.52L8.74023 64.07H17.5802L19.5802 40.52H13.7402Z" fill="#16242D"/>
<path d="M39.5802 40.52H33.7402L35.7402 64.07H44.5802L39.5802 40.52Z" fill="#16242D"/>
<path d="M22.1406 4.50011C22.3689 3.48183 22.9351 2.57082 23.7472 1.91543C24.5593 1.26004 25.5693 0.898881 26.6128 0.890765C27.6563 0.882649 28.6719 1.22805 29.494 1.87073C30.3162 2.51341 30.8966 3.4155 31.1406 4.43011L22.1406 4.50011Z" fill="#FFCC48"/>
<path d="M8.74027 10.51H0.280273L11.0703 21.3L8.74027 10.51Z" fill="#FFCC48"/>
<path d="M39.5902 34.05H33.7402V40.5201H39.5902V34.05Z" fill="#FFB31A"/>
<path d="M19.5902 34.05H13.7402V40.5201H19.5902V34.05Z" fill="#FFB31A"/>
<path d="M19.5806 4.43018L17.6006 10.5102H35.7206L33.7406 4.43018H19.5806Z" fill="#16242D"/>
<path d="M37.5802 4.43018H33.7402L35.7202 10.5102H44.5802L37.5802 4.43018Z" fill="#1D2F3C"/>
<path d="M15.7402 4.43018L8.74023 10.5102H17.6002L19.5802 4.43018H15.7402Z" fill="#1D2F3C"/>
<path d="M53.9507 16.35H43.2607L44.5807 10.51H53.9507V16.35Z" fill="#1D2F3C"/>
<path d="M53.9507 25.86H44.2607L45.5807 20.02H53.9507V25.86Z" fill="#1D2F3C"/>
<path d="M48.5205 20.02V16.35L53.9505 10.51V25.86L48.5205 20.02Z" fill="#16242D"/>
<path opacity="0.2" d="M44.5803 10.5101L37.5803 4.43007H31.1703C30.934 3.41372 30.3606 2.5073 29.5435 1.85836C28.7264 1.20942 27.7137 0.856201 26.6703 0.856201C25.6268 0.856201 24.6141 1.20942 23.797 1.85836C22.9799 2.5073 22.4065 3.41372 22.1703 4.43007H15.7403L8.74027 10.5101H0.280273L11.0003 21.2401L13.7203 34.0501V40.5201L8.72027 64.0701H44.5803L39.5803 40.5201V34.0501L43.3403 16.3501H48.5203V20.0001H45.5803L44.2603 25.8401H54.0003V10.5101H44.5803Z" fill="url(#paint0_linear)"/>
<defs>
<linearGradient id="paint0_linear" x1="0.280273" y1="32.4401" x2="53.9503" y2="32.4401" gradientUnits="userSpaceOnUse">
<stop stop-color="white"/>
<stop offset="1" stop-opacity="0"/>
</linearGradient>
</defs>
</svg>
