<svg xmlns="http://www.w3.org/2000/svg" xmlns:xlink="http://www.w3.org/1999/xlink" viewBox="0 0 67 67"><defs><linearGradient id="Безымянный_градиент_5" x1="7.28" y1="33.44" x2="60.95" y2="33.44" gradientUnits="userSpaceOnUse"><stop offset="0" stop-color="#fff"/><stop offset="1" stop-opacity="0"/></linearGradient></defs><title>icons</title><g id="Слой_6" data-name="Слой 6"><rect x="20.74" y="35.05" width="25.85" height="6.47" fill="#ffcc48"/><polygon points="24.58 11.51 26.58 35.05 40.74 35.05 42.74 11.51 24.58 11.51" fill="#1d2f3c"/><polygon points="42.74 11.51 40.74 35.05 46.58 35.05 51.58 11.51 42.74 11.51" fill="#16242d"/><polygon points="15.74 11.51 20.74 35.05 26.58 35.05 24.58 11.51 15.74 11.51" fill="#16242d"/><polygon points="26.58 41.52 24.58 65.07 42.74 65.07 40.74 41.52 26.58 41.52" fill="#1d2f3c"/><polygon points="20.74 41.52 15.74 65.07 24.58 65.07 26.58 41.52 20.74 41.52" fill="#16242d"/><polygon points="46.58 41.52 40.74 41.52 42.74 65.07 51.58 65.07 46.58 41.52" fill="#16242d"/><path d="M29.14,5.5a4.62,4.62,0,0,1,9-.07Z" fill="#ffcc48"/><polygon points="15.74 11.51 7.28 11.51 18.07 22.3 15.74 11.51" fill="#ffcc48"/><rect x="40.74" y="35.05" width="5.85" height="6.47" fill="#ffb31a"/><rect x="20.74" y="35.05" width="5.85" height="6.47" fill="#ffb31a"/><polygon points="26.58 5.43 24.6 11.51 42.72 11.51 40.74 5.43 26.58 5.43" fill="#16242d"/><polygon points="44.58 5.43 40.74 5.43 42.72 11.51 51.58 11.51 44.58 5.43" fill="#1d2f3c"/><polygon points="22.74 5.43 15.74 11.51 24.6 11.51 26.58 5.43 22.74 5.43" fill="#1d2f3c"/><polygon points="60.95 17.35 50.26 17.35 51.58 11.51 60.95 11.51 60.95 17.35" fill="#1d2f3c"/><polygon points="60.95 26.86 51.26 26.86 52.58 21.02 60.95 21.02 60.95 26.86" fill="#1d2f3c"/><polygon points="55.52 21.02 55.52 17.35 60.95 11.51 60.95 26.86 55.52 21.02" fill="#16242d"/><path d="M51.58,11.51l-7-6.08H38.17a4.62,4.62,0,0,0-9,0H22.74l-7,6.08H7.28L18,22.24l2.72,12.81v6.47l-5,23.55H51.58l-5-23.55V35.05l3.76-17.7h5.18V21H52.58l-1.32,5.84H61V11.51Z" opacity="0.2" fill="url(#Безымянный_градиент_5)"/></g></svg>