<svg xmlns="http://www.w3.org/2000/svg" xmlns:xlink="http://www.w3.org/1999/xlink" viewBox="0 0 67 67"><defs><linearGradient id="Безымянный_градиент_5" x1="0.9" y1="31.84" x2="64.49" y2="31.84" gradientUnits="userSpaceOnUse"><stop offset="0" stop-color="#fff"/><stop offset="1" stop-opacity="0"/></linearGradient></defs><title>icons</title><g id="Слой_6" data-name="Слой 6"><polygon points="0.9 25.07 0.9 60.72 25.21 42.9 0.9 25.07" fill="#1d2f3c"/><polygon points="40.19 42.9 64.49 60.72 64.49 25.07 40.19 42.9" fill="#1d2f3c"/><polygon points="32.7 37.41 40.19 42.9 64.49 25.07 0.9 25.07 25.21 42.9 32.7 37.41" fill="#1d2f3c" opacity="0.5"/><polygon points="32.7 37.41 40.19 42.9 64.49 25.07 0.9 25.07 25.21 42.9 32.7 37.41" fill="#ffb31a"/><polygon points="32.7 48.39 25.21 42.9 0.9 60.72 64.49 60.72 40.19 42.9 32.7 48.39" fill="#1d2f3c" opacity="0.5"/><polygon points="25.21 42.9 32.7 48.39 40.19 42.9 32.7 37.41 25.21 42.9" fill="#1d2f3c" opacity="0.5"/><polygon points="25.21 42.9 32.7 48.39 40.19 42.9 32.7 37.41 25.21 42.9" fill="#1d2f3c" opacity="0.5"/><polygon points="40.19 42.9 32.7 37.41 25.21 42.9 0.9 60.72 64.49 60.72 40.19 42.9" fill="#16242d"/><polygon points="32.7 2.95 0.9 25.07 64.49 25.07 32.7 2.95" fill="#ffcc48"/><polygon points="32.7 2.95 0.9 25.07 0.9 60.72 64.49 60.72 64.49 25.07 32.7 2.95" opacity="0.2" fill="url(#Безымянный_градиент_5)"/></g></svg>