<svg width="65" height="59" viewBox="0 0 65 59" fill="none" xmlns="http://www.w3.org/2000/svg">
<path d="M0.900391 23.0701V58.7201L25.2104 40.9001L0.900391 23.0701Z" fill="#1D2F3C"/>
<path d="M40.1904 40.9001L64.4904 58.7201V23.0701L40.1904 40.9001Z" fill="#1D2F3C"/>
<path opacity="0.5" d="M32.7004 35.4101L40.1904 40.9001L64.4904 23.0701H0.900391L25.2104 40.9001L32.7004 35.4101Z" fill="#1D2F3C"/>
<path d="M32.7004 35.4101L40.1904 40.9001L64.4904 23.0701H0.900391L25.2104 40.9001L32.7004 35.4101Z" fill="#FFB31A"/>
<path opacity="0.5" d="M32.7004 46.3899L25.2104 40.8999L0.900391 58.7199H64.4904L40.1904 40.8999L32.7004 46.3899Z" fill="#1D2F3C"/>
<path opacity="0.5" d="M25.21 40.8999L32.7 46.3899L40.19 40.8999L32.7 35.4099L25.21 40.8999Z" fill="#1D2F3C"/>
<path opacity="0.5" d="M25.21 40.8999L32.7 46.3899L40.19 40.8999L32.7 35.4099L25.21 40.8999Z" fill="#1D2F3C"/>
<path d="M40.1904 40.8999L32.7004 35.4099L25.2104 40.8999L0.900391 58.7199H64.4904L40.1904 40.8999Z" fill="#16242D"/>
<path d="M32.7004 0.949951L0.900391 23.07H64.4904L32.7004 0.949951Z" fill="#FFCC48"/>
<path opacity="0.2" d="M32.7004 0.949951L0.900391 23.07V58.72H64.4904V23.07L32.7004 0.949951Z" fill="url(#paint0_linear)"/>
<defs>
<linearGradient id="paint0_linear" x1="0.900391" y1="29.84" x2="64.4904" y2="29.84" gradientUnits="userSpaceOnUse">
<stop stop-color="white"/>
<stop offset="1" stop-opacity="0"/>
</linearGradient>
</defs>
</svg>
