<svg width="44" height="54" viewBox="0 0 44 54" fill="none" xmlns="http://www.w3.org/2000/svg">
<path d="M0.589844 0.48999V53.48H35.7598V46.21H43.0298V0.48999H0.589844Z" fill="#1D2F3C"/>
<path d="M43.0298 0.48999H0.589844V53.48L43.0298 0.48999Z" fill="#16242D"/>
<path d="M35.7598 53.48L43.0298 46.21H35.7598V53.48Z" fill="#16242D"/>
<path d="M11.2803 16.65C13.7435 16.65 15.7403 14.6532 15.7403 12.19C15.7403 9.72679 13.7435 7.72998 11.2803 7.72998C8.81712 7.72998 6.82031 9.72679 6.82031 12.19C6.82031 14.6532 8.81712 16.65 11.2803 16.65Z" fill="#FFCC48"/>
<path d="M23.5 24.8799H36.5V21.8799H25.9L23.5 24.8799Z" fill="#FFCC48"/>
<path d="M36.5001 31.9099V28.9099H20.2701L17.8701 31.9099H36.5001Z" fill="#FFCC48"/>
<path d="M36.4998 38.8101V35.8101H14.7498L12.3398 38.8101H36.4998Z" fill="#FFCC48"/>
<path d="M6.82031 21.8799V24.8799H23.5003L25.9003 21.8799H6.82031Z" fill="#FFB31A"/>
<path d="M6.82031 31.9099H17.8703L20.2703 28.9099H6.82031V31.9099Z" fill="#FFB31A"/>
<path d="M6.82031 38.8101H12.3403L14.7503 35.8101H6.82031V38.8101Z" fill="#FFB31A"/>
<path opacity="0.2" d="M0.589844 0.48999V53.48H35.7598L43.0298 46.21V0.48999H0.589844Z" fill="url(#paint0_linear)"/>
<defs>
<linearGradient id="paint0_linear" x1="0.589844" y1="26.99" x2="43.0398" y2="26.99" gradientUnits="userSpaceOnUse">
<stop stop-color="white"/>
<stop offset="1" stop-opacity="0"/>
</linearGradient>
</defs>
</svg>
