<svg xmlns="http://www.w3.org/2000/svg" xmlns:xlink="http://www.w3.org/1999/xlink" viewBox="0 0 67 67"><defs><linearGradient id="Безымянный_градиент_5" x1="13.59" y1="33.99" x2="56.04" y2="33.99" gradientUnits="userSpaceOnUse"><stop offset="0" stop-color="#fff"/><stop offset="1" stop-opacity="0"/></linearGradient></defs><title>icons</title><g id="Слой_6" data-name="Слой 6"><polygon points="13.59 7.49 13.59 60.48 48.76 60.48 48.76 53.21 56.03 53.21 56.03 7.49 13.59 7.49" fill="#1d2f3c"/><polygon points="56.03 7.49 13.59 7.49 13.59 60.48 56.03 7.49" fill="#16242d"/><polygon points="48.76 60.48 56.03 53.21 48.76 53.21 48.76 60.48" fill="#16242d"/><circle cx="24.28" cy="19.19" r="4.46" fill="#ffcc48"/><polygon points="36.5 31.88 49.5 31.88 49.5 28.88 38.9 28.88 36.5 31.88" fill="#ffcc48"/><polygon points="49.5 38.91 49.5 35.91 33.27 35.91 30.87 38.91 49.5 38.91" fill="#ffcc48"/><polygon points="49.5 45.81 49.5 42.81 27.75 42.81 25.34 45.81 49.5 45.81" fill="#ffcc48"/><polygon points="19.82 28.88 19.82 31.88 36.5 31.88 38.9 28.88 19.82 28.88" fill="#ffb31a"/><polygon points="19.82 38.91 30.87 38.91 33.27 35.91 19.82 35.91 19.82 38.91" fill="#ffb31a"/><polygon points="19.82 45.81 25.34 45.81 27.75 42.81 19.82 42.81 19.82 45.81" fill="#ffb31a"/><polygon points="13.59 7.49 13.59 60.48 48.76 60.48 56.03 53.21 56.03 7.49 13.59 7.49" opacity="0.2" fill="url(#Безымянный_градиент_5)"/></g></svg>