<svg xmlns="http://www.w3.org/2000/svg" xmlns:xlink="http://www.w3.org/1999/xlink" viewBox="0 0 67 67"><defs><linearGradient id="Безымянный_градиент_5" x1="1.24" y1="34.19" x2="65.66" y2="34.19" gradientUnits="userSpaceOnUse"><stop offset="0" stop-color="#fff"/><stop offset="1" stop-opacity="0"/></linearGradient></defs><title>icons</title><g id="Слой_6" data-name="Слой 6"><path d="M30.84,9.83A40.7,40.7,0,0,0,1.24,22.55L16.88,41.39a16.74,16.74,0,0,1,27.92,0L60.43,22.55A40.69,40.69,0,0,0,30.84,9.83Z" fill="#16242d"/><path d="M16.88,41.39a16.74,16.74,0,0,1,27.92,0l7.91-9.54A28.81,28.81,0,0,0,9,31.85Zm14,3.61" fill="#1d2f3c"/><path d="M30.84,33.89a16.73,16.73,0,0,0-14,7.5l6.68,8a8.18,8.18,0,0,1,14.55,0l6.69-8A16.75,16.75,0,0,0,30.84,33.89Z" fill="#16242d"/><polygon points="65.66 17.69 31.96 45.66 37.69 51.39 65.66 17.69" fill="#ffcc48"/><path d="M37.75,47.2a7.78,7.78,0,1,0,.87,3.56A7.65,7.65,0,0,0,37.75,47.2Z" fill="#ffb31a"/><path d="M65.66,17.69l-5.51,4.58a40.77,40.77,0,0,0-58.91.28L9,31.85H9l7.92,9.54,6.37,7.67a7.39,7.39,0,0,0-.2,1.7,7.79,7.79,0,1,0,15.57,0c0-.15,0-.31,0-.46Z" opacity="0.2" fill="url(#Безымянный_градиент_5)"/></g></svg>