<svg width="65" height="50" viewBox="0 0 65 50" fill="none" xmlns="http://www.w3.org/2000/svg">
<path d="M29.8402 0.829857C24.3004 0.823992 18.8178 1.94912 13.728 4.13633C8.63831 6.32354 4.04867 9.52678 0.240234 13.5499L15.8802 32.3899C17.4064 30.0836 19.4802 28.1914 21.9163 26.8824C24.3523 25.5733 27.0747 24.8881 29.8402 24.8881C32.6057 24.8881 35.3282 25.5733 37.7642 26.8824C40.2003 28.1914 42.274 30.0836 43.8002 32.3899L59.4302 13.5499C55.6233 9.52754 51.0354 6.3247 45.9474 4.13749C40.8594 1.95029 35.3784 0.824766 29.8402 0.829857Z" fill="#16242D"/>
<path d="M15.88 32.3899C17.4062 30.0836 19.48 28.1914 21.916 26.8824C24.3521 25.5733 27.0745 24.8882 29.84 24.8882C32.6055 24.8882 35.3279 25.5733 37.764 26.8824C40.2 28.1914 42.2738 30.0836 43.8 32.3899L51.71 22.8499C49.0054 19.701 45.6522 17.1737 41.8801 15.4411C38.108 13.7085 34.006 12.8115 29.855 12.8115C25.704 12.8115 21.602 13.7085 17.8299 15.4411C14.0578 17.1737 10.7046 19.701 8 22.8499L15.88 32.3899Z" fill="#1D2F3C"/>
<path d="M29.8398 24.89C27.0676 24.8823 24.3368 25.5636 21.8931 26.8727C19.4494 28.1819 17.3693 30.0778 15.8398 32.39L22.5198 40.39C23.2073 39.0527 24.25 37.9309 25.5334 37.1476C26.8168 36.3643 28.2913 35.9498 29.7948 35.9498C31.2984 35.9498 32.7729 36.3643 34.0563 37.1476C35.3397 37.9309 36.3824 39.0527 37.0698 40.39L43.7598 32.39C42.2365 30.0903 40.1689 28.2024 37.7405 26.8941C35.3122 25.5857 32.5982 24.8972 29.8398 24.89Z" fill="#16242D"/>
<path d="M64.66 8.68994L30.96 36.6599L36.69 42.3899L64.66 8.68994Z" fill="#FFCC48"/>
<path d="M36.7505 38.1999C35.8758 36.5092 34.4116 35.1978 32.635 34.5141C30.8585 33.8303 28.8929 33.8216 27.1103 34.4897C25.3278 35.1577 23.852 36.4561 22.9624 38.139C22.0728 39.8219 21.8311 41.7726 22.283 43.6218C22.7349 45.471 23.8491 47.0903 25.4146 48.1733C26.9802 49.2562 28.8884 49.7276 30.7781 49.4982C32.6679 49.2688 34.4079 48.3545 35.6689 46.9284C36.9298 45.5024 37.6242 43.6635 37.6205 41.7599C37.6233 40.5203 37.3247 39.2985 36.7505 38.1999Z" fill="#FFB31A"/>
<path opacity="0.2" d="M64.6602 8.68997L59.1502 13.27C55.3254 9.311 50.7384 6.16762 45.6658 4.02934C40.5932 1.89106 35.1402 0.802177 29.6354 0.828341C24.1307 0.854506 18.6882 1.99518 13.6362 4.18158C8.58421 6.36798 4.0273 9.55482 0.240234 13.55L8.00023 22.85L15.9202 32.39L22.2902 40.06C22.1579 40.617 22.0908 41.1875 22.0902 41.76C22.0527 42.8058 22.2264 43.8484 22.6007 44.8257C22.9751 45.8029 23.5425 46.6947 24.2691 47.4478C24.9957 48.2009 25.8666 48.7999 26.8298 49.2091C27.793 49.6182 28.8287 49.829 29.8752 49.829C30.9217 49.829 31.9575 49.6182 32.9207 49.2091C33.8839 48.7999 34.7548 48.2009 35.4814 47.4478C36.208 46.6947 36.7754 45.8029 37.1498 44.8257C37.5241 43.8484 37.6977 42.8058 37.6602 41.76C37.6602 41.61 37.6602 41.45 37.6602 41.3L64.6602 8.68997Z" fill="url(#paint0_linear)"/>
<defs>
<linearGradient id="paint0_linear" x1="0.240234" y1="25.19" x2="64.6602" y2="25.19" gradientUnits="userSpaceOnUse">
<stop stop-color="white"/>
<stop offset="1" stop-opacity="0"/>
</linearGradient>
</defs>
</svg>
