<?xml version="1.0" standalone="no"?>
<!DOCTYPE svg PUBLIC "-//W3C//DTD SVG 1.1//EN" "http://www.w3.org/Graphics/SVG/1.1/DTD/svg11.dtd" >
<svg xmlns="http://www.w3.org/2000/svg" xmlns:xlink="http://www.w3.org/1999/xlink" version="1.1">
<metadata>
Created by FontForge 20170731 at Thu Oct 31 17:57:17 2019
 By Aleksey,,,
Copyright (c) 2019 by Lewis MacDonald. All rights reserved.
</metadata>
<defs>
<font id="SpoofTrial-BlackSlanted" horiz-adv-x="677" >
  <font-face 
    font-family="Spoof Trial Medium"
    font-weight="800"
    font-style="oblique"
    font-stretch="normal"
    units-per-em="1000"
    panose-1="0 0 9 0 0 0 0 0 0 0"
    ascent="800"
    descent="-200"
    x-height="500"
    cap-height="700"
    bbox="-23.1778 -270 1074 769"
    underline-thickness="154"
    underline-position="-408"
    slope="-7"
    unicode-range="U+0020-007A"
  />
<missing-glyph horiz-adv-x="764" 
d="M758 700l-86 -700h-641l86 700h641zM253 180h241l41 340h-240z" />
    <glyph glyph-name=".notdef" horiz-adv-x="764" 
d="M758 700l-86 -700h-641l86 700h641zM253 180h241l41 340h-240z" />
    <glyph glyph-name=".null" horiz-adv-x="0" 
 />
    <glyph glyph-name="nonmarkingreturn" horiz-adv-x="333" 
 />
    <glyph glyph-name="space" unicode=" " horiz-adv-x="324" 
 />
    <glyph glyph-name="exclam" unicode="!" horiz-adv-x="388" 
d="M102 276l40 424h208l-64 -424h-184zM172 -10q-55 0 -91.5 32t-36.5 80q0 50 39.5 84.5t97.5 34.5q36 0 65.5 -14.5t46 -40t16.5 -56.5q0 -51 -39.5 -85.5t-97.5 -34.5z" />
    <glyph glyph-name="comma" unicode="," horiz-adv-x="382" 
d="M172 221q59 0 96.5 -35.5t37.5 -110.5q0 -110 -79.5 -168t-202.5 -33l10 78q138 -27 169 66q-23 -18 -60 -18q-48 0 -77.5 28.5t-29.5 73.5q0 51 38 85t98 34z" />
    <glyph glyph-name="hyphen" unicode="-" horiz-adv-x="456" 
d="M51 366h382l-21 -172h-382z" />
    <glyph glyph-name="period" unicode="." horiz-adv-x="375" 
d="M166 -10q-56 0 -92 32t-36 80q0 50 39 84.5t97 34.5q55 0 91.5 -31.5t36.5 -79.5q0 -51 -39.5 -85.5t-96.5 -34.5z" />
    <glyph glyph-name="zero" unicode="0" horiz-adv-x="845" 
d="M447 710q162 0 268.5 -98.5t106.5 -249.5q0 -158 -114.5 -265t-285.5 -107q-161 0 -267.5 98.5t-106.5 249.5q0 103 52 188.5t143.5 134.5t203.5 49zM447 540q-91 0 -149 -57t-58 -145q0 -37 11 -68l273 256q-35 14 -77 14zM422 160q60 0 107.5 26t73.5 72t26 104
q0 37 -10 68l-274 -256q35 -14 77 -14z" />
    <glyph glyph-name="one" unicode="1" horiz-adv-x="467" 
d="M182 0l52 423h-176l19 151l83 5q48 3 73.5 25t34.5 68l4 28h188l-86 -700h-192z" />
    <glyph glyph-name="two" unicode="2" 
d="M633 494q0 -32 -9 -61t-21.5 -52t-37.5 -48t-45.5 -42t-58 -40.5t-62.5 -37.5t-71 -39h296l-21 -174h-590l15 129l208 144q-67 19 -104.5 71t-37.5 126q0 106 79 173t203 67q116 0 186.5 -59.5t70.5 -156.5zM371 548q-40 0 -65 -25t-25 -65q0 -36 20 -55t55 -19
q41 0 65 24.5t24 65.5q0 35 -19.5 54.5t-54.5 19.5z" />
    <glyph glyph-name="three" unicode="3" horiz-adv-x="670" 
d="M480 461q75 -14 116 -65t41 -132q0 -121 -87.5 -197.5t-228.5 -76.5q-147 0 -227.5 80.5t-59.5 199.5h207q-5 -51 19 -81t70 -30q44 0 72 27.5t28 70.5q0 39 -23 60.5t-65 21.5q-44 0 -78 -20l-49 132q60 29 201 88q-79 -5 -258 -5h-53l20 166h514l-21 -178z" />
    <glyph glyph-name="four" unicode="4" horiz-adv-x="752" 
d="M743 440l-19 -152h-176l-36 -288h-200l36 288h-299l51 412h196l-32 -260h106l26 210h196l-26 -210h177z" />
    <glyph glyph-name="five" unicode="5" horiz-adv-x="680" 
d="M416 488q103 0 163.5 -56t60.5 -159q0 -125 -84.5 -204t-227.5 -79q-139 0 -221 74t-67 184h207q-2 -40 22.5 -64.5t66.5 -24.5q43 0 68.5 27t25.5 69q0 24 -9.5 41t-27 25.5t-41.5 8.5q-49 0 -80 -34h-194l62 404h508l-20 -165h-352l-16 -93q64 46 156 46z" />
    <glyph glyph-name="six" unicode="6" horiz-adv-x="696" 
d="M430 501q100 0 163.5 -63.5t63.5 -169.5q0 -123 -86.5 -200.5t-229.5 -77.5q-133 0 -217.5 67.5t-84.5 176.5q0 23 3.5 45t11.5 43t16 38.5t21 36.5t22.5 32t24.5 29.5t22 24t21 21.5l16 16l176 180h233l-211 -202q16 3 35 3zM341 160q49 0 78 28.5t29 77.5
q0 43 -24.5 67.5t-68.5 24.5q-48 0 -77.5 -29t-29.5 -77q0 -29 11.5 -50t32 -31.5t49.5 -10.5z" />
    <glyph glyph-name="seven" unicode="7" horiz-adv-x="622" 
d="M636 700l-20 -158l-310 -542h-224l317 520h-325l22 180h540z" />
    <glyph glyph-name="eight" unicode="8" horiz-adv-x="666" 
d="M496 358q64 -15 99 -53.5t35 -96.5q0 -95 -90 -156.5t-234 -61.5q-128 0 -206.5 50.5t-78.5 136.5q0 67 48 116t128 66v1q-55 15 -85 51.5t-30 88.5q0 92 84.5 151t218.5 59q120 0 192 -48t72 -131q0 -62 -41.5 -108t-111.5 -64v-1zM371 566q-26 0 -46 -9t-31.5 -26
t-11.5 -39q0 -30 20 -46.5t54 -16.5q41 0 65 21t24 54q0 20 -9 34t-25.5 21t-39.5 7zM321 133q30 0 53 11t35 31t12 45q0 23 -10 39t-29 24t-45 8q-46 0 -73.5 -23.5t-27.5 -62.5q0 -16 6 -29.5t17 -23t26.5 -14.5t35.5 -5z" />
    <glyph glyph-name="nine" unicode="9" horiz-adv-x="697" 
d="M380 710q133 0 217.5 -67.5t84.5 -176.5q0 -23 -3.5 -45t-11.5 -43t-16 -38.5t-21.5 -36.5t-22.5 -32t-24 -29.5t-22 -24t-21 -21.5t-17 -16l-175 -180h-233l210 202q-15 -3 -34 -3q-100 0 -163.5 63.5t-63.5 169.5q0 123 86.5 200.5t229.5 77.5zM366 342q48 0 77 29
t29 77q0 44 -24.5 68t-68.5 24q-48 0 -77 -28.5t-29 -77.5q0 -43 24.5 -67.5t68.5 -24.5z" />
    <glyph glyph-name="question" unicode="?" horiz-adv-x="533" 
d="M275 260q-92 0 -144.5 37t-52.5 103q0 55 37 87.5t107 40.5l114 12q33 4 33 26q0 26 -53 26q-56 0 -70 -39h-166q9 73 72 115t164 42q96 0 153.5 -38.5t57.5 -105.5q0 -55 -39.5 -88.5t-113.5 -40.5l-106 -11q-32 -3 -32 -26q0 -26 43 -26q47 0 63 35h164
q-11 -68 -73 -108.5t-158 -40.5zM249 -9q-55 0 -91.5 32t-36.5 79q0 51 39.5 85.5t97.5 34.5q36 0 65 -14.5t46 -40t17 -57.5q0 -50 -39.5 -84.5t-97.5 -34.5z" />
    <glyph glyph-name="A" unicode="A" horiz-adv-x="866" 
d="M619 0l-52 200h-269l-102 -200h-218l372 700h278l200 -700h-209zM472 564q-25 -52 -71 -145l-31 -63h163l-16 64q-4 19 -16.5 69.5t-18.5 74.5h-10z" />
    <glyph glyph-name="B" unicode="B" horiz-adv-x="679" 
d="M532 352q47 -16 73.5 -53.5t26.5 -90.5q0 -93 -68.5 -150.5t-179.5 -57.5h-356l86 700h347q94 0 148 -43t54 -117q0 -66 -36 -116t-95 -71v-1zM395 544h-107l-15 -123h107q36 0 57 19.5t21 52.5q0 16 -7.5 27.5t-21.5 17.5t-34 6zM349 155q20 0 35.5 5.5t26.5 15t17 24
t6 31.5q0 26 -17.5 40.5t-50.5 14.5h-109l-16 -131h108z" />
    <glyph glyph-name="C" unicode="C" horiz-adv-x="852" 
d="M434 -10q-164 0 -272.5 98t-108.5 250q0 158 115.5 265t289.5 107q131 0 224.5 -63.5t120.5 -170.5h-225q-40 56 -122 56q-83 0 -136.5 -54t-53.5 -138q0 -78 45.5 -125t120.5 -47q84 0 134.5 59t46.5 151h210q8 -111 -41.5 -200t-141 -138.5t-206.5 -49.5z" />
    <glyph glyph-name="D" unicode="D" horiz-adv-x="756" 
d="M377 700q158 0 254.5 -89.5t96.5 -238.5q0 -79 -28.5 -147.5t-81.5 -118t-130.5 -78t-171.5 -28.5h-285l86 700h260zM322 176q88 0 141.5 55.5t53.5 138.5q0 71 -41 112.5t-112 41.5h-69l-42 -348h69z" />
    <glyph glyph-name="E" unicode="E" horiz-adv-x="574" 
d="M556 539h-268l-13 -103h262l-19 -160h-263l-14 -115h269l-20 -161h-462l86 700h462z" />
    <glyph glyph-name="F" unicode="F" horiz-adv-x="561" 
d="M548 523h-255l-13 -105h244l-21 -176h-245l-30 -242h-197l86 700h453z" />
    <glyph glyph-name="G" unicode="G" horiz-adv-x="849" 
d="M824 426q6 -129 -43 -228.5t-140.5 -153.5t-209.5 -54q-164 0 -271 98.5t-107 249.5q0 103 52 188.5t145 134.5t208 49q129 0 222 -61.5t120 -167.5h-221q-44 55 -126 55q-85 0 -139 -56.5t-54 -142.5q0 -80 47 -126.5t130 -46.5q63 0 107 28.5t65 79.5h-182l19 154h378z
" />
    <glyph glyph-name="H" unicode="H" horiz-adv-x="764" 
d="M558 700h200l-86 -700h-200l35 290h-240l-36 -290h-200l86 700h200l-28 -230h240z" />
    <glyph glyph-name="I" unicode="I" horiz-adv-x="323" 
d="M31 0l86 700h200l-86 -700h-200z" />
    <glyph glyph-name="J" unicode="J" horiz-adv-x="628" 
d="M287 -10q-116 0 -183.5 55.5t-67.5 159.5q0 55 24 155h199q-6 -19 -13.5 -60.5t-7.5 -61.5q0 -66 60 -66q20 0 35.5 8t25 22.5t11.5 34.5l58 463h200l-57 -462q-10 -78 -46 -134t-96.5 -85t-141.5 -29z" />
    <glyph glyph-name="K" unicode="K" horiz-adv-x="733" 
d="M755 700l-308 -345l227 -355h-236l-170 293l-1 -1l-36 -292h-200l86 700h200l-36 -294l1 -1l230 295h243z" />
    <glyph glyph-name="L" unicode="L" horiz-adv-x="547" 
d="M253 180h255l-22 -180h-455l86 700h200z" />
    <glyph glyph-name="M" unicode="M" horiz-adv-x="950" 
d="M31 0l86 700h299l56 -440h4l164 440h304l-86 -700h-191l62 504h-7l-183 -444h-174l-75 444h-6l-62 -504h-191z" />
    <glyph glyph-name="N" unicode="N" horiz-adv-x="785" 
d="M31 0l86 700h183l244 -418l2 1l51 417h181l-86 -700h-182l-244 418l-2 -2l-52 -416h-181z" />
    <glyph glyph-name="O" unicode="O" horiz-adv-x="844" 
d="M424 -10q-163 0 -269.5 98.5t-106.5 249.5q0 104 51.5 189t143 134t203.5 49q162 0 268.5 -98.5t106.5 -249.5q0 -158 -114 -265t-283 -107zM424 168q81 0 133.5 54.5t52.5 139.5q0 76 -45 123t-119 47q-82 0 -134.5 -54.5t-52.5 -139.5q0 -51 20.5 -89.5t58 -59.5
t86.5 -21z" />
    <glyph glyph-name="P" unicode="P" horiz-adv-x="691" 
d="M417 700q118 0 189 -64t71 -170q0 -119 -88 -194.5t-229 -75.5h-105l-23 -196h-200l85 700h300zM351 364q54 0 83.5 24t29.5 66q0 24 -11 41.5t-31.5 26t-50.5 8.5h-75l-20 -166h75z" />
    <glyph glyph-name="Q" unicode="Q" horiz-adv-x="875" 
d="M858 30l-126 -120l-117 123q-87 -43 -191 -43q-106 0 -192 45.5t-135 125.5t-49 178q0 104 51.5 189.5t143 133.5t202.5 48q80 0 150 -26.5t119.5 -73t78 -111t28.5 -138.5q0 -123 -71 -218zM446 539q-43 0 -79 -13l243 -257q19 42 19 92q0 53 -23 93.5t-64.5 62.5
t-95.5 22zM240 339q0 -79 51.5 -129t132.5 -50q43 0 79 14l-243 257q-20 -41 -20 -92z" />
    <glyph glyph-name="R" unicode="R" horiz-adv-x="753" 
d="M468 0l-189 258h-21l-32 -258h-195l86 700h342q105 0 165.5 -51.5t60.5 -145.5q0 -56 -22 -104t-62.5 -81.5t-93.5 -47.5l219 -270h-258zM292 542l-19 -159h104q49 0 77 24t28 63q0 35 -22.5 53.5t-62.5 18.5h-105z" />
    <glyph glyph-name="S" unicode="S" horiz-adv-x="747" 
d="M379 -10q-166 0 -260.5 80.5t-94.5 201.5h228q11 -118 139 -118q54 0 84.5 20.5t30.5 55.5q0 14 -5 23.5t-15 14t-16.5 6t-17.5 2.5l-154 19q-187 23 -187 185q0 106 77 168t210 62q131 0 209 -58.5t77 -153.5l-214 -2q-5 31 -27.5 48.5t-55.5 17.5q-32 0 -52.5 -15.5
t-20.5 -39.5q0 -34 56 -41l139 -17q104 -12 156.5 -62.5t52.5 -134.5q0 -119 -92.5 -190.5t-246.5 -71.5z" />
    <glyph glyph-name="T" unicode="T" horiz-adv-x="635" 
d="M651 700l-22 -180h-179l-64 -520h-200l64 520h-178l22 180h557z" />
    <glyph glyph-name="U" unicode="U" horiz-adv-x="741" 
d="M358 -10q-150 0 -233 82.5t-67 219.5l50 408h204l-50 -408q-7 -55 22 -87.5t82 -32.5t87 32.5t41 87.5l50 408h200l-52 -418q-17 -137 -104 -214.5t-230 -77.5z" />
    <glyph glyph-name="V" unicode="V" horiz-adv-x="781" 
d="M586 700h221l-310 -700h-274l-137 700h215l77 -516h4z" />
    <glyph glyph-name="W" unicode="W" horiz-adv-x="1054" 
d="M171 0l-81 700h208l18 -448h6l159 432h197l54 -434h6l128 450h208l-254 -700h-202l-65 442h-6l-166 -442h-210z" />
    <glyph glyph-name="X" unicode="X" horiz-adv-x="802" 
d="M824 700l-295 -333l234 -367h-238l-127 215l-179 -215h-241l326 370l-212 330h238l104 -178l148 178h242z" />
    <glyph glyph-name="Y" unicode="Y" horiz-adv-x="740" 
d="M240 0l28 228l-202 472h220l98 -278h4l164 278h232l-316 -472l-28 -228h-200z" />
    <glyph glyph-name="Z" unicode="Z" horiz-adv-x="672" 
d="M661 700l-15 -128l-359 -400h334l-21 -172h-588l16 128l357 400h-288l21 172h543z" />
    <glyph glyph-name="a" unicode="a" 
d="M462 500h193l-61 -500h-193l10 87q-54 -97 -167 -97q-95 0 -154 66.5t-59 172.5q0 119 73 200t188 81q125 0 158 -104l1 1zM324 149q49 0 81 31.5t32 78.5q0 43 -25.5 67t-68.5 24q-49 0 -81 -31.5t-32 -78.5q0 -42 25.5 -66.5t68.5 -24.5z" />
    <glyph glyph-name="b" unicode="b" horiz-adv-x="687" 
d="M442 510q96 0 155 -66.5t59 -172.5q0 -119 -73 -200t-189 -81q-125 0 -158 104v-1l-11 -93h-192l88 720h192l-38 -307q55 97 167 97zM343 150q50 0 81.5 31.5t31.5 78.5q0 42 -25.5 66t-67.5 24q-50 0 -82 -31t-32 -79q0 -27 12 -48t33 -31.5t49 -10.5z" />
    <glyph glyph-name="c" unicode="c" horiz-adv-x="636" 
d="M306 -10q-124 0 -199.5 68.5t-75.5 181.5q0 120 85.5 195t219.5 75q110 0 180 -52.5t82 -139.5h-203q-24 34 -69 34t-71.5 -30.5t-26.5 -79.5q0 -22 5.5 -40t17 -30t27 -18t34.5 -6q47 0 74.5 32.5t22.5 81.5h199q0 -120 -85.5 -196t-216.5 -76z" />
    <glyph glyph-name="d" unicode="d" horiz-adv-x="687" 
d="M489 720h193l-89 -720h-192l10 87q-55 -97 -167 -97q-95 0 -154.5 66.5t-59.5 172.5q0 119 73.5 200t188.5 81q125 0 158 -104v1zM323 149q42 0 72 23.5t39 60.5l3 23v3q0 43 -25.5 67t-68.5 24q-50 0 -81.5 -31.5t-31.5 -78.5q0 -42 25.5 -66.5t67.5 -24.5z" />
    <glyph glyph-name="e" unicode="e" horiz-adv-x="631" 
d="M403 206h194q-15 -97 -97 -156.5t-195 -59.5q-81 0 -143 31.5t-96 88.5t-34 131q0 118 82 193.5t217 75.5q131 0 200.5 -73t54.5 -197h-371q1 -31 12.5 -52t31.5 -31.5t49 -10.5q36 0 62 16t33 44zM328 384q-65 0 -96 -58h172q-14 58 -76 58z" />
    <glyph glyph-name="f" unicode="f" horiz-adv-x="477" 
d="M419 570q-22 0 -38 -5t-24.5 -11t-13.5 -16.5t-6.5 -16.5t-2.5 -17l-1 -4h139l-19 -154h-138l-43 -346h-189l42 346h-87l19 154h87l2 11q12 104 74 161.5t171 57.5q63 0 107 -16l-18 -151q-29 7 -61 7z" />
    <glyph glyph-name="g" unicode="g" horiz-adv-x="696" 
d="M481 500h193l-62 -500l-2 -17q-14 -121 -101 -187t-231 -66q-93 0 -163.5 30.5t-107 88.5t-26.5 133h185q-6 -47 26 -73.5t91 -26.5t96 27t43 74l3 17l13 108h-1q-54 -108 -174 -108q-96 0 -154.5 65.5t-58.5 168.5q0 117 73 196.5t188 79.5q123 0 157 -98l3 1zM342 160
q49 0 81.5 29t32.5 75q0 26 -11.5 46t-33 30.5t-49.5 10.5q-49 0 -81 -30t-32 -75q0 -40 25.5 -63t67.5 -23z" />
    <glyph glyph-name="h" unicode="h" horiz-adv-x="634" 
d="M448 510q81 0 122.5 -52.5t30.5 -141.5l-38 -316h-193l34 277q4 34 -11.5 53.5t-46.5 19.5q-36 0 -60 -23.5t-29 -62.5l-32 -264h-192l88 720h192l-38 -314q27 50 71.5 77t101.5 27z" />
    <glyph glyph-name="i" unicode="i" horiz-adv-x="324" 
d="M208 538q-55 0 -91.5 32t-36.5 80q0 50 39.5 84.5t97.5 34.5q55 0 91.5 -31.5t36.5 -79.5q0 -51 -39.5 -85.5t-97.5 -34.5zM36 0l61 500h192l-61 -500h-192z" />
    <glyph glyph-name="j" unicode="j" horiz-adv-x="324" 
d="M208 538q-55 0 -91.5 32t-36.5 80q0 50 39.5 84.5t96.5 34.5q37 0 66 -14.5t45.5 -40t16.5 -56.5q0 -51 -39 -85.5t-97 -34.5zM2 -264l94 764h192l-93 -764h-193z" />
    <glyph glyph-name="k" unicode="k" horiz-adv-x="644" 
d="M32 0l89 720h192l-54 -438h3l168 218h232l-220 -245l164 -255h-224l-128 220h-2l-28 -220h-192z" />
    <glyph glyph-name="l" unicode="l" horiz-adv-x="319" 
d="M32 0l89 720h192l-89 -720h-192z" />
    <glyph glyph-name="m" unicode="m" horiz-adv-x="911" 
d="M731 510q79 0 118.5 -53t28.5 -143l-38 -314h-192l34 282q8 68 -48 68q-64 0 -74 -81l-33 -269h-192l35 282q8 68 -49 68q-63 0 -73 -80l-33 -270h-192l61 500h192l-12 -95h1q25 50 66 77.5t94 27.5q52 0 87 -26t48 -73q29 47 73 73t98 26z" />
    <glyph glyph-name="n" unicode="n" horiz-adv-x="625" 
d="M438 510q81 0 122.5 -52.5t31.5 -141.5l-39 -316h-193l34 277q4 34 -11.5 53.5t-46.5 19.5q-24 0 -43 -10.5t-30.5 -29.5t-15.5 -45v-1l-32 -264h-192l61 500h192l-11 -94q18 33 43.5 56t58.5 35.5t71 12.5z" />
    <glyph glyph-name="o" unicode="o" horiz-adv-x="648" 
d="M316 -10q-122 0 -203 72.5t-81 180.5q0 114 85.5 190.5t213.5 76.5q122 0 203.5 -72.5t81.5 -180.5q0 -114 -85.5 -190.5t-214.5 -76.5zM318 148q31 0 55 13.5t37.5 38.5t13.5 57q0 21 -7 38.5t-19 30t-29.5 19.5t-38.5 7q-47 0 -76.5 -30t-29.5 -79q0 -42 26 -68.5
t68 -26.5z" />
    <glyph glyph-name="p" unicode="p" 
d="M433 510q95 0 154.5 -66.5t59.5 -172.5q0 -119 -73.5 -200t-188.5 -81q-125 0 -158 104l-1 -1l-43 -353h-192l93 760h192l-10 -87q55 97 167 97zM334 150q49 0 81 31.5t32 78.5q0 42 -25.5 66t-67.5 24q-50 0 -82 -31t-32 -79q0 -20 7 -37.5t19 -29t29.5 -17.5t38.5 -6z
" />
    <glyph glyph-name="q" unicode="q" 
d="M462 500h192l-93 -760h-192l42 347q-55 -97 -167 -97q-95 0 -154.5 66.5t-59.5 172.5q0 119 73.5 200t188.5 81q125 0 158 -104zM323 149q28 0 51 10.5t38.5 29t21.5 43.5l3 26v1q0 43 -25.5 67t-68.5 24q-50 0 -81.5 -31.5t-31.5 -78.5q0 -42 25.5 -66.5t67.5 -24.5z
" />
    <glyph glyph-name="r" unicode="r" horiz-adv-x="465" 
d="M428 510q22 0 38 -2l-24 -191q-14 1 -45 1q-71 0 -112.5 -41.5t-51.5 -122.5l-18 -154h-192l61 500h184l-21 -170l1 -1q28 94 72 137.5t108 43.5z" />
    <glyph glyph-name="s" unicode="s" horiz-adv-x="590" 
d="M287 -10q-120 0 -197.5 52t-81.5 138h196q4 -26 28 -40t64 -14q23 0 39.5 5t25.5 14.5t9 22.5q0 25 -30 28l-119 12q-3 1 -9 1q-23 3 -37 5t-38.5 10t-38.5 20t-25 35t-11 55q0 80 65 128t178 48q106 0 169.5 -43.5t67.5 -120.5l-194 1q-11 33 -55 33q-22 0 -34.5 -8.5
t-12.5 -24.5q0 -22 32 -25l116 -12q17 -2 25.5 -2.5t28.5 -4.5t32.5 -9t29.5 -15t26.5 -22.5t16.5 -32t7 -42.5q0 -85 -75 -138.5t-198 -53.5z" />
    <glyph glyph-name="t" unicode="t" horiz-adv-x="463" 
d="M82 0l43 348h-88l17 134l34 3q38 3 59 25.5t29 67.5l12 72h163l-18 -150h135l-19 -152h-135l-43 -348h-189z" />
    <glyph glyph-name="u" unicode="u" horiz-adv-x="625" 
d="M410 500h192l-62 -500h-192l12 94q-28 -50 -72 -77t-101 -27q-82 0 -123.5 52.5t-30.5 141.5l39 316h193l-34 -277q-4 -34 11 -53.5t47 -19.5q35 0 59 23t29 62l1 1z" />
    <glyph glyph-name="v" unicode="v" horiz-adv-x="657" 
d="M198 0l-144 500h201l58 -322h4l137 322h210l-266 -500h-200z" />
    <glyph glyph-name="w" unicode="w" horiz-adv-x="951" 
d="M168 0l-114 500h193l41 -303h4l122 303h172l49 -305h4l117 305h202l-237 -500h-185l-52 304h-4l-126 -304h-186z" />
    <glyph glyph-name="x" unicode="x" horiz-adv-x="678" 
d="M684 500l-241 -246l186 -254h-230l-74 123l-106 -123h-233l252 257l-178 243h223l71 -115l96 115h234z" />
    <glyph glyph-name="y" unicode="y" horiz-adv-x="673" 
d="M458 500h192l-62 -500l-3 -22q-13 -113 -106 -180.5t-226 -67.5q-136 0 -212 69.5t-62 177.5h185q-6 -44 23 -69.5t83 -25.5t88.5 26t39.5 70l3 22l13 107h-1q-53 -102 -174 -102q-86 0 -127.5 52.5t-30.5 141.5l37 301h195l-32 -262q-5 -34 10.5 -53.5t47.5 -19.5
q36 0 60 24t29 63z" />
    <glyph glyph-name="z" unicode="z" horiz-adv-x="536" 
d="M514 500l-14 -118l-240 -239h229l-17 -143h-468l14 118l240 239h-194l18 143h432z" />
  </font>
</defs>
</svg>
