<?xml version="1.0" standalone="no"?>
<!DOCTYPE svg PUBLIC "-//W3C//DTD SVG 1.1//EN" "http://www.w3.org/Graphics/SVG/1.1/DTD/svg11.dtd" >
<svg xmlns="http://www.w3.org/2000/svg" xmlns:xlink="http://www.w3.org/1999/xlink" version="1.1">
<metadata>
Created by FontForge 20170731 at Thu Oct 31 17:57:16 2019
 By Aleksey,,,
Copyright (c) 2019 by Lewis MacDonald. All rights reserved.
</metadata>
<defs>
<font id="SpoofTrial-MediumSlanted" horiz-adv-x="668" >
  <font-face 
    font-family="Spoof Trial Light"
    font-weight="500"
    font-style="oblique"
    font-stretch="normal"
    units-per-em="1000"
    panose-1="0 0 6 0 0 0 0 0 0 0"
    ascent="800"
    descent="-200"
    x-height="500"
    cap-height="700"
    bbox="-12 -270 957 751"
    underline-thickness="104"
    underline-position="-308"
    slope="-7"
    unicode-range="U+0020-007A"
  />
<missing-glyph horiz-adv-x="692" 
d="M673 700l-86 -700h-544l86 700h544zM188 119h284l57 462h-284z" />
    <glyph glyph-name=".notdef" horiz-adv-x="692" 
d="M673 700l-86 -700h-544l86 700h544zM188 119h284l57 462h-284z" />
    <glyph glyph-name=".null" horiz-adv-x="0" 
 />
    <glyph glyph-name="nonmarkingreturn" horiz-adv-x="333" 
 />
    <glyph glyph-name="space" unicode=" " horiz-adv-x="278" 
 />
    <glyph glyph-name="exclam" unicode="!" horiz-adv-x="340" 
d="M108 244l48 456h134l-64 -456h-118zM146 -10q-26 0 -47.5 11t-33.5 30t-12 42q0 38 28 63t70 25q40 0 66.5 -23.5t26.5 -59.5q0 -38 -28 -63t-70 -25z" />
    <glyph glyph-name="comma" unicode="," horiz-adv-x="345" 
d="M149.5 161q44.5 0 72.5 -28t28 -85q0 -86 -60 -130t-155 -25l8 59q113 -20 133 60q-18 -15 -47 -15q-35 0 -57 21t-22 55q0 38 27.5 63t72 25z" />
    <glyph glyph-name="hyphen" unicode="-" horiz-adv-x="459" 
d="M55 338l371 -1l-15 -114h-370z" />
    <glyph glyph-name="period" unicode="." horiz-adv-x="331" 
d="M142 -10q-41 0 -67.5 23.5t-26.5 59.5q0 38 28.5 63t69.5 25q40 0 66.5 -23.5t26.5 -59.5q0 -38 -28 -63t-69 -25z" />
    <glyph glyph-name="zero" unicode="0" horiz-adv-x="851" 
d="M461 710q101 0 181.5 -42.5t126.5 -119t46 -174.5q0 -105 -52 -193t-144.5 -139.5t-203.5 -51.5q-154 0 -254 94t-100 242q0 79 30.5 150t83.5 122.5t127.5 81.5t158.5 30zM461 596q-117 0 -195.5 -78t-78.5 -192q0 -60 25 -109l378 345q-55 34 -129 34zM415 104
q116 0 194.5 78t78.5 192q0 60 -24 108l-378 -344q55 -34 129 -34z" />
    <glyph glyph-name="one" unicode="1" horiz-adv-x="415" 
d="M182 0l61 490h-166l13 103l84 3q42 2 64 21.5t30 61.5l5 21h121l-86 -700h-126z" />
    <glyph glyph-name="two" unicode="2" horiz-adv-x="660" 
d="M366 221l-145 -105h370l-14 -116h-554l11 90l247 179q-52 7 -92 34.5t-62 71.5t-22 99q0 103 74.5 169.5t189.5 66.5q105 0 171.5 -58t66.5 -149q0 -36 -12.5 -69t-32 -59t-52.5 -54.5t-65 -49.5t-79 -50zM229 467q0 -51 31.5 -82.5t82.5 -31.5q29 0 55 10.5t44.5 28.5
t29.5 43.5t11 54.5q0 49 -32 79.5t-84 30.5q-60 0 -99 -37.5t-39 -95.5z" />
    <glyph glyph-name="three" unicode="3" 
d="M407 466q96 -2 153 -58.5t57 -151.5q0 -118 -82 -192t-214 -74q-137 0 -213 78t-58 197h135q-9 -72 30 -116.5t110 -44.5t114.5 41t43.5 107q0 58 -36.5 91.5t-96.5 33.5q-52 0 -94 -21l-37 89q77 49 245 147q-69 -3 -219 -3h-125l14 111h487l-14 -116z" />
    <glyph glyph-name="four" unicode="4" horiz-adv-x="713" 
d="M694 425l-13 -104h-196l-40 -321h-130l40 321h-289l47 379h128l-34 -275h162l28 225h128l-28 -225h197z" />
    <glyph glyph-name="five" unicode="5" horiz-adv-x="672" 
d="M392 484q102 0 164 -58t62 -161q0 -121 -81.5 -198t-215.5 -77q-132 0 -208 74.5t-61 186.5h134q-6 -66 32 -107t107 -41q71 0 114.5 42.5t43.5 108.5q0 57 -34.5 90t-93.5 33q-75 0 -127 -53h-125l58 376h460l-13 -111h-356l-26 -158q69 53 166 53z" />
    <glyph glyph-name="six" unicode="6" horiz-adv-x="672" 
d="M391 491q99 0 163.5 -64t64.5 -165q0 -118 -83 -195t-214 -77q-77 0 -139 29.5t-97 83.5t-35 121q0 42 12.5 81.5t37 74.5t40.5 53.5t42 45.5l8 8l205 213h155l-220 -218q26 9 60 9zM322 104q71 0 116.5 44t45.5 112q0 39 -17 69t-48 46.5t-71 16.5q-71 0 -116.5 -44.5
t-45.5 -113.5q0 -58 38 -94t98 -36z" />
    <glyph glyph-name="seven" unicode="7" horiz-adv-x="587" 
d="M590 700l-14 -107l-317 -593h-146l322 581h-343l15 119h483z" />
    <glyph glyph-name="eight" unicode="8" horiz-adv-x="652" 
d="M468 370q42 -11 71.5 -33t45 -53.5t15.5 -71.5q0 -98 -82.5 -160t-215.5 -62q-77 0 -136.5 23t-93 66t-33.5 100q0 69 47.5 120t126.5 71l1 2q-50 16 -76.5 51t-26.5 86q0 89 73 145t191 56q104 0 169 -46.5t65 -123.5q0 -59 -38 -104t-103 -64v-2zM368 604
q-56 0 -90 -27.5t-34 -71.5q0 -39 28 -60.5t76 -21.5q55 0 90 28t35 72q0 24 -13 42.5t-37 28.5t-55 10zM310 96q45 0 79.5 15t53 42.5t18.5 63.5q0 48 -34 74.5t-92 26.5q-68 0 -111.5 -34.5t-43.5 -87.5q0 -45 35.5 -72.5t94.5 -27.5z" />
    <glyph glyph-name="nine" unicode="9" horiz-adv-x="673" 
d="M375 710q118 0 194.5 -66t76.5 -168q0 -42 -12.5 -81.5t-37 -74.5t-40.5 -53.5t-42 -45.5l-8 -8l-205 -213h-155l221 218q-27 -9 -61 -9q-99 0 -163.5 64t-64.5 165q0 118 83 195t214 77zM349 308q71 0 116.5 44.5t45.5 112.5q0 29 -10 53.5t-28 41.5t-43.5 26.5
t-54.5 9.5q-71 0 -116.5 -44t-45.5 -112q0 -39 17 -69t48 -46.5t71 -16.5z" />
    <glyph glyph-name="question" unicode="?" horiz-adv-x="548" 
d="M277 227q-84 0 -135 37t-51 104q0 55 37 88t107 41l112 14q32 5 49.5 19.5t17.5 37.5q0 26 -24 41.5t-65 15.5q-94 0 -114 -80h-112q8 51 37 88t77.5 57t111.5 20q90 0 143.5 -38.5t53.5 -104.5q0 -56 -38.5 -90.5t-110.5 -42.5l-110 -14q-65 -8 -65 -54q0 -27 23 -41
t58 -14q26 0 47.5 8t36.5 24t22 37h111q-13 -70 -72 -111.5t-147 -41.5zM253 -10q-41 0 -67.5 24t-26.5 60q0 37 28.5 62.5t69.5 25.5q27 0 48 -11t33 -30t12 -43q0 -37 -28 -62.5t-69 -25.5z" />
    <glyph glyph-name="A" unicode="A" horiz-adv-x="790" 
d="M605 0l-67 244h-280l-128 -244h-142l376 700h173l204 -700h-136zM384 492l-74 -142h202l-39 143q-27 103 -28 108h-7q-19 -39 -54 -109z" />
    <glyph glyph-name="B" unicode="B" horiz-adv-x="621" 
d="M473 360q47 -18 72.5 -55.5t25.5 -89.5q0 -96 -66 -155.5t-172 -59.5h-291l86 700h286q85 0 135.5 -43t50.5 -114q0 -65 -34 -113t-93 -70zM377 594h-136l-22 -185h134q51 0 82.5 29.5t31.5 78.5q0 36 -24.5 56.5t-65.5 20.5zM314 106q58 0 92.5 33t34.5 88
q0 26 -12 45.5t-34.5 30t-53.5 10.5h-134l-26 -207h133z" />
    <glyph glyph-name="C" unicode="C" horiz-adv-x="856" 
d="M424 -10q-157 0 -258.5 94t-101.5 244q0 106 52 193.5t145.5 138t208.5 50.5q126 0 214.5 -60t111.5 -162h-144q-23 50 -71.5 77t-112.5 27q-115 0 -190.5 -75.5t-75.5 -187.5q0 -100 61 -160t159 -60q111 0 184.5 74t75.5 186h135q2 -108 -50 -195t-142.5 -135.5
t-200.5 -48.5z" />
    <glyph glyph-name="D" unicode="D" horiz-adv-x="705" 
d="M333 700q100 0 175.5 -38.5t116.5 -110.5t41 -166q0 -109 -50 -196.5t-142.5 -138t-210.5 -50.5h-220l86 700h204zM266 117q115 0 189 76t74 191q0 90 -55 144.5t-148 54.5h-81l-57 -466h78z" />
    <glyph glyph-name="E" unicode="E" horiz-adv-x="525" 
d="M508 591h-267l-21 -173h262l-13 -109h-263l-24 -200h267l-14 -109h-393l86 700h393z" />
    <glyph glyph-name="F" unicode="F" horiz-adv-x="516" 
d="M504 582h-260l-22 -175h251l-14 -118h-251l-36 -289h-129l86 700h389z" />
    <glyph glyph-name="G" unicode="G" horiz-adv-x="851" 
d="M465 414h353q-1 -122 -52.5 -219t-142.5 -151t-206 -54q-153 0 -253 94t-100 243q0 106 52 193.5t145.5 138.5t208.5 51q82 0 149.5 -26t113 -75t61.5 -115h-143q-16 32 -43.5 54.5t-63.5 34t-78 11.5q-116 0 -191.5 -77t-75.5 -191q0 -100 61 -160t161 -60q95 0 163 55
t91 148h-223z" />
    <glyph glyph-name="H" unicode="H" horiz-adv-x="692" 
d="M543 700h130l-86 -700h-130l39 315h-284l-39 -315h-130l86 700h130l-33 -267h285z" />
    <glyph glyph-name="I" unicode="I" horiz-adv-x="278" 
d="M43 0l86 700h130l-86 -700h-130z" />
    <glyph glyph-name="J" unicode="J" horiz-adv-x="573" 
d="M256 -10q-97 0 -154 51t-57 143q0 50 21 146h131q-20 -84 -20 -125q0 -46 22 -70t63 -24q45 0 73.5 28t34.5 79l59 482h130l-59 -483q-13 -108 -76.5 -167.5t-167.5 -59.5z" />
    <glyph glyph-name="K" unicode="K" horiz-adv-x="642" 
d="M654 700l-322 -347l241 -353h-156l-205 310h-1l-38 -310h-130l86 700h130l-38 -312h1l272 312h160z" />
    <glyph glyph-name="L" unicode="L" horiz-adv-x="491" 
d="M188 119h255l-15 -119h-385l86 700h130z" />
    <glyph glyph-name="M" unicode="M" horiz-adv-x="853" 
d="M43 0l86 700h197l92 -497h4l212 497h201l-86 -700h-125l69 563l-5 1l-226 -504h-115l-104 504l-5 -1l-69 -563h-126z" />
    <glyph glyph-name="N" unicode="N" horiz-adv-x="709" 
d="M43 0l86 700h130l245 -517l3 1l63 516h120l-86 -700h-129l-245 516h-3l-64 -516h-120z" />
    <glyph glyph-name="O" unicode="O" horiz-adv-x="850" 
d="M415 -10q-154 0 -254 94t-100 242q0 106 52 194t144 139t203 51q154 0 254 -94t100 -242q0 -105 -51.5 -193t-143.5 -139.5t-204 -51.5zM416 109q111 0 186.5 76.5t75.5 188.5q0 98 -60.5 157.5t-157.5 59.5q-112 0 -187.5 -76.5t-75.5 -188.5q0 -98 61 -157.5t158 -59.5
z" />
    <glyph glyph-name="P" unicode="P" horiz-adv-x="627" 
d="M385 700q101 0 161 -55t60 -147q0 -107 -75 -174.5t-195 -67.5h-131l-31 -256h-130l85 700h256zM330 369q63 0 100.5 33.5t37.5 89.5q0 44 -28 69t-79 25h-116l-26 -217h111z" />
    <glyph glyph-name="Q" unicode="Q" horiz-adv-x="867" 
d="M827 10l-85 -79l-109 119q-97 -60 -217 -60q-154 0 -254.5 94.5t-100.5 242.5q0 106 52 193.5t143.5 138.5t203.5 51q153 0 253.5 -94.5t100.5 -242.5q0 -143 -92 -249zM460 596q-75 0 -137 -34l316 -347q49 70 49 159q0 99 -63.5 160.5t-164.5 61.5zM188 327
q0 -100 63.5 -161.5t164.5 -61.5q75 0 137 35l-316 347q-49 -70 -49 -159z" />
    <glyph glyph-name="R" unicode="R" horiz-adv-x="680" 
d="M479 0l-219 298h-53l-36 -298h-127l85 700h292q92 0 145.5 -47t53.5 -132q0 -89 -57.5 -150.5t-148.5 -70.5l233 -300h-168zM243 593l-25 -206h142q57 0 92.5 32.5t35.5 83.5q0 43 -27 66.5t-73 23.5h-145z" />
    <glyph glyph-name="S" unicode="S" horiz-adv-x="704" 
d="M352 -10q-155 0 -238.5 83t-69.5 208h146q-10 -85 36 -132.5t133 -47.5q75 0 119.5 34.5t44.5 92.5q0 20 -7 36t-15.5 24.5t-24 14.5t-24 8t-23.5 4l-127 18q-36 5 -65.5 16t-55 30t-39.5 50t-14 71q0 94 70 152t188 58q74 0 130 -23.5t86.5 -67t29.5 -101.5l-138 -1
q-5 43 -36 67t-80 24q-34 0 -61 -12t-41.5 -33t-14.5 -47q0 -16 7 -28.5t15.5 -19t23 -12t22 -7t20.5 -3.5l119 -16q191 -25 191 -188q0 -114 -83.5 -183t-223.5 -69z" />
    <glyph glyph-name="T" unicode="T" horiz-adv-x="583" 
d="M591 700l-15 -119h-179l-71 -581h-130l71 581h-178l14 119h488z" />
    <glyph glyph-name="U" unicode="U" horiz-adv-x="674" 
d="M319 -10q-127 0 -196 75.5t-54 199.5l53 435h133l-54 -437q-6 -45 7.5 -80t43 -53.5t71.5 -18.5q26 0 48.5 6.5t40.5 19.5t32 31.5t23 42.5t12 53l54 436h130l-55 -442q-15 -127 -91 -197.5t-198 -70.5z" />
    <glyph glyph-name="V" unicode="V" horiz-adv-x="715" 
d="M590 700h143l-324 -700h-164l-153 700h139l109 -562h5z" />
    <glyph glyph-name="W" unicode="W" horiz-adv-x="944" 
d="M172 0l-74 700h134l36 -543h4l183 524h138l55 -524h4l170 543h135l-247 -700h-142l-60 529h-4l-186 -529h-146z" />
    <glyph glyph-name="X" unicode="X" horiz-adv-x="718" 
d="M727 700l-281 -331l222 -369h-154l-152 268l-217 -268h-156l313 371l-198 329h154l128 -228l185 228h156z" />
    <glyph glyph-name="Y" unicode="Y" horiz-adv-x="673" 
d="M241 0l32 259l-193 441h144l124 -311h4l200 311h152l-301 -441l-32 -259h-130z" />
    <glyph glyph-name="Z" unicode="Z" horiz-adv-x="622" 
d="M603 700l-10 -89l-396 -496h357l-14 -115h-519l11 89l396 496h-321l14 115h482z" />
    <glyph glyph-name="a" unicode="a" horiz-adv-x="658" 
d="M502 500h125l-61 -500h-125l11 96l-2 1q-31 -52 -80.5 -79.5t-110.5 -27.5q-97 0 -158.5 65.5t-61.5 169.5q0 121 77.5 203t196.5 82q65 0 110.5 -28.5t64.5 -81.5h2zM305 97q72 0 122 49.5t50 121.5q0 60 -37.5 97.5t-98.5 37.5q-49 0 -88.5 -22.5t-61.5 -62t-22 -88.5
q0 -60 37.5 -96.5t98.5 -36.5z" />
    <glyph glyph-name="b" unicode="b" 
d="M410 510q96 0 157.5 -65.5t61.5 -169.5q0 -121 -77.5 -203t-196.5 -82q-65 0 -110.5 28.5t-64.5 81.5h-1l-12 -100h-125l88 720h125l-39 -316l2 -1q31 52 80.5 79.5t111.5 27.5zM327 97q74 0 123 49.5t49 123.5q0 60 -37.5 96t-97.5 36q-36 0 -68 -13t-55 -35.5
t-36.5 -54.5t-13.5 -67q0 -60 37.5 -97.5t98.5 -37.5z" />
    <glyph glyph-name="c" unicode="c" horiz-adv-x="625" 
d="M298 -10q-115 0 -187 66.5t-72 175.5q0 120 84.5 199t213.5 79q99 0 163.5 -47.5t79.5 -126.5h-134q-15 32 -44.5 50t-69.5 18q-71 0 -117.5 -49.5t-46.5 -121.5q0 -63 36.5 -100t97.5 -37q68 0 112 45.5t43 114.5h131q-4 -117 -85.5 -191.5t-204.5 -74.5z" />
    <glyph glyph-name="d" unicode="d" 
d="M528 720h125l-88 -720h-125l12 96l-2 1q-31 -52 -80.5 -79.5t-111.5 -27.5q-97 0 -158 65.5t-61 169.5q0 121 77.5 203t196.5 82q65 0 110 -28.5t64 -81.5h2zM304 97q72 0 122.5 49.5t50.5 121.5q0 60 -37.5 97.5t-98.5 37.5q-49 0 -88.5 -22.5t-61.5 -62t-22 -88.5
q0 -60 37.5 -96.5t97.5 -36.5z" />
    <glyph glyph-name="e" unicode="e" horiz-adv-x="616" 
d="M446 206h128q-15 -96 -94 -156t-185 -60q-113 0 -184 67t-71 177q0 58 21.5 109t59.5 88t93 58t119 21q119 0 184.5 -70t50.5 -187h-406q-1 -7 -1 -15q0 -68 36.5 -105t98.5 -37q39 0 71 13.5t52.5 39t26.5 57.5zM328 417q-45 0 -81 -19.5t-58 -55.5h254q-23 75 -115 75z
" />
    <glyph glyph-name="f" unicode="f" horiz-adv-x="438" 
d="M393 621q-56 0 -79 -24t-28 -64l-4 -33h158l-12 -104h-159l-49 -396h-123l49 396h-93l13 104h93l4 41q11 90 65 139.5t146 49.5q52 0 93 -13l-13 -104q-30 8 -61 8z" />
    <glyph glyph-name="g" unicode="g" horiz-adv-x="674" 
d="M518 500h125l-61 -500l-2 -17q-15 -121 -97.5 -187t-218.5 -66q-133 0 -211 71.5t-61 183.5h121q-10 -68 32.5 -109.5t120.5 -41.5q82 0 132 40t60 111l2 15l14 116h-1q-30 -55 -81.5 -85.5t-116.5 -30.5q-97 0 -158 65.5t-61 167.5q0 118 77 197.5t195 79.5
q67 0 112.5 -28.5t64.5 -82.5h1zM321 107q71 0 122 48t51 117q0 59 -38 95t-100 36q-74 0 -122 -47t-48 -117q0 -59 37 -95.5t98 -36.5z" />
    <glyph glyph-name="h" unicode="h" horiz-adv-x="612" 
d="M400 510q90 0 134 -54t32 -149l-37 -307h-126l35 287q5 36 -4.5 62t-32 39.5t-56.5 13.5q-29 0 -54.5 -9.5t-44.5 -28t-31 -45t-16 -58.5l-32 -261h-125l88 720h125l-39 -318h1q28 52 75.5 80t107.5 28z" />
    <glyph glyph-name="i" unicode="i" horiz-adv-x="278" 
d="M188 580q-40 0 -66.5 23.5t-26.5 59.5q0 37 28 62.5t70 25.5q40 0 66.5 -24t26.5 -60q0 -37 -28 -62t-70 -25zM46 0l62 500h125l-62 -500h-125z" />
    <glyph glyph-name="j" unicode="j" horiz-adv-x="282" 
d="M190 580q-40 0 -66.5 23.5t-26.5 59.5q0 37 28 62.5t70 25.5q40 0 66.5 -24t26.5 -60q0 -37 -28 -62t-70 -25zM17 -249l93 749h124l-91 -749h-126z" />
    <glyph glyph-name="k" unicode="k" horiz-adv-x="558" 
d="M42 0l88 720h125l-55 -445l2 -1l208 226h155l-245 -248l189 -252h-149l-164 228h-1l-28 -228h-125z" />
    <glyph glyph-name="l" unicode="l" horiz-adv-x="270" 
d="M42 0l88 720h125l-88 -720h-125z" />
    <glyph glyph-name="m" unicode="m" horiz-adv-x="875" 
d="M681 510q80 0 120.5 -53.5t29.5 -143.5l-39 -313h-125l36 297q7 51 -13 78t-63 27q-48 0 -79.5 -32.5t-39.5 -90.5v-1l-34 -278h-125l36 297q6 51 -13.5 78t-62.5 27q-47 0 -79.5 -33t-39.5 -91l-1 -3l-33 -275h-125l61 500h125l-11 -93q18 33 42.5 56t55 35t65.5 12
q53 0 89 -27t50 -76q29 49 73.5 76t99.5 27z" />
    <glyph glyph-name="n" unicode="n" horiz-adv-x="601" 
d="M389 510q89 0 133.5 -54t33.5 -149l-38 -307h-126l35 287q7 55 -17.5 85t-75.5 30q-60 0 -99 -37.5t-47 -102.5v-1l-32 -261h-125l61 500h125l-12 -98h1q28 52 75.5 80t107.5 28z" />
    <glyph glyph-name="o" unicode="o" horiz-adv-x="637" 
d="M303 -10q-114 0 -188.5 68.5t-74.5 175.5q0 116 84.5 196t209.5 80q114 0 188.5 -68.5t74.5 -175.5q0 -116 -84.5 -196t-209.5 -80zM303 96q72 0 120 49.5t48 120.5q0 62 -38 100t-99 38q-47 0 -86 -22.5t-60.5 -61.5t-21.5 -86q0 -62 38.5 -100t98.5 -38z" />
    <glyph glyph-name="p" unicode="p" horiz-adv-x="657" 
d="M399 510q97 0 158 -65.5t61 -169.5q0 -121 -77 -203t-196 -82q-66 0 -111 28.5t-64 81.5h-2l-44 -360h-125l93 760h125l-12 -96l2 -1q31 52 81 79.5t111 27.5zM317 97q74 0 123 49.5t49 123.5q0 60 -37.5 96t-98.5 36q-72 0 -122.5 -49t-50.5 -121q0 -60 38 -97.5
t99 -37.5z" />
    <glyph glyph-name="q" unicode="q" horiz-adv-x="658" 
d="M502 500h125l-93 -760h-125l43 356l-2 1q-30 -52 -80 -79.5t-111 -27.5q-97 0 -158.5 65.5t-61.5 169.5q0 121 77.5 203t196.5 82q65 0 110.5 -28.5t64.5 -81.5h2zM305 97q72 0 122 49.5t50 121.5q0 60 -37.5 97.5t-98.5 37.5q-49 0 -88.5 -22.5t-61.5 -62t-22 -88.5
q0 -60 37.5 -96.5t98.5 -36.5z" />
    <glyph glyph-name="r" unicode="r" horiz-adv-x="409" 
d="M381 510q12 0 21 -1l-15 -124h-25q-76 0 -124 -50.5t-59 -141.5l-23 -193h-125l61 500h120l-18 -146q56 156 187 156z" />
    <glyph glyph-name="s" unicode="s" horiz-adv-x="559" 
d="M269 -10q-112 0 -181.5 56.5t-62.5 149.5h128q-4 -49 28.5 -78.5t92.5 -29.5q51 0 83 20.5t32 54.5q0 41 -55 47l-115 15q-18 2 -29.5 4t-34.5 10t-37 19.5t-25 33.5t-11 51q0 75 59 121t157 46q93 0 146 -37.5t57 -106.5h-128q-10 52 -81 52q-39 0 -63.5 -17t-24.5 -44
q0 -36 54 -44l114 -14q19 -2 30.5 -4t35.5 -10.5t38.5 -20.5t26 -34.5t11.5 -52.5q0 -83 -67.5 -135t-177.5 -52z" />
    <glyph glyph-name="t" unicode="t" horiz-adv-x="414" 
d="M97 0l48 397h-92l11 92l33 2q36 2 56 21.5t27 60.5l12 71h107l-18 -144h128l-13 -103h-128l-48 -397h-123z" />
    <glyph glyph-name="u" unicode="u" horiz-adv-x="601" 
d="M445 500h125l-62 -500h-124l12 98h-1q-28 -52 -75.5 -80t-107.5 -28q-90 0 -134 54t-33 149l38 307h126l-35 -287q-7 -55 17.5 -85t74.5 -30q60 0 99.5 37.5t47.5 102.5v1z" />
    <glyph glyph-name="v" unicode="v" horiz-adv-x="602" 
d="M203 0l-139 500h131l85 -380h4l178 380h137l-261 -500h-135z" />
    <glyph glyph-name="w" unicode="w" horiz-adv-x="895" 
d="M175 0l-111 500h127l63 -366h4l154 366h124l65 -368h4l153 368h133l-233 -500h-126l-68 375h-4l-160 -375h-125z" />
    <glyph glyph-name="x" unicode="x" horiz-adv-x="607" 
d="M599 500l-227 -244l175 -256h-149l-102 170l-146 -170h-152l241 259l-165 241h146l95 -156l132 156h152z" />
    <glyph glyph-name="y" unicode="y" horiz-adv-x="649" 
d="M493 500h125l-61 -500l-3 -21q-14 -115 -97.5 -182t-210.5 -67t-196.5 69t-55.5 178h121q-9 -66 29 -104.5t111 -38.5q75 0 122 39t55 109l2 18l14 109h-1q-27 -51 -75 -78.5t-112 -27.5q-90 0 -134 54t-32 148l36 295h127l-34 -275q-7 -54 18 -84.5t77 -30.5q58 0 97 38
t47 102z" />
    <glyph glyph-name="z" unicode="z" horiz-adv-x="504" 
d="M478 500l-11 -84l-290 -318h267l-12 -98h-421l10 84l291 318h-237l12 98h391z" />
  </font>
</defs>
</svg>
