<?xml version="1.0" standalone="no"?>
<!DOCTYPE svg PUBLIC "-//W3C//DTD SVG 1.1//EN" "http://www.w3.org/Graphics/SVG/1.1/DTD/svg11.dtd" >
<svg xmlns="http://www.w3.org/2000/svg" xmlns:xlink="http://www.w3.org/1999/xlink" version="1.1">
<metadata>
Created by FontForge 20170731 at Thu Oct 31 17:57:16 2019
 By Aleksey,,,
Copyright (c) 2019 by Lewis MacDonald. All rights reserved.
</metadata>
<defs>
<font id="SpoofTrial-Bold" horiz-adv-x="729" >
  <font-face 
    font-family="Spoof Trial"
    font-weight="700"
    font-stretch="normal"
    units-per-em="1000"
    panose-1="0 0 8 0 0 0 0 0 0 0"
    ascent="800"
    descent="-200"
    x-height="500"
    cap-height="700"
    bbox="13 -270 962 760"
    underline-thickness="130"
    underline-position="-360"
    unicode-range="U+0020-007A"
  />
<missing-glyph 
d="M613 700h48v-700h-166h-261h-166v700h50h495zM234 150h261v400h-261v-400z" />
    <glyph glyph-name=".notdef" 
d="M613 700h48v-700h-166h-261h-166v700h50h495zM234 150h261v400h-261v-400z" />
    <glyph glyph-name=".null" horiz-adv-x="0" 
 />
    <glyph glyph-name="nonmarkingreturn" horiz-adv-x="333" 
 />
    <glyph glyph-name="space" unicode=" " horiz-adv-x="300" 
 />
    <glyph glyph-name="exclam" unicode="!" horiz-adv-x="363" 
d="M106 261l-10 439h171l-9 -439h-152zM182 -10q-33 0 -59 13t-41 36.5t-15 51.5q0 14 4 27.5t11.5 24.5t17.5 20t23 15.5t28 10t31 3.5q49 0 81.5 -29t32.5 -72t-32.5 -72t-81.5 -29z" />
    <glyph glyph-name="comma" unicode="," horiz-adv-x="362" 
d="M178 192q57 0 90.5 -37t33.5 -104q0 -91 -60.5 -137.5t-167.5 -32.5v67q60 -7 97 11t47 58q-23 -18 -59 -18q-42 0 -69 26.5t-27 64.5q0 44 32 73t83 29z" />
    <glyph glyph-name="hyphen" unicode="-" horiz-adv-x="457" 
d="M40 352h377v-144h-377v144z" />
    <glyph glyph-name="period" unicode="." horiz-adv-x="352" 
d="M176 -10q-49 0 -81.5 29t-32.5 72t32.5 72t81.5 29t81.5 -29t32.5 -72t-32.5 -72t-81.5 -29z" />
    <glyph glyph-name="zero" unicode="0" horiz-adv-x="847" 
d="M423.5 710q107.5 0 194.5 -47t136.5 -129.5t49.5 -183.5t-49.5 -183.5t-136.5 -129.5t-194 -47q-81 0 -151.5 27.5t-121 75t-79.5 114.5t-29 143q0 101 49.5 183.5t136.5 129.5t194.5 47zM424 567q-98 0 -159.5 -60.5t-61.5 -156.5q0 -61 27 -110l302 302q-48 25 -108 25
zM424 133q32 0 61 7.5t53.5 20.5t44 32.5t33.5 43.5t21 52.5t7 60.5q0 61 -26 110l-303 -303q49 -24 109 -24z" />
    <glyph glyph-name="one" unicode="1" horiz-adv-x="442" 
d="M213 0v456h-171v127l84 4q29 2 48.5 11.5t29.5 28.5t12 49l1 24h156v-700h-160z" />
    <glyph glyph-name="two" unicode="2" horiz-adv-x="670" 
d="M281 146h340v-146h-573v110l204 159q-80 15 -129.5 72t-49.5 139q0 101 73 165.5t187 64.5q113 0 185 -64t72 -162q0 -37 -13 -71.5t-33 -61.5t-55 -57t-68 -52.5t-83 -53.5zM333 573q-46 0 -74.5 -28t-28.5 -74t28.5 -74t74.5 -28t74.5 28t28.5 74t-28.5 74t-74.5 28z
" />
    <glyph glyph-name="three" unicode="3" horiz-adv-x="667" 
d="M417 465q96 -10 153 -71.5t57 -153.5q0 -111 -82 -180.5t-211 -69.5q-136 0 -218 77t-76 200h172q0 -62 34 -98.5t92 -36.5q53 0 85.5 30.5t32.5 80.5q0 51 -34 82.5t-90 31.5q-48 0 -83 -20l-56 111q65 40 210 117q-74 -4 -241 -4h-88v139h501v-148z" />
    <glyph glyph-name="four" unicode="4" horiz-adv-x="732" 
d="M696 432v-128h-186v-304h-166v304h-294v396h164v-267h133v217h163v-217z" />
    <glyph glyph-name="five" unicode="5" horiz-adv-x="675" 
d="M375 486q73 0 130.5 -29.5t89.5 -84t32 -125.5q0 -114 -80 -185.5t-210 -71.5q-131 0 -211.5 71.5t-79.5 187.5h172q2 -55 35 -86t87 -31q53 0 84.5 30t31.5 80q0 51 -32 81t-84 30q-61 0 -97 -44h-160l12 391h485v-139h-354l-5 -125q60 50 154 50z" />
    <glyph glyph-name="six" unicode="6" horiz-adv-x="682" 
d="M386 496q108 0 178.5 -68.5t70.5 -176.5q0 -115 -81.5 -188t-212.5 -73q-130 0 -212.5 72t-82.5 184q0 41 11 79.5t33 74t35.5 53.5t37.5 46l170 201h190l-192 -211q23 7 55 7zM340 132q55 0 89 33t34 88t-34 88.5t-89 33.5t-88.5 -33.5t-33.5 -88.5q0 -54 33.5 -87.5
t88.5 -33.5z" />
    <glyph glyph-name="seven" unicode="7" horiz-adv-x="605" 
d="M558 700v-133l-251 -567h-180l259 550h-340v150h512z" />
    <glyph glyph-name="eight" unicode="8" horiz-adv-x="657" 
d="M467 364q72 -17 112.5 -61.5t40.5 -110.5q0 -89 -80.5 -145.5t-210.5 -56.5t-211 56.5t-81 145.5q0 44 18.5 79t53 58.5t81.5 34.5v1q-60 18 -93.5 58.5t-33.5 98.5q0 83 73.5 135.5t192 52.5t192 -52.5t73.5 -136.5q0 -38 -15.5 -69.5t-43.5 -53t-68 -33.5v-1z
M328.5 588q-44.5 0 -71 -22t-26.5 -59q0 -25 12 -43.5t34 -28.5t52 -10q44 0 71 22t27 60q0 37 -27 59t-71.5 22zM329 112q53 0 84.5 27t31.5 71t-31.5 70.5t-84.5 26.5t-85 -26.5t-32 -70.5t32 -71t85 -27z" />
    <glyph glyph-name="nine" unicode="9" horiz-adv-x="682" 
d="M341 710q130 0 212 -72t82 -184q0 -41 -10.5 -79.5t-32.5 -74t-35.5 -53.5t-37.5 -46l-170 -201h-190l192 211q-23 -7 -55 -7q-72 0 -128.5 31t-88.5 86.5t-32 127.5q0 75 36.5 134.5t103.5 93t154 33.5zM342 325q55 0 88.5 33.5t33.5 88.5q0 54 -33.5 87.5t-88.5 33.5
q-56 0 -89.5 -33t-33.5 -88t33.5 -88.5t89.5 -33.5z" />
    <glyph glyph-name="question" unicode="?" horiz-adv-x="540" 
d="M268 244q-62 0 -107.5 18.5t-70 53t-24.5 80.5q0 102 129 117l113 14q44 5 44 36q0 21 -19.5 33t-52.5 12q-36 0 -59.5 -15.5t-28.5 -43.5h-139q1 73 62.5 117t160.5 44q97 0 153.5 -42.5t56.5 -112.5q0 -104 -137 -119l-107 -13q-43 -5 -43 -36q0 -21 18 -32.5t47 -11.5
q21 0 37.5 6.5t27 18t14.5 27.5h138q-4 -69 -62 -110t-151 -41zM272 -9q-49 0 -82 28.5t-33 72t33 72.5t82 29t81.5 -29t32.5 -72.5t-32.5 -72t-81.5 -28.5z" />
    <glyph glyph-name="A" unicode="A" horiz-adv-x="829" 
d="M638 0l-87 222h-275l-86 -222h-177l288 700h227l288 -700h-178zM409 582q-16 -45 -47 -128l-39 -101h182l-40 102q-5 13 -14.5 39.5t-18 48.5t-14.5 39h-9z" />
    <glyph glyph-name="B" unicode="B" horiz-adv-x="650" 
d="M490 356q55 -19 87 -64t32 -106q0 -85 -60 -135.5t-160 -50.5h-323v700h317q65 0 114 -22.5t75 -64t26 -96.5q0 -58 -29 -100t-79 -61zM346 568h-120v-153h120q40 0 62.5 20.5t22.5 56t-22.5 56t-62.5 20.5zM347 131q29 0 50 10.5t32.5 29.5t11.5 45q0 39 -25 61t-68 22
h-122v-168h121z" />
    <glyph glyph-name="C" unicode="C" horiz-adv-x="850" 
d="M433 -10q-171 0 -279 102.5t-108 256.5q0 104 50.5 186.5t138.5 128.5t195 46q83 0 153.5 -27.5t121 -79.5t71.5 -121h-186q-24 39 -66 59t-95 20q-93 0 -150.5 -58.5t-57.5 -150.5q0 -62 27 -110.5t74.5 -75.5t107.5 -27q97 0 153 66t47 169h174q12 -110 -32.5 -198
t-134 -137t-204.5 -49z" />
    <glyph glyph-name="D" unicode="D" 
d="M308 700q167 0 271.5 -97t104.5 -253t-104.5 -253t-271.5 -97h-240v700h240zM308 147q58 0 103.5 26t71.5 72t26 105t-26 105t-71.5 72t-103.5 26h-74v-406h74z" />
    <glyph glyph-name="E" unicode="E" horiz-adv-x="550" 
d="M494 564h-268v-137h263v-135h-263v-156h268v-136h-428v700h428v-136z" />
    <glyph glyph-name="F" unicode="F" horiz-adv-x="539" 
d="M490 552h-258v-139h247v-148h-247v-265h-165v700h423v-148z" />
    <glyph glyph-name="G" unicode="G" horiz-adv-x="848" 
d="M802 420q11 -124 -31.5 -222t-132 -153t-210.5 -55q-168 0 -275 100.5t-107 256.5q0 158 108.5 260.5t273.5 102.5q124 0 218 -60t127 -163h-183q-25 36 -68 56.5t-95 20.5q-94 0 -152 -59t-58 -157q0 -96 58 -154t156 -58q81 0 133 40.5t69 113.5h-201v130h370z" />
    <glyph glyph-name="H" unicode="H" 
d="M495 700h166v-700h-166v302h-261v-302h-166v700h166v-248h261v248z" />
    <glyph glyph-name="I" unicode="I" horiz-adv-x="301" 
d="M67 0v700h166v-700h-166z" />
    <glyph glyph-name="J" unicode="J" horiz-adv-x="601" 
d="M291 -10q-117 0 -182 65t-65 187q0 38 7 104h166q-6 -46 -6 -97q0 -106 83 -106q36 0 57.5 22.5t21.5 61.5v473h166v-472q0 -109 -66 -173.5t-182 -64.5z" />
    <glyph glyph-name="K" unicode="K" horiz-adv-x="689" 
d="M450 0l-215 301h-2v-301h-166v700h166v-303h2l217 303h199l-270 -343l275 -357h-206z" />
    <glyph glyph-name="L" unicode="L" horiz-adv-x="519" 
d="M233 150h255v-150h-421v700h166v-550z" />
    <glyph glyph-name="M" unicode="M" horiz-adv-x="903" 
d="M67 0v700h252l130 -467h4l131 467h251v-700h-159v533h-5l-147 -473h-145l-147 473h-6v-533h-159z" />
    <glyph glyph-name="N" unicode="N" horiz-adv-x="748" 
d="M68 0l-1 700h157l302 -457l2 1v456h152v-700h-157l-301 457l-3 -1v-456h-151z" />
    <glyph glyph-name="O" unicode="O" horiz-adv-x="847" 
d="M423.5 -10q-107.5 0 -194.5 47t-136.5 129.5t-49.5 183.5t49.5 183.5t136.5 129.5t195 47q80 0 150.5 -27.5t121 -75t79.5 -114.5t29 -143q0 -101 -49.5 -183.5t-136.5 -129.5t-194.5 -47zM423.5 139q90.5 0 148.5 59.5t58 151.5q0 61 -26.5 109t-73.5 75t-106 27
q-91 0 -149 -59.5t-58 -151.5t58 -151.5t148.5 -59.5z" />
    <glyph glyph-name="P" unicode="P" horiz-adv-x="658" 
d="M351 700q77 0 137 -30t93.5 -84t33.5 -123q-1 -106 -74 -172t-190 -66h-117v-225h-166v700h283zM328 367q52 0 81.5 25t29.5 70t-29.5 70.5t-81.5 25.5h-94v-191h94z" />
    <glyph glyph-name="Q" unicode="Q" horiz-adv-x="853" 
d="M853 20l-100 -100l-124 124q-91 -54 -205 -54q-81 0 -151.5 27.5t-121 75t-79.5 114.5t-29 143q0 101 49.5 183.5t136.5 129.5t194.5 47t194.5 -47t136.5 -129.5t49.5 -183.5q0 -120 -69 -212zM644 350q0 96 -61.5 156.5t-158.5 60.5q-60 0 -109 -24l303 -303
q26 49 26 110zM203 350q0 -96 61.5 -156.5t159.5 -60.5q59 0 108 25l-302 302q-27 -49 -27 -110z" />
    <glyph glyph-name="R" unicode="R" horiz-adv-x="717" 
d="M503 0l-237 278h-36v-278h-162v700h318q106 0 171 -58t65 -153q0 -79 -44.5 -134.5t-119.5 -70.5l260 -284h-215zM230 567v-182h123q48 0 75.5 24.5t27.5 66.5t-27.5 66.5t-75.5 24.5h-123z" />
    <glyph glyph-name="S" unicode="S" horiz-adv-x="723" 
d="M381 -10q-158 0 -251.5 80t-98.5 207h188q4 -72 47.5 -110t118.5 -38q61 0 96 24.5t35 68.5q0 36 -22.5 52t-58.5 21l-142 18q-197 26 -197 186q0 97 69.5 154t191.5 57q120 0 194.5 -54.5t81.5 -147.5l-177 -2q-17 79 -106 79q-39 0 -63 -18.5t-24 -49.5q0 -49 78 -61
l130 -16q107 -14 163 -66t56 -141q0 -111 -83 -177t-226 -66z" />
    <glyph glyph-name="T" unicode="T" horiz-adv-x="609" 
d="M566 700v-150h-178v-550h-166v550h-179v150h523z" />
    <glyph glyph-name="U" unicode="U" horiz-adv-x="708" 
d="M355 -10q-136 0 -215.5 76.5t-79.5 208.5v425h169v-422q0 -62 34 -99t93 -37q39 0 67.5 16.5t44 47.5t15.5 72v422h166v-425q0 -131 -79.5 -208t-214.5 -77z" />
    <glyph glyph-name="V" unicode="V" horiz-adv-x="749" 
d="M535 700h180l-230 -700h-221l-231 700h181l159 -538h4z" />
    <glyph glyph-name="W" unicode="W" horiz-adv-x="1000" 
d="M202 0l-164 700h174l88 -494h5l112 477h169l113 -478h5l88 495h170l-165 -700h-173l-122 484h-5l-117 -484h-178z" />
    <glyph glyph-name="X" unicode="X" horiz-adv-x="762" 
d="M748 0h-200l-169 241l-169 -241h-196l273 368l-247 332h201l140 -201l141 201h197l-246 -329z" />
    <glyph glyph-name="Y" unicode="Y" horiz-adv-x="707" 
d="M271 0v243l-253 457h189l146 -294h4l146 294h187l-253 -457v-243h-166z" />
    <glyph glyph-name="Z" unicode="Z" horiz-adv-x="648" 
d="M251 145h351v-145h-555v109l327 446h-310v145h513v-109z" />
    <glyph glyph-name="a" unicode="a" horiz-adv-x="665" 
d="M449 500h159v-500h-159v96h-2q-24 -51 -67.5 -78.5t-103.5 -27.5q-102 0 -171.5 74t-69.5 185.5t69 186t172 74.5q60 0 103.5 -27.5t67.5 -78.5h2v96zM326 124q56 0 92 35.5t36 90.5t-36 90.5t-92 35.5q-55 0 -91 -35.5t-36 -90.5q0 -36 16.5 -65t45.5 -45t65 -16z" />
    <glyph glyph-name="b" unicode="b" horiz-adv-x="676" 
d="M399 510q103 0 172.5 -74.5t69.5 -186t-69.5 -185.5t-172.5 -74q-59 0 -103 27.5t-67 78.5h-2v-96h-159v720h159v-316h2q23 51 67 78.5t103 27.5zM349 124q56 0 91.5 35.5t35.5 90.5t-35.5 90.5t-91.5 35.5t-91.5 -35.5t-35.5 -90.5t35.5 -90.5t91.5 -35.5z" />
    <glyph glyph-name="c" unicode="c" horiz-adv-x="629" 
d="M317 -10q-125 0 -203.5 72.5t-78.5 187.5q0 116 78.5 188t203.5 72q103 0 173.5 -49.5t90.5 -133.5h-169q-31 50 -95 50q-53 0 -86 -35t-33 -92q0 -56 33 -91.5t87 -35.5q55 0 87 38.5t26 97.5h165q8 -119 -71 -194t-208 -75z" />
    <glyph glyph-name="d" unicode="d" horiz-adv-x="676" 
d="M449 720h159v-720h-159v96h-2q-24 -51 -67.5 -78.5t-103.5 -27.5q-102 0 -171.5 74t-69.5 186q0 111 69 185.5t172 74.5q60 0 103.5 -27.5t67.5 -78.5h2v316zM326 124q55 0 90.5 34t37.5 88v8q-1 27 -11 49.5t-26.5 38.5t-40 25t-50.5 9q-36 0 -65 -16t-45.5 -45
t-16.5 -65t16.5 -65t45.5 -45t65 -16z" />
    <glyph glyph-name="e" unicode="e" horiz-adv-x="621" 
d="M426 206h162q-7 -97 -83.5 -156.5t-189.5 -59.5q-82 0 -146.5 33.5t-99 93t-34.5 134.5q0 114 77 186.5t200 72.5q125 0 197 -71t67 -193h-388q4 -58 37 -91t87 -33q46 0 77 23t37 61zM310 397q-77 0 -107 -64h211q-25 64 -104 64z" />
    <glyph glyph-name="f" unicode="f" horiz-adv-x="457" 
d="M368 597q-47 0 -69 -19t-22 -59v-19h149v-130h-149v-370h-157v370h-89v130h89v25q0 96 58.5 150.5t160.5 54.5q46 0 87 -10v-129q-30 6 -58 6z" />
    <glyph glyph-name="g" unicode="g" horiz-adv-x="685" 
d="M468 500h160v-517q0 -114 -84.5 -183.5t-219.5 -69.5q-136 0 -221 70.5t-84 182.5h154q0 -37 18.5 -65.5t52.5 -44t80 -15.5q68 0 108 34t40 91v129h-1q-19 -53 -65 -82.5t-111 -29.5q-104 0 -172.5 72t-68.5 182t67.5 183t173.5 73q62 0 107 -27t66 -77v94zM346.5 134
q55.5 0 91 34t35.5 87t-35.5 87t-91 34t-91 -34t-35.5 -87t35.5 -87t91 -34z" />
    <glyph glyph-name="h" unicode="h" horiz-adv-x="623" 
d="M394 510q84 0 133.5 -53t49.5 -145v-312h-161v281q0 44 -23 69t-65 25q-44 0 -71 -28t-30 -76v-271h-159v500v220h159v-316h1q21 51 64 78.5t102 27.5z" />
    <glyph glyph-name="i" unicode="i" horiz-adv-x="300" 
d="M150 558q-32 0 -58.5 13.5t-41 36.5t-14.5 51q0 22 8.5 40.5t23.5 32t36.5 21t45.5 7.5q49 0 81.5 -28.5t32.5 -72t-32.5 -72.5t-81.5 -29zM70 0v500h160v-500h-160z" />
    <glyph glyph-name="j" unicode="j" horiz-adv-x="303" 
d="M151 558q-32 0 -58.5 13.5t-41 36.5t-14.5 51q0 22 8.5 40.5t23.5 32t36.5 21t45.5 7.5q49 0 81.5 -28.5t32.5 -72t-32.5 -72.5t-81.5 -29zM72 -257v757h159v-757h-159z" />
    <glyph glyph-name="k" unicode="k" horiz-adv-x="606" 
d="M68 0v720h159v-442h2l165 222h189l-199 -248l210 -252h-194l-171 224l-2 -1v-223h-159z" />
    <glyph glyph-name="l" unicode="l" horiz-adv-x="294" 
d="M68 0v720h159v-720h-159z" />
    <glyph glyph-name="m" unicode="m" horiz-adv-x="894" 
d="M675 510q79 0 125.5 -52.5t46.5 -143.5v-314h-159v288q0 43 -19 65t-55 22q-39 0 -60.5 -26t-21.5 -76v-273h-160v288q0 29 -8.5 48.5t-25 29t-39.5 9.5q-26 0 -44.5 -11.5t-28.5 -34.5t-10 -56v-273h-159v500h159v-94h1q13 33 34.5 56t51 35.5t64.5 12.5
q52 0 90.5 -26.5t57.5 -74.5q23 48 64.5 74.5t95.5 26.5z" />
    <glyph glyph-name="n" unicode="n" horiz-adv-x="613" 
d="M384 510q84 0 133 -53t49 -145v-312h-160v281q0 44 -23.5 69t-64.5 25q-31 0 -54 -13.5t-35.5 -39.5t-12.5 -60v-262h-159v500h159v-96h1q22 51 64.5 78.5t102.5 27.5z" />
    <glyph glyph-name="o" unicode="o" horiz-adv-x="639" 
d="M320 -10q-83 0 -148 33t-101 92t-36 135t36 135t101 92t148 33q125 0 204.5 -72.5t79.5 -187.5t-79.5 -187.5t-204.5 -72.5zM320 123q54 0 89 35.5t35 91.5q0 37 -15.5 66t-44 45t-64.5 16q-55 0 -90 -35.5t-35 -91.5q0 -37 16 -66t44.5 -45t64.5 -16z" />
    <glyph glyph-name="p" unicode="p" horiz-adv-x="665" 
d="M389 510q68 0 123 -34t86.5 -93.5t31.5 -132.5q0 -112 -69 -186t-172 -74q-60 0 -103.5 27.5t-67.5 78.5h-2v-356h-159v760h159v-96h2q24 51 68 78.5t103 27.5zM339 124q27 0 51 9.5t40.5 26t26 40t9.5 50.5q0 36 -16 65t-45 45t-66 16q-56 0 -91.5 -35.5t-35.5 -90.5
t35.5 -90.5t91.5 -35.5z" />
    <glyph glyph-name="q" unicode="q" horiz-adv-x="665" 
d="M449 500h159v-760h-159v356h-2q-24 -51 -67.5 -78.5t-103.5 -27.5q-103 0 -172 74t-69 186q0 111 69 185.5t172 74.5q60 0 103.5 -27.5t67.5 -78.5h2v96zM326 124q56 0 92 35.5t36 90.5t-36 90.5t-92 35.5q-55 0 -91 -35.5t-36 -90.5q0 -36 16.5 -65t45.5 -45t65 -16z
" />
    <glyph glyph-name="r" unicode="r" horiz-adv-x="438" 
d="M377 510q13 0 26 -1v-159q-11 1 -35 1q-152 0 -152 -178v-173h-159v500h153v-159h1q19 86 59.5 127.5t106.5 41.5z" />
    <glyph glyph-name="s" unicode="s" horiz-adv-x="574" 
d="M298 -10q-117 0 -192.5 54t-81.5 144h163q4 -38 34.5 -60t79.5 -22q41 0 64.5 15t23.5 42q0 36 -46 42l-118 13q-23 3 -38 5.5t-40.5 11.5t-40.5 21.5t-27 36t-12 54.5q0 74 59 118.5t163 44.5q99 0 158 -40.5t69 -113.5h-162q-15 43 -72 43q-28 0 -45 -12t-17 -32
q0 -34 46 -38l116 -13q22 -2 39 -5.5t42.5 -13t42 -23t29 -37.5t12.5 -56q0 -81 -68.5 -130t-180.5 -49z" />
    <glyph glyph-name="t" unicode="t" horiz-adv-x="439" 
d="M120 0v372h-90v113l33 3q18 1 31.5 7t23 16.5t14 26.5t5.5 38l4 71h136v-147h131v-128h-131v-372h-157z" />
    <glyph glyph-name="u" unicode="u" horiz-adv-x="613" 
d="M396 500h159v-500h-159v96h-1q-21 -51 -64 -78.5t-102 -27.5q-84 0 -133.5 53t-49.5 145v312h161v-281q0 -22 6 -39.5t17 -29.5t27.5 -18.5t37.5 -6.5q46 0 73.5 30.5t27.5 82.5v262z" />
    <glyph glyph-name="v" unicode="v" horiz-adv-x="630" 
d="M231 0l-203 500h172l114 -351h4l113 351h171l-203 -500h-168z" />
    <glyph glyph-name="w" unicode="w" horiz-adv-x="924" 
d="M202 0l-174 500h165l93 -334h4l97 334h149l97 -335h4l94 335h165l-175 -500h-156l-102 339h-4l-101 -339h-156z" />
    <glyph glyph-name="x" unicode="x" horiz-adv-x="644" 
d="M621 0h-195l-105 145l-107 -145h-192l214 255l-204 245h191l99 -134l96 134h191l-202 -243z" />
    <glyph glyph-name="y" unicode="y" horiz-adv-x="661" 
d="M444 500h159v-523q0 -112 -80.5 -179.5t-209.5 -67.5q-133 0 -213.5 69t-79.5 178h154q-1 -54 36 -86.5t101 -32.5t100.5 32t36.5 87v131h-1q-14 -33 -37.5 -56.5t-56.5 -35.5t-74 -12q-88 0 -137 53t-49 145v298h162v-267q0 -29 10.5 -50.5t30 -33t47.5 -11.5
q30 0 53 14t35.5 39.5t12.5 59.5v249z" />
    <glyph glyph-name="z" unicode="z" horiz-adv-x="520" 
d="M231 121h252v-121h-445v101l233 278h-218v121h412v-101z" />
  </font>
</defs>
</svg>
