<?xml version="1.0" standalone="no"?>
<!DOCTYPE svg PUBLIC "-//W3C//DTD SVG 1.1//EN" "http://www.w3.org/Graphics/SVG/1.1/DTD/svg11.dtd" >
<svg xmlns="http://www.w3.org/2000/svg" xmlns:xlink="http://www.w3.org/1999/xlink" version="1.1">
<metadata>
Created by FontForge 20170731 at Thu Oct 31 17:57:16 2019
 By Aleksey,,,
Copyright (c) 2019 by Lewis MacDonald. All rights reserved.
</metadata>
<defs>
<font id="SpoofTrial-Regular" horiz-adv-x="647" >
  <font-face 
    font-family="Spoof Trial Thin"
    font-weight="400"
    font-stretch="normal"
    units-per-em="1000"
    panose-1="0 0 5 0 0 0 0 0 0 0"
    ascent="800"
    descent="-200"
    x-height="500"
    cap-height="700"
    bbox="23 -270 845 742"
    underline-thickness="79"
    underline-position="-256"
    unicode-range="U+0020-007A"
  />
<missing-glyph horiz-adv-x="657" 
d="M537 700h40v-700h-96h-305h-96v700h42h415zM176 89h305v522h-305v-522z" />
    <glyph glyph-name=".notdef" horiz-adv-x="657" 
d="M537 700h40v-700h-96h-305h-96v700h42h415zM176 89h305v522h-305v-522z" />
    <glyph glyph-name=".null" horiz-adv-x="0" 
 />
    <glyph glyph-name="nonmarkingreturn" horiz-adv-x="333" 
 />
    <glyph glyph-name="space" unicode=" " horiz-adv-x="255" 
 />
    <glyph glyph-name="exclam" unicode="!" horiz-adv-x="315" 
d="M114 229l-6 471h99l-6 -471h-87zM157.5 -10q-33.5 0 -55.5 20t-22 51t22 51t55.5 20t55.5 -20t22 -51t-22 -51t-55.5 -20z" />
    <glyph glyph-name="comma" unicode="," horiz-adv-x="329" 
d="M163 132q41 0 65 -26.5t24 -75.5q0 -71 -44 -105.5t-125 -25.5v50q101 -10 110 61q-17 -14 -43 -14q-29 0 -47.5 18.5t-18.5 46.5q0 31 22 51t57 20z" />
    <glyph glyph-name="hyphen" unicode="-" horiz-adv-x="460" 
d="M47 324l366 -1v-86h-366v87z" />
    <glyph glyph-name="period" unicode="." horiz-adv-x="308" 
d="M154 -10q-33 0 -55.5 20t-22.5 51t22.5 51t55.5 20t55.5 -20t22.5 -51q0 -20 -10 -36.5t-28 -25.5t-40 -9z" />
    <glyph glyph-name="zero" unicode="0" horiz-adv-x="852" 
d="M426 710q104 0 189 -47t133 -129.5t48 -183.5q0 -154 -106 -257t-264 -103t-264 103t-106 257t106 257t264 103zM150 350q0 -94 52 -164l388 388q-71 49 -164 49q-119 0 -197.5 -77.5t-78.5 -195.5zM426 77q119 0 197 77.5t78 195.5q0 94 -51 164l-388 -388
q71 -49 164 -49z" />
    <glyph glyph-name="one" unicode="1" horiz-adv-x="390" 
d="M213 0v522h-160v80l84 3q38 1 56.5 19.5t22.5 57.5l1 18h90v-700h-94z" />
    <glyph glyph-name="two" unicode="2" horiz-adv-x="654" 
d="M195 88h399v-88h-535v72l245 196q-94 2 -157.5 63.5t-63.5 155.5q0 97 68 160t172.5 63t172 -62.5t67.5 -157.5q0 -70 -40.5 -124.5t-123.5 -114.5zM176 483q0 -63 42 -104t106 -41q32 0 59.5 11t47 30t30.5 46t11 57q0 41 -19 74t-53 51.5t-76 18.5t-76 -18.5t-53 -51
t-19 -73.5z" />
    <glyph glyph-name="three" unicode="3" horiz-adv-x="665" 
d="M363 467q109 0 177 -64.5t68 -168.5q0 -71 -34 -126.5t-96.5 -86.5t-142.5 -31q-126 0 -203.5 75t-75.5 198h99q0 -85 50.5 -135.5t132.5 -50.5q77 0 124 43.5t47 114.5q0 48 -21.5 84.5t-61 56.5t-90.5 20q-56 0 -100 -21l-39 68q79 57 246 175q-65 -3 -201 -3h-159v85
h473v-85l-212 -149q9 1 19 1z" />
    <glyph glyph-name="four" unicode="4" horiz-adv-x="693" 
d="M649 418v-80h-206v-338h-96v338h-284v362h95v-282h190v232h95v-232h206z" />
    <glyph glyph-name="five" unicode="5" horiz-adv-x="667" 
d="M357 483q108 0 179 -67.5t71 -176.5q0 -111 -75 -180t-197 -69q-124 0 -201 72.5t-76 190.5h98q2 -80 51.5 -128.5t129.5 -48.5q77 0 124 44.5t47 116.5q0 73 -48.5 118t-123.5 45q-86 0 -139 -62h-93l11 362h438v-85h-357l-7 -190q64 58 168 58z" />
    <glyph glyph-name="six" unicode="6" horiz-adv-x="659" 
d="M349 486q107 0 178.5 -69.5t71.5 -175.5q0 -109 -76 -180t-195 -71q-118 0 -193.5 70.5t-75.5 178.5q0 38 9 71.5t27.5 64.5t31 47.5t34.5 43.5l196 234h112l-200 -229q33 15 80 15zM329 77q75 0 123 46t48 119t-48 119.5t-123 46.5q-38 0 -69.5 -12.5t-54 -34t-35 -52.5
t-12.5 -67q0 -48 21.5 -85.5t60.5 -58.5t89 -21z" />
    <glyph glyph-name="seven" unicode="7" horiz-adv-x="570" 
d="M512 700v-82l-250 -618h-104l254 611h-356v89h456z" />
    <glyph glyph-name="eight" unicode="8" horiz-adv-x="644" 
d="M438 376q71 -18 111 -65.5t40 -114.5q0 -92 -74 -149t-193 -57t-193 57t-74 149q0 67 40 114t110 66v2q-54 18 -84 57t-30 94q0 80 64 130.5t167 50.5t167 -51t64 -130q0 -55 -30.5 -94t-84.5 -57v-2zM322.5 628q-59.5 0 -96.5 -29t-37 -76.5t37 -76.5t96.5 -29t96 29
t36.5 76t-36.5 76.5t-96 29.5zM322 72q75 0 120.5 37t45.5 95q0 59 -46 95.5t-120 36.5q-48 0 -86 -16.5t-59 -46t-21 -69.5q0 -59 46 -95.5t120 -36.5z" />
    <glyph glyph-name="nine" unicode="9" horiz-adv-x="659" 
d="M330 710q118 0 193.5 -70.5t75.5 -178.5q0 -38 -9 -71.5t-27.5 -64.5t-30.5 -47.5t-35 -43.5l-195 -234h-113l201 229q-33 -15 -80 -15q-108 0 -179.5 69.5t-71.5 175.5q0 109 76.5 180t194.5 71zM330 292q50 0 89 21t60.5 59t21.5 86t-22 85.5t-60.5 58.5t-88.5 21
q-75 0 -123.5 -46t-48.5 -119t48.5 -119.5t123.5 -46.5z" />
    <glyph glyph-name="question" unicode="?" horiz-adv-x="555" 
d="M273 211q-86 0 -137.5 41t-51.5 110q0 103 128 121l113 15q73 9 73 63q0 36 -30.5 58t-79.5 22q-55 0 -90 -27.5t-40 -72.5h-85q1 51 28 89t75 59t110 21q58 0 102.5 -19t68.5 -54t24 -82q0 -105 -132 -123l-110 -14q-72 -10 -72 -62q0 -34 29 -55t75 -21q49 0 81.5 23
t38.5 63h85q-4 -70 -59.5 -112.5t-143.5 -42.5zM277.5 -10q-33.5 0 -55.5 20.5t-22 50.5q0 31 22 51.5t55.5 20.5t55.5 -20.5t22 -51.5q0 -30 -22 -50.5t-55.5 -20.5z" />
    <glyph glyph-name="A" unicode="A" horiz-adv-x="752" 
d="M625 0l-107 265h-285l-108 -265h-102l292 700h122l291 -700h-103zM338 528l-74 -181h222l-73 181q-23 57 -35 91h-5q-12 -32 -35 -91z" />
    <glyph glyph-name="B" unicode="B" horiz-adv-x="593" 
d="M430 364q37 -14 63 -39t39.5 -59t13.5 -75q0 -86 -57 -138.5t-152 -52.5h-258v700h258q90 0 144 -49t54 -129q0 -28 -7.5 -53t-20.5 -45t-32.5 -35t-44.5 -25zM321 618h-148v-216h148q54 0 85.5 29.5t31.5 78.5q0 32 -14 56.5t-40.5 38t-62.5 13.5zM319 82q59 0 94.5 34
t35.5 89.5t-35.5 88.5t-94.5 33h-146v-245h146z" />
    <glyph glyph-name="C" unicode="C" horiz-adv-x="855" 
d="M435 -10q-164 0 -270.5 103t-106.5 259t105.5 257t267.5 101q79 0 147 -26t116.5 -75t69.5 -115h-106q-29 60 -90 93.5t-139 33.5q-79 0 -141 -34.5t-96 -95.5t-34 -138q0 -119 78 -196.5t198 -77.5q123 0 198.5 80.5t66.5 205.5h100q9 -105 -35.5 -191t-131 -135
t-197.5 -49z" />
    <glyph glyph-name="D" unicode="D" horiz-adv-x="678" 
d="M261 700q79 0 146 -25.5t114 -71.5t73.5 -111t26.5 -142q0 -156 -100 -253t-260 -97h-181v700h181zM261 88q115 0 187 73t72 189t-72 189t-187 73h-85v-524h85z" />
    <glyph glyph-name="E" unicode="E" horiz-adv-x="502" 
d="M439 616h-266v-207h263v-84h-263v-241h266v-84h-360v700h360v-84z" />
    <glyph glyph-name="F" unicode="F" horiz-adv-x="494" 
d="M437 611h-262v-210h254v-89h-254v-312h-95v700h357v-89z" />
    <glyph glyph-name="G" unicode="G" horiz-adv-x="850" 
d="M795 408q14 -184 -89 -301t-277 -117q-161 0 -266 101.5t-105 259t105 258.5t265 101q119 0 210 -57.5t124 -151.5h-106q-19 36 -52.5 63t-79 42.5t-96.5 15.5q-119 0 -195 -75.5t-76 -195.5t76 -196.5t197 -76.5q112 0 184.5 67.5t83.5 181.5h-246v81h343z" />
    <glyph glyph-name="H" unicode="H" horiz-adv-x="657" 
d="M481 700h96v-700h-96v326h-305v-326h-96v700h96v-284h305v284z" />
    <glyph glyph-name="I" unicode="I" horiz-adv-x="256" 
d="M80 0v700h96v-700h-96z" />
    <glyph glyph-name="J" unicode="J" horiz-adv-x="546" 
d="M264 -10q-97 0 -152.5 59.5t-55.5 165.5q0 41 6 100h97q-6 -53 -6 -97q0 -65 29.5 -101t82.5 -36q50 0 80 33.5t30 90.5v495h96v-493q0 -100 -55.5 -158.5t-151.5 -58.5z" />
    <glyph glyph-name="K" unicode="K" horiz-adv-x="598" 
d="M433 0l-256 318h-1v-318h-96v700h96v-320h1l256 320h117l-286 -346l292 -354h-123z" />
    <glyph glyph-name="L" unicode="L" horiz-adv-x="464" 
d="M176 89h255v-89h-351v700h96v-611z" />
    <glyph glyph-name="M" unicode="M" horiz-adv-x="806" 
d="M80 0v700h149l172 -524h4l172 524h149v-700h-93v592l-4 1l-183 -533h-86l-183 533l-4 -1v-592h-93z" />
    <glyph glyph-name="N" unicode="N" horiz-adv-x="672" 
d="M80 0v700h103l316 -558h3v558h90v-700h-104l-315 558h-3v-558h-90z" />
    <glyph glyph-name="O" unicode="O" horiz-adv-x="852" 
d="M426 -10q-158 0 -264 103t-106 257t106 257t264 103q104 0 189 -47t133 -129.5t48 -183.5q0 -154 -106 -257t-264 -103zM426 79q77 0 138.5 35t96.5 97t35 139q0 117 -77 194t-193.5 77t-193 -77t-76.5 -194t76.5 -194t193.5 -77z" />
    <glyph glyph-name="P" unicode="P" horiz-adv-x="594" 
d="M540 493q0 -61 -27.5 -108.5t-78 -73.5t-115.5 -26h-143v-285h-96v700h239q98 0 159 -57.5t62 -149.5zM311 371q38 0 67.5 15t45 42.5t15.5 64.5q0 54 -35 87.5t-93 33.5h-135v-243h135z" />
    <glyph glyph-name="Q" unicode="Q" horiz-adv-x="855" 
d="M835 1l-60 -60l-121 121q-98 -72 -228 -72q-158 0 -264 103t-106 257t106 257t264 103q104 0 189 -47t133 -129.5t48 -183.5q0 -132 -80 -229zM701 350q0 118 -78 195.5t-197 77.5q-93 0 -163 -49l387 -388q51 71 51 164zM150 350q0 -118 78.5 -195.5t197.5 -77.5
q93 0 164 49l-388 388q-52 -70 -52 -164z" />
    <glyph glyph-name="R" unicode="R" horiz-adv-x="645" 
d="M513 0l-272 317h-67v-317h-94v700h270q92 0 148 -52.5t56 -138.5q1 -56 -23.5 -99.5t-69 -67.5t-103.5 -24l281 -318h-126zM174 617v-227h161q37 0 65 14t43 40t15 60t-15 59.5t-43 39.5t-65 14h-161z" />
    <glyph glyph-name="S" unicode="S" horiz-adv-x="681" 
d="M358 -10q-146 0 -230.5 82.5t-78.5 213.5h107q-7 -96 49 -153.5t155 -57.5q79 0 126 38t47 102q0 36 -15 60.5t-42 38t-69 20.5l-115 17q-185 28 -185 171q0 57 28 99.5t79.5 65.5t120.5 23q102 0 166.5 -49t73.5 -133h-102q-9 48 -46.5 75t-94.5 27t-92.5 -27t-35.5 -73
q0 -40 28.5 -62t85.5 -31l111 -16q204 -30 204 -199q0 -106 -74.5 -169t-200.5 -63z" />
    <glyph glyph-name="T" unicode="T" horiz-adv-x="558" 
d="M506 700v-89h-179v-611h-96v611h-179v89h454z" />
    <glyph glyph-name="U" unicode="U" horiz-adv-x="641" 
d="M321 -10q-114 0 -181 69.5t-67 189.5v451h99v-450q0 -78 40 -123.5t110 -45.5q69 0 109.5 45.5t40.5 123.5v450h96v-451q0 -119 -66.5 -189t-180.5 -70z" />
    <glyph glyph-name="V" unicode="V" horiz-adv-x="683" 
d="M539 700h103l-245 -700h-111l-246 700h104l196 -585h4z" />
    <glyph glyph-name="W" unicode="W" horiz-adv-x="890" 
d="M202 0l-157 700h100l118 -589h3l124 569h111l124 -569h3l119 589h98l-158 -700h-113l-128 572h-3l-126 -572h-115z" />
    <glyph glyph-name="X" unicode="X" horiz-adv-x="678" 
d="M653 0h-116l-199 294l-200 -294h-113l261 370l-233 330h116l171 -252l171 252h112l-231 -328z" />
    <glyph glyph-name="Y" unicode="Y" horiz-adv-x="640" 
d="M272 0v273l-241 427h110l178 -328h3l178 328h109l-241 -427v-273h-96z" />
    <glyph glyph-name="Z" unicode="Z" horiz-adv-x="597" 
d="M171 87h371v-87h-485v71l348 542h-338v87h453v-71z" />
    <glyph glyph-name="a" unicode="a" 
d="M489 500h92v-500h-92v103h-2q-26 -53 -77 -83t-116 -30q-107 0 -178.5 74t-71.5 185.5t71.5 186t178.5 74.5q43 0 80.5 -13.5t66.5 -39t46 -60.5h2v103zM317 72q77 0 127 50.5t50 127.5t-50.5 127.5t-127.5 50.5q-76 0 -126.5 -50.5t-50.5 -127.5t50.5 -127.5
t127.5 -50.5z" />
    <glyph glyph-name="b" unicode="b" horiz-adv-x="658" 
d="M364 510q107 0 178.5 -74.5t71.5 -186t-71.5 -185.5t-178.5 -74q-65 0 -115.5 30t-77.5 83h-2v-103h-92v720h92v-323h2q26 53 77.5 83t115.5 30zM341 72q77 0 127.5 50.5t50.5 127.5q0 50 -23 91t-63.5 64t-90.5 23q-77 0 -127.5 -50.5t-50.5 -127.5t50 -127.5t127 -50.5
z" />
    <glyph glyph-name="c" unicode="c" horiz-adv-x="618" 
d="M315 -10q-120 0 -195.5 73.5t-75.5 187t75.5 186.5t193.5 73q90 0 156.5 -44.5t89.5 -121.5h-100q-19 39 -58.5 61.5t-88.5 22.5q-75 0 -124 -50t-49 -128t48.5 -128t127 -50t125 50.5t39.5 130.5h97q7 -117 -67 -190t-194 -73z" />
    <glyph glyph-name="d" unicode="d" horiz-adv-x="658" 
d="M489 720h92v-720h-92v103h-2q-26 -53 -77 -83t-116 -30q-70 0 -127.5 33.5t-90 93t-32.5 133.5q0 111 71.5 185.5t178.5 74.5q64 0 115.5 -30t77.5 -83h2v323zM317 72q50 0 90 22.5t63 62.5t24 90v6q-1 76 -51 125.5t-127 49.5q-76 0 -126.5 -50.5t-50.5 -127.5
t50.5 -127.5t127.5 -50.5z" />
    <glyph glyph-name="e" unicode="e" horiz-adv-x="607" 
d="M471 206h94q-4 -95 -75.5 -155.5t-177.5 -60.5q-117 0 -192.5 74.5t-75.5 188.5q0 113 74.5 185t189.5 72q113 0 182 -68.5t66 -181.5h-421v-4q0 -41 12.5 -75.5t35.5 -58.5t55.5 -37.5t71.5 -13.5q68 0 113 38t48 97zM307 436q-59 0 -100.5 -27.5t-59.5 -77.5h311
q-9 34 -30 57.5t-51.5 35.5t-69.5 12z" />
    <glyph glyph-name="f" unicode="f" horiz-adv-x="419" 
d="M327 647q-55 0 -78 -26t-23 -73v-48h168v-79h-168v-421h-91v421h-95v79h95v55q0 83 47 129t131 46q42 0 81 -10v-82q-34 9 -67 9z" />
    <glyph glyph-name="g" unicode="g" horiz-adv-x="663" 
d="M505 500h93v-517q0 -113 -78 -183t-205 -70t-207.5 71t-78.5 185h91q-2 -78 52.5 -127t142.5 -49q87 0 139.5 47.5t52.5 124.5v134q-25 -53 -77.5 -84.5t-120.5 -31.5q-106 0 -177.5 72.5t-71.5 182.5q0 72 32.5 130.5t89.5 91.5t127 33q67 0 119 -30.5t77 -82.5v103z
M333 82q51 0 91.5 22.5t63 62t22.5 88.5q0 75 -50 124t-127 49q-38 0 -71 -13t-56 -36t-36.5 -55t-13.5 -69q0 -75 50.5 -124t126.5 -49z" />
    <glyph glyph-name="h" unicode="h" horiz-adv-x="600" 
d="M349 510q90 0 142 -54.5t52 -150.5v-305h-93v288q0 66 -35 103t-97 37q-65 0 -105 -41t-44 -113v-274h-92v500v220h92v-320h1q22 53 68.5 81.5t110.5 28.5z" />
    <glyph glyph-name="i" unicode="i" horiz-adv-x="255" 
d="M127.5 600q-33.5 0 -55.5 20t-22 51t22 51t55 20q22 0 40 -9t28 -25.5t10 -36.5q0 -31 -22 -51t-55.5 -20zM81 0v500h93v-500h-93z" />
    <glyph glyph-name="j" unicode="j" horiz-adv-x="261" 
d="M130.5 600q-33.5 0 -55.5 20t-22 51t22 51t55 20q22 0 40 -9t28 -25.5t10 -36.5q0 -31 -22 -51t-55.5 -20zM84 -242v742h92v-742h-92z" />
    <glyph glyph-name="k" unicode="k" horiz-adv-x="519" 
d="M77 0v720h92v-449l1 -1l202 230h114l-224 -248l234 -252h-118l-208 232h-1v-232h-92z" />
    <glyph glyph-name="l" unicode="l" horiz-adv-x="246" 
d="M77 0v720h92v-720h-92z" />
    <glyph glyph-name="m" unicode="m" horiz-adv-x="858" 
d="M627 510q79 0 126 -52.5t47 -142.5v-315h-93v301q0 59 -28.5 93t-79.5 34q-55 0 -87.5 -39.5t-32.5 -106.5v-282h-93v301q0 59 -29 93t-79 34q-36 0 -63.5 -18t-42 -52t-14.5 -80v-278h-92v500h92v-92q22 49 62 75.5t93 26.5q54 0 93 -27.5t58 -76.5q23 50 64.5 77
t98.5 27z" />
    <glyph glyph-name="n" unicode="n" horiz-adv-x="589" 
d="M338 510q90 0 141.5 -54.5t51.5 -150.5v-305h-93v288q0 66 -34.5 103t-96.5 37q-69 0 -109 -45t-40 -124v-259h-93v500h93v-100q15 35 40.5 59.5t61 37.5t78.5 13z" />
    <glyph glyph-name="o" unicode="o" horiz-adv-x="629" 
d="M314.5 -10q-117.5 0 -194 73.5t-76.5 186.5t76.5 186.5t194 73.5t194 -73.5t76.5 -186.5t-76.5 -186.5t-194 -73.5zM314.5 72q76.5 0 127 50.5t50.5 127.5t-50.5 127.5t-127 50.5t-126.5 -50.5t-50 -127.5t50 -127.5t126.5 -50.5z" />
    <glyph glyph-name="p" unicode="p" 
d="M352 510q108 0 179.5 -74.5t71.5 -186t-72 -185.5t-179 -74q-64 0 -115 30t-77 83h-2v-363h-93v760h93v-103h2q26 53 77 83t115 30zM330 72q76 0 126.5 50.5t50.5 127.5q0 50 -22.5 91t-63 64t-91.5 23q-77 0 -127 -50.5t-50 -127.5t50 -127.5t127 -50.5z" />
    <glyph glyph-name="q" unicode="q" 
d="M489 500h92v-760h-92v363h-2q-26 -53 -77 -83t-116 -30q-107 0 -178.5 74t-71.5 185.5t71.5 186t178.5 74.5q64 0 115.5 -30t77.5 -83h2v103zM317 72q77 0 127 50.5t50 127.5t-50.5 127.5t-127.5 50.5q-76 0 -126.5 -50.5t-50.5 -127.5t50.5 -127.5t127.5 -50.5z" />
    <glyph glyph-name="r" unicode="r" horiz-adv-x="381" 
d="M327 510h13v-92h-16q-82 0 -124 -55t-42 -151v-212h-93v500h89v-135q39 145 173 145z" />
    <glyph glyph-name="s" unicode="s" horiz-adv-x="543" 
d="M284 -10q-109 0 -177.5 59t-67.5 155h95q-2 -61 40 -99t112 -38q55 0 89 24t34 64q0 55 -75 66l-114 15q-139 19 -139 126q0 66 52.5 107t138.5 41q56 0 98.5 -16t67 -46t29.5 -73h-94q-8 29 -35 45t-67 16q-44 0 -71.5 -19t-27.5 -50q0 -49 72 -59l114 -15
q64 -9 104 -40.5t40 -92.5q0 -76 -60 -123t-158 -47z" />
    <glyph glyph-name="t" unicode="t" horiz-adv-x="390" 
d="M134 0v421h-94v71l31 2q35 1 52 19.5t19 57.5l4 71h80v-142h124v-79h-124v-421h-92z" />
    <glyph glyph-name="u" unicode="u" horiz-adv-x="589" 
d="M431 500h93v-500h-93v100q-22 -53 -68.5 -81.5t-111.5 -28.5q-90 0 -141.5 54.5t-51.5 150.5v305h93v-288q0 -66 34.5 -103t96.5 -37q69 0 109 45t40 124v259z" />
    <glyph glyph-name="v" unicode="v" horiz-adv-x="576" 
d="M236 0l-197 500h99l148 -408h4l148 408h99l-197 -500h-104z" />
    <glyph glyph-name="w" unicode="w" horiz-adv-x="867" 
d="M209 0l-170 500h97l122 -397h4l121 397h100l122 -398h4l123 398h96l-170 -500h-96l-127 410h-4l-126 -410h-96z" />
    <glyph glyph-name="x" unicode="x" horiz-adv-x="573" 
d="M538 0h-113l-140 193l-140 -193h-111l203 258l-190 242h111l129 -176l127 176h110l-188 -240z" />
    <glyph glyph-name="y" unicode="y" horiz-adv-x="637" 
d="M479 500h92v-523q0 -113 -72.5 -180t-194.5 -67q-123 0 -196.5 67.5t-73.5 179.5h91q-1 -51 20 -88.5t62 -58t96 -20.5q83 0 130.5 45t47.5 121v133l-1 1q-21 -52 -67.5 -80t-112.5 -28q-91 0 -143 54t-52 151v293h94v-277q0 -66 34.5 -102.5t96.5 -36.5q68 0 108.5 44.5
t40.5 120.5v251z" />
    <glyph glyph-name="z" unicode="z" horiz-adv-x="488" 
d="M155 76h288v-76h-398v67l274 357h-261v76h371v-67z" />
  </font>
</defs>
</svg>
