<?xml version="1.0" standalone="no"?>
<!DOCTYPE svg PUBLIC "-//W3C//DTD SVG 1.1//EN" "http://www.w3.org/Graphics/SVG/1.1/DTD/svg11.dtd" >
<svg xmlns="http://www.w3.org/2000/svg" xmlns:xlink="http://www.w3.org/1999/xlink" version="1.1">
<metadata>
Created by FontForge 20170731 at Thu Oct 31 17:57:15 2019
 By Aleksey,,,
Copyright (c) 2019 by Lewis MacDonald. All rights reserved.
</metadata>
<defs>
<font id="SpoofTrial-Thin" horiz-adv-x="635" >
  <font-face 
    font-family="Spoof Trial Thin"
    font-weight="100"
    font-stretch="normal"
    units-per-em="1000"
    panose-1="0 0 2 0 0 0 0 0 0 0"
    ascent="800"
    descent="-200"
    x-height="500"
    cap-height="700"
    bbox="30 -270 823 730"
    underline-thickness="46"
    underline-position="-192"
    unicode-range="U+0020-007A"
  />
<missing-glyph horiz-adv-x="610" 
d="M487 700h35v-700h-50h-334h-50v700h37h362zM138 50h334v600h-334v-600z" />
    <glyph glyph-name=".notdef" horiz-adv-x="610" 
d="M487 700h35v-700h-50h-334h-50v700h37h362zM138 50h334v600h-334v-600z" />
    <glyph glyph-name=".null" horiz-adv-x="0" 
 />
    <glyph glyph-name="nonmarkingreturn" horiz-adv-x="333" 
 />
    <glyph glyph-name="space" unicode=" " horiz-adv-x="225" 
 />
    <glyph glyph-name="exclam" unicode="!" horiz-adv-x="283" 
d="M120 208l-4 492h50l-3 -492h-43zM141.5 -10q-23.5 0 -38.5 14.5t-15 36.5q0 23 15 37.5t38.5 14.5t38.5 -14.5t15 -37.5q0 -22 -15 -36.5t-38.5 -14.5z" />
    <glyph glyph-name="comma" unicode="," horiz-adv-x="307" 
d="M152 93q32 0 49.5 -20t17.5 -57q0 -58 -33 -84.5t-97 -20.5v39q84 -8 87 55q-12 -11 -32 -11q-13 0 -24 6.5t-17 17t-6 24.5q0 22 15.5 36.5t39.5 14.5z" />
    <glyph glyph-name="hyphen" unicode="-" horiz-adv-x="462" 
d="M52 306l358 -2v-48h-358v50z" />
    <glyph glyph-name="period" unicode="." horiz-adv-x="279" 
d="M139.5 -10q-23.5 0 -38.5 14.5t-15 36.5q0 23 15 37.5t38.5 14.5t38.5 -14.5t15 -37.5q0 -22 -15 -36.5t-38.5 -14.5z" />
    <glyph glyph-name="zero" unicode="0" horiz-adv-x="855" 
d="M427.5 710q155.5 0 259 -103t103.5 -257t-103.5 -257t-259 -103t-259 103t-103.5 257t103.5 257t259 103zM428 660q-88 0 -159.5 -40.5t-112 -111.5t-40.5 -158q0 -119 73 -204l443 442q-86 72 -204 72zM427 40q134 0 223 88.5t89 221.5q0 119 -73 204l-443 -442
q86 -72 204 -72z" />
    <glyph glyph-name="one" unicode="1" horiz-adv-x="356" 
d="M213 0v566h-153v48l85 2q64 1 71 70l2 14h45v-700h-50z" />
    <glyph glyph-name="two" unicode="2" horiz-adv-x="643" 
d="M142 50h435v-50h-511v46l277 226q-14 -2 -28 -2q-95 0 -160 63.5t-65 158.5q0 61 29.5 111t81.5 78.5t116.5 28.5t117 -28t82 -78t29.5 -111q0 -59 -25.5 -106.5t-82.5 -93.5zM140 491q0 -74 51 -123.5t127 -49.5t126.5 49.5t50.5 122.5t-50 121.5t-127 48.5
q-76 0 -127 -48t-51 -121z" />
    <glyph glyph-name="three" unicode="3" horiz-adv-x="663" 
d="M348 467q110 0 178.5 -65.5t68.5 -170.5q0 -70 -32 -125t-91 -85.5t-135 -30.5q-121 0 -195.5 73.5t-74.5 196.5h51q0 -99 61 -159.5t159 -60.5q92 0 149 52.5t57 138t-57 138t-149 52.5q-61 0 -110 -22l-28 40l269 213q-65 -2 -174 -2h-206v50h455v-44l-250 -194
q26 5 54 5z" />
    <glyph glyph-name="four" unicode="4" horiz-adv-x="668" 
d="M618 408v-48h-220v-360h-50v360h-276v340h50v-292h226v242h50v-242h220z" />
    <glyph glyph-name="five" unicode="5" horiz-adv-x="662" 
d="M345 480q69 0 125.5 -29.5t90 -86t33.5 -129.5q0 -109 -72 -177t-188 -68q-121 0 -195 73t-74 193h51q0 -97 60.5 -156.5t159.5 -59.5q92 0 149.5 54t57.5 140q0 87 -59.5 142t-150.5 55q-101 0 -167 -74h-48l11 343h407v-49h-360l-9 -233q68 62 178 62z" />
    <glyph glyph-name="six" unicode="6" horiz-adv-x="644" 
d="M324 479q107 0 179.5 -70t72.5 -175t-73 -174.5t-183 -69.5t-181 70t-71 175q0 35 7.5 65.5t24 58.5t28 43.5t33.5 41.5l211 256h62l-205 -242q39 21 95 21zM321 40q88 0 146 54.5t58 140t-57.5 141t-146 55.5t-145.5 -56t-57 -140q0 -42 15 -78.5t41.5 -62t64.5 -40
t81 -14.5z" />
    <glyph glyph-name="seven" unicode="7" horiz-adv-x="547" 
d="M482 700v-48l-250 -652h-53l249 650h-365v50h419z" />
    <glyph glyph-name="eight" unicode="8" 
d="M420 385q69 -20 109 -69t40 -118q0 -93 -70 -150.5t-181 -57.5q-112 0 -182 58t-70 150q0 69 40 117.5t109 69.5q-50 19 -78 57.5t-28 91.5q0 78 58 127t150 49q94 0 151.5 -49.5t57.5 -127.5q0 -52 -28 -90.5t-78 -57.5zM160 534q0 -56 44 -91t114 -35t114 35t44 91
t-44 91.5t-114 35.5t-114 -35.5t-44 -91.5zM318 39q90 0 145.5 45t55.5 116t-56 115t-145 44t-145 -44t-56 -115t55.5 -116t145.5 -45z" />
    <glyph glyph-name="nine" unicode="9" horiz-adv-x="644" 
d="M324 710q110 0 180.5 -70t70.5 -175q0 -35 -7.5 -65.5t-23.5 -58.5t-28 -43.5t-33 -41.5l-212 -256h-61l205 242q-39 -21 -95 -21q-108 0 -180 70t-72 175q0 69 33 125t91.5 87.5t131.5 31.5zM322.5 269q88.5 0 145.5 56t57 140.5t-57 139.5t-145.5 55t-146.5 -54.5
t-58 -140t58 -141t146.5 -55.5z" />
    <glyph glyph-name="question" unicode="?" horiz-adv-x="565" 
d="M276 190q-80 0 -130 40.5t-50 108.5q0 105 128 123l112 17q92 13 92 81q0 46 -37.5 74t-98.5 28q-66 0 -108.5 -34.5t-47.5 -91.5h-50q2 78 59 126t147 48q83 0 134.5 -42t51.5 -112q0 -107 -129 -126l-112 -16q-91 -13 -91 -78q0 -44 36 -71t94 -27q60 0 100 29.5
t46 79.5h50q-2 -47 -27.5 -83t-69 -55t-99.5 -19zM281 -10q-15 0 -27.5 6.5t-19 18t-6.5 26.5t6.5 27t19 18.5t27.5 6.5q23 0 38 -14.5t15 -37.5q0 -22 -15 -36.5t-38 -14.5z" />
    <glyph glyph-name="A" unicode="A" horiz-adv-x="701" 
d="M618 0l-122 294h-291l-122 -294h-53l294 700h54l293 -700h-53zM349 644q-8 -20 -28 -68l-96 -233h250l-97 233q-14 34 -27 68h-2z" />
    <glyph glyph-name="B" unicode="B" horiz-adv-x="555" 
d="M391 369q55 -22 84.5 -67.5t29.5 -107.5q0 -86 -56 -140t-147 -54h-214v700h218q56 0 98.5 -22t65.5 -62t23 -92q0 -21 -4.5 -41t-12.5 -37t-20.5 -31.5t-28.5 -26t-36 -19.5zM305 650h-167v-256h167q62 0 99.5 35.5t37.5 92.5t-37.5 92.5t-99.5 35.5zM301 49
q69 0 111 41.5t42 107.5t-42.5 106.5t-111.5 40.5h-162v-296h163z" />
    <glyph glyph-name="C" unicode="C" horiz-adv-x="859" 
d="M436 -10q-160 0 -265 103.5t-105 260.5q0 155 102.5 255.5t262.5 100.5q77 0 143 -24.5t113.5 -72t68.5 -111.5h-54q-31 74 -105 116t-167 42q-137 0 -225 -86.5t-88 -219.5q0 -135 90.5 -224.5t229.5 -89.5q140 0 228.5 90t78.5 230h52q7 -103 -37 -187.5t-129.5 -133.5
t-193.5 -49z" />
    <glyph glyph-name="D" unicode="D" horiz-adv-x="645" 
d="M230 700q155 0 252 -97t97 -253t-97 -253t-252 -97h-142v700h142zM230 50q132 0 215 83.5t83 216.5q0 66 -22 122t-61 95t-94.5 61t-120.5 22h-92v-600h92z" />
    <glyph glyph-name="E" unicode="E" horiz-adv-x="470" 
d="M403 650h-265v-254h264v-49h-264v-297h265v-50h-315v700h315v-50z" />
    <glyph glyph-name="F" unicode="F" horiz-adv-x="465" 
d="M403 650h-265v-257h258v-49h-258v-344h-50v700h315v-50z" />
    <glyph glyph-name="G" unicode="G" horiz-adv-x="852" 
d="M790 400q6 -89 -18.5 -166t-72.5 -130t-117.5 -83.5t-151.5 -30.5q-157 0 -260.5 102.5t-103.5 260.5q0 156 102.5 256.5t259.5 100.5q116 0 204.5 -56t122.5 -144h-55q-33 67 -106 108.5t-165 41.5q-136 0 -224 -86t-88 -221t88.5 -224t224.5 -89q132 0 217.5 85.5
t91.5 224.5h-273v50h324z" />
    <glyph glyph-name="H" unicode="H" horiz-adv-x="610" 
d="M472 700h50v-700h-50v342h-334v-342h-50v700h50v-308h334v308z" />
    <glyph glyph-name="I" unicode="I" horiz-adv-x="226" 
d="M88 0v700h50v-700h-50z" />
    <glyph glyph-name="J" unicode="J" horiz-adv-x="510" 
d="M246 -10q-84 0 -133 56t-49 152q0 43 4 98h52q-4 -56 -4 -98q0 -73 34.5 -115.5t95.5 -42.5q60 0 95 41t35 111v508h50v-507q0 -94 -48.5 -148.5t-131.5 -54.5z" />
    <glyph glyph-name="K" unicode="K" horiz-adv-x="538" 
d="M422 0l-283 330l-1 -1v-329h-50v700h50v-331l1 -1l281 332h64l-297 -348l303 -352h-68z" />
    <glyph glyph-name="L" unicode="L" horiz-adv-x="427" 
d="M138 50h255v-50h-305v700h50v-650z" />
    <glyph glyph-name="M" unicode="M" horiz-adv-x="743" 
d="M88 0v700h82l200 -562h4l199 562h82v-700h-50v631l-3 1l-207 -572h-47l-207 572l-3 -1v-631h-50z" />
    <glyph glyph-name="N" unicode="N" horiz-adv-x="622" 
d="M88 0v700h68l325 -625l3 1v624h50v-700h-68l-325 625l-3 -1v-624h-50z" />
    <glyph glyph-name="O" unicode="O" horiz-adv-x="855" 
d="M427.5 -10q-155.5 0 -259 103t-103.5 257t103.5 257t259 103t259 -103t103.5 -257t-103.5 -257t-259 -103zM427.5 40q133.5 0 222.5 88.5t89 221.5t-89 221.5t-222.5 88.5t-222.5 -88.5t-89 -221.5t89 -221.5t222.5 -88.5z" />
    <glyph glyph-name="P" unicode="P" horiz-adv-x="553" 
d="M490 512q1 -83 -52.5 -135.5t-139.5 -52.5h-160v-324h-50v700h210q85 0 138.5 -52t53.5 -136zM300 374q62 0 101 38.5t39 99.5q0 62 -39 100t-101 38h-162v-276h162z" />
    <glyph glyph-name="Q" unicode="Q" horiz-adv-x="857" 
d="M823 -11l-34 -34l-121 121q-100 -86 -241 -86q-155 0 -258.5 103t-103.5 257q0 101 47 183.5t130 129.5t185 47q156 0 259.5 -103t103.5 -257q0 -140 -88 -240zM739 350q0 133 -89 221.5t-223 88.5q-118 0 -203 -72l442 -442q73 85 73 204zM116 350q0 -133 89 -221.5
t222 -88.5q119 0 205 72l-443 443q-73 -86 -73 -205z" />
    <glyph glyph-name="R" unicode="R" horiz-adv-x="598" 
d="M520 0l-295 344h-87v-344h-50v700h238q83 0 133.5 -49t50.5 -129t-50 -129t-134 -49h-37l297 -344h-66zM138 650v-258h186q61 0 98 36t37 94q0 38 -16.5 67t-47.5 45t-71 16h-186z" />
    <glyph glyph-name="S" unicode="S" horiz-adv-x="653" 
d="M342 -10q-137 0 -216 84t-65 218h53q-14 -113 50.5 -182.5t178.5 -69.5q93 0 147 47t54 123q0 65 -36.5 100.5t-118.5 49.5l-98 16q-90 15 -133.5 55t-43.5 106q0 79 57 126t150 47q91 0 149 -45t67 -123h-52q-9 55 -54 86.5t-111 31.5q-69 0 -111.5 -33t-42.5 -88
q0 -32 14 -54.5t44.5 -37t78.5 -23.5l98 -16q65 -10 108 -34.5t64.5 -64.5t21.5 -95q0 -101 -68.5 -162.5t-184.5 -61.5z" />
    <glyph glyph-name="T" unicode="T" horiz-adv-x="524" 
d="M466 700v-50h-179v-650h-50v650h-179v50h408z" />
    <glyph glyph-name="U" unicode="U" horiz-adv-x="597" 
d="M299 -10q-100 0 -158.5 65t-58.5 177v468h52v-468q0 -88 44 -140t121 -52q76 0 121 51.5t45 140.5v468h50v-468q0 -111 -58 -176.5t-158 -65.5z" />
    <glyph glyph-name="V" unicode="V" horiz-adv-x="639" 
d="M542 700h52l-255 -700h-38l-256 700h53l222 -616h1z" />
    <glyph glyph-name="W" unicode="W" horiz-adv-x="818" 
d="M203 0l-153 700h50l139 -650h2l132 629h72l132 -629h2l139 650h50l-153 -700h-73l-132 630h-2l-132 -630h-73z" />
    <glyph glyph-name="X" unicode="X" horiz-adv-x="624" 
d="M590 0h-60l-219 330l-221 -330h-57l250 371l-221 329h60l190 -286l192 286h56l-220 -327z" />
    <glyph glyph-name="Y" unicode="Y" horiz-adv-x="596" 
d="M273 0v293l-233 407h58l199 -350h3l198 350h58l-233 -407v-293h-50z" />
    <glyph glyph-name="Z" unicode="Z" horiz-adv-x="564" 
d="M121 50h382v-50h-440v46l361 604h-355v50h413v-46z" />
    <glyph glyph-name="a" unicode="a" 
d="M516 500h48v-500h-48v107h-1q-18 -35 -50 -61.5t-73 -41t-86 -14.5q-72 0 -130.5 34t-92 93.5t-33.5 132.5q0 111 73 185.5t183 74.5q68 0 124.5 -32t84.5 -85h1v107zM310 38q91 0 150.5 60.5t59.5 151.5t-59.5 151.5t-150.5 60.5q-90 0 -150 -60.5t-60 -151.5t60 -151.5
t150 -60.5z" />
    <glyph glyph-name="b" unicode="b" horiz-adv-x="647" 
d="M340 510q110 0 183 -74.5t73 -185.5t-73 -185.5t-183 -74.5q-67 0 -123.5 32t-85.5 85v-107h-48v720h48v-327q29 53 85.5 85t123.5 32zM336 38q90 0 150 60.5t60 151.5q0 45 -16 84t-43.5 67.5t-66.5 44.5t-84 16q-44 0 -83 -16t-67 -44t-44 -67.5t-16 -84.5
q0 -60 27 -108.5t75 -76t108 -27.5z" />
    <glyph glyph-name="c" unicode="c" horiz-adv-x="611" 
d="M313 -10q-116 0 -189.5 74t-73.5 186.5t73.5 186t186.5 73.5q82 0 145.5 -41.5t88.5 -112.5h-54q-9 19 -22.5 35.5t-30.5 29.5t-37 22t-43.5 14t-48.5 5q-90 0 -149 -60t-59 -152t59 -152t154 -60q93 0 149 59t49 151h53q5 -114 -66 -186t-185 -72z" />
    <glyph glyph-name="d" unicode="d" horiz-adv-x="647" 
d="M516 720h48v-720h-48v107h-1q-18 -35 -50 -61.5t-73 -41t-86 -14.5q-72 0 -130.5 34t-92 93.5t-33.5 132.5q0 111 73 185.5t183 74.5q68 0 124.5 -32t84.5 -85h1v327zM310 38q91 0 150.5 60.5t59.5 151.5t-59.5 151.5t-150.5 60.5q-90 0 -150 -60.5t-60 -151.5t60 -151.5
t150 -60.5z" />
    <glyph glyph-name="e" unicode="e" horiz-adv-x="599" 
d="M500 206l50 -1q-3 -93 -70.5 -154t-169.5 -61q-112 0 -186 75t-74 189q0 112 72.5 184t182.5 72q106 0 172.5 -67t65.5 -175h-443v-14q0 -96 58 -156t150 -60q83 0 137.5 47.5t54.5 120.5zM305 462q-52 0 -93 -18t-67.5 -50.5t-37.5 -77.5h382q-12 70 -60.5 108
t-123.5 38z" />
    <glyph glyph-name="f" unicode="f" horiz-adv-x="394" 
d="M300 682q-108 0 -108 -112v-70h182v-46h-182v-454h-48v454h-98v46h98v74q0 76 40 116t112 40q38 0 78 -10v-49q-37 11 -74 11z" />
    <glyph glyph-name="g" unicode="g" horiz-adv-x="649" 
d="M530 500h48v-517q0 -113 -74 -183t-194 -70q-122 0 -199.5 71.5t-74.5 186.5h49q-3 -92 60 -151t165 -59q99 0 159.5 56.5t60.5 147.5v135q-29 -53 -86 -85t-126 -32q-107 0 -180.5 73t-73.5 182t73.5 182t180.5 73q69 0 126 -32t86 -85v107zM324.5 48q90.5 0 150 59
t59.5 148t-59.5 148t-150.5 59t-150.5 -59t-59.5 -148t60 -148t150.5 -59z" />
    <glyph glyph-name="h" unicode="h" horiz-adv-x="586" 
d="M320 510q94 0 147.5 -55.5t53.5 -155.5v-299h-49v293q0 80 -42.5 124.5t-117.5 44.5q-79 0 -127.5 -49.5t-52.5 -136.5v-276h-49v720h49v-323q22 54 70.5 83.5t117.5 29.5z" />
    <glyph glyph-name="i" unicode="i" horiz-adv-x="225" 
d="M112.5 627q-23.5 0 -38.5 14.5t-15 36.5q0 23 15 37.5t38.5 14.5t38.5 -14.5t15 -37.5q0 -22 -15 -36.5t-38.5 -14.5zM88 0v500h48v-500h-48z" />
    <glyph glyph-name="j" unicode="j" horiz-adv-x="233" 
d="M116.5 627q-23.5 0 -38.5 14.5t-15 36.5q0 23 15 37.5t38.5 14.5t38.5 -14.5t15 -37.5q0 -22 -15 -36.5t-38.5 -14.5zM92 -232v732h48v-732h-48z" />
    <glyph glyph-name="k" unicode="k" horiz-adv-x="462" 
d="M83 0v720h48v-454h1l225 234h65l-240 -248l250 -252h-68l-232 238l-1 -1v-237h-48z" />
    <glyph glyph-name="l" unicode="l" horiz-adv-x="214" 
d="M83 0v720h48v-720h-48z" />
    <glyph glyph-name="m" unicode="m" horiz-adv-x="834" 
d="M594 510q80 0 127.5 -52.5t47.5 -141.5v-316h-49v308q0 47 -16 82t-45.5 53.5t-69.5 18.5q-66 0 -105.5 -48t-39.5 -126v-288h-49v308q0 71 -35 112.5t-95 41.5q-67 0 -106.5 -49t-39.5 -131v-282h-48v500h48v-90q16 32 39 54t53.5 34t66.5 12q54 0 93.5 -28t58.5 -78
q23 50 65 78t99 28z" />
    <glyph glyph-name="n" unicode="n" horiz-adv-x="574" 
d="M308 510q62 0 107 -24.5t69.5 -72t24.5 -113.5v-300h-49v294q0 79 -42.5 123.5t-117.5 44.5q-55 0 -96 -24t-63 -70.5t-22 -109.5v-258h-48v500h48v-103q23 54 71.5 83.5t117.5 29.5z" />
    <glyph glyph-name="o" unicode="o" horiz-adv-x="623" 
d="M311.5 -10q-112.5 0 -187 74.5t-74.5 185.5t74.5 185.5t187 74.5t187 -74.5t74.5 -185.5t-74.5 -185.5t-187 -74.5zM311.5 38q90.5 0 151 60.5t60.5 151.5t-60.5 151.5t-151 60.5t-151 -60.5t-60.5 -151.5t60.5 -151.5t151 -60.5z" />
    <glyph glyph-name="p" unicode="p" 
d="M328 510q110 0 183 -74.5t73 -185.5t-73 -185.5t-183 -74.5q-67 0 -123.5 32t-85.5 85v-367h-48v760h48v-107q29 53 85.5 85t123.5 32zM324 38q90 0 150 60.5t60 151.5q0 45 -16 84t-43.5 67.5t-66.5 44.5t-84 16q-59 0 -107.5 -27.5t-75.5 -76t-27 -108.5t27 -108.5
t75 -76t108 -27.5z" />
    <glyph glyph-name="q" unicode="q" 
d="M516 500h48v-760h-48v367h-1q-18 -35 -50 -61.5t-73 -41t-86 -14.5q-72 0 -130.5 34t-92 93.5t-33.5 132.5q0 111 73 185.5t183 74.5q68 0 124.5 -32t84.5 -85h1v107zM310 38q91 0 150.5 60.5t59.5 151.5t-59.5 151.5t-150.5 60.5q-90 0 -150 -60.5t-60 -151.5t60 -151.5
t150 -60.5z" />
    <glyph glyph-name="r" unicode="r" horiz-adv-x="344" 
d="M294 510h4v-48h-2q-85 0 -131 -61t-46 -164v-237h-48v500h46v-119q20 60 64 94.5t113 34.5z" />
    <glyph glyph-name="s" unicode="s" horiz-adv-x="523" 
d="M276 -10q-105 0 -169 62.5t-57 161.5h50q-6 -77 43.5 -126.5t132.5 -49.5q65 0 105.5 31t40.5 81q0 20 -7.5 36t-17 24t-25.5 14.5t-23.5 8t-20.5 3.5l-112 16q-125 18 -125 120q0 61 48 99.5t124 38.5q74 0 120 -33t53 -89h-50q-5 17 -15.5 31t-26.5 23.5t-36.5 14.5
t-44.5 5q-54 0 -88 -24.5t-34 -63.5q0 -17 7.5 -30.5t16.5 -20.5t24 -12.5t22 -7t19 -3.5l112 -16q130 -19 130 -130q0 -73 -54.5 -118.5t-141.5 -45.5z" />
    <glyph glyph-name="t" unicode="t" horiz-adv-x="358" 
d="M144 0v454h-98v42l30 2q18 0 30.5 4.5t20.5 13t12.5 21.5t5.5 31l4 70h43v-138h120v-46h-120v-454h-48z" />
    <glyph glyph-name="u" unicode="u" horiz-adv-x="574" 
d="M454 500h48v-500h-48v103q-22 -54 -71 -83.5t-117 -29.5q-94 0 -147.5 55.5t-53.5 154.5v300h49v-294q0 -79 42.5 -123.5t117.5 -44.5q83 0 131.5 54.5t48.5 149.5v258z" />
    <glyph glyph-name="v" unicode="v" horiz-adv-x="540" 
d="M240 0l-194 500h52l170 -446h4l171 446h51l-194 -500h-60z" />
    <glyph glyph-name="w" unicode="w" horiz-adv-x="830" 
d="M213 0l-167 500h52l141 -439h4l138 439h68l138 -439h4l141 439h52l-167 -500h-57l-143 456h-4l-143 -456h-57z" />
    <glyph glyph-name="x" unicode="x" horiz-adv-x="526" 
d="M484 0h-60l-162 224l-162 -224h-58l194 259l-180 241h60l148 -203l147 203h57l-178 -239z" />
    <glyph glyph-name="y" unicode="y" horiz-adv-x="622" 
d="M502 500h48v-524q0 -113 -67 -179.5t-184 -66.5q-118 0 -187 67t-68 179h49q-2 -59 22.5 -104t71.5 -69.5t111 -24.5q95 0 149.5 53.5t54.5 144.5v134v1q-15 -35 -41.5 -60t-64 -38t-82.5 -13q-94 0 -147 55t-53 155v290h48v-284q0 -79 42.5 -123.5t117.5 -44.5
q83 0 131.5 53.5t48.5 146.5v252z" />
    <glyph glyph-name="z" unicode="z" horiz-adv-x="467" 
d="M106 46h311v-46h-367v44l299 410h-288v46h344v-44z" />
  </font>
</defs>
</svg>
