<?xml version="1.0" standalone="no"?>
<!DOCTYPE svg PUBLIC "-//W3C//DTD SVG 1.1//EN" "http://www.w3.org/Graphics/SVG/1.1/DTD/svg11.dtd" >
<svg xmlns="http://www.w3.org/2000/svg" xmlns:xlink="http://www.w3.org/1999/xlink" version="1.1">
<metadata>
Created by FontForge 20170731 at Thu Oct 31 17:57:16 2019
 By Aleksey,,,
Copyright (c) 2019 by Lewis MacDonald. All rights reserved.
</metadata>
<defs>
<font id="SpoofTrial-RegularSlanted" horiz-adv-x="256" >
  <font-face 
    font-family="Spoof Trial Thin"
    font-weight="400"
    font-style="oblique"
    font-stretch="normal"
    units-per-em="1000"
    panose-1="0 0 5 0 0 0 0 0 0 0"
    ascent="800"
    descent="-200"
    x-height="500"
    cap-height="700"
    bbox="-7 -270 900 742"
    underline-thickness="79"
    underline-position="-256"
    slope="-7"
    unicode-range="U+0020-007A"
  />
<missing-glyph horiz-adv-x="657" 
d="M632 700l-86 -700h-497l86 700h497zM156 89h305l64 521h-305z" />
    <glyph glyph-name=".notdef" horiz-adv-x="657" 
d="M632 700l-86 -700h-497l86 700h497zM156 89h305l64 521h-305z" />
    <glyph glyph-name=".null" horiz-adv-x="0" 
 />
    <glyph glyph-name="nonmarkingreturn" horiz-adv-x="333" 
 />
    <glyph glyph-name="space" unicode=" " 
 />
    <glyph glyph-name="exclam" unicode="!" horiz-adv-x="316" 
d="M111 229l52 471h98l-63 -471h-87zM134 -10q-33 0 -55 20t-22 50q0 31 22.5 51.5t56.5 20.5q33 0 55 -19.5t22 -50.5q0 -20 -10.5 -36.5t-28.5 -26t-40 -9.5z" />
    <glyph glyph-name="comma" unicode="," horiz-adv-x="328" 
d="M139 132q37 0 60.5 -24.5t23.5 -73.5q0 -73 -50.5 -110.5t-132.5 -21.5l7 50q100 -16 115 58q-15 -14 -40 -14q-19 0 -34 8t-23 22t-8 33q0 31 22.5 52t59.5 21z" />
    <glyph glyph-name="hyphen" unicode="-" horiz-adv-x="461" 
d="M57 324l365 -1l-11 -86h-365z" />
    <glyph glyph-name="period" unicode="." horiz-adv-x="309" 
d="M130 -10q-33 0 -54.5 20t-21.5 50q0 31 22.5 51.5t56.5 20.5q33 0 54.5 -19.5t21.5 -50.5q0 -20 -10 -36.5t-28.5 -26t-40.5 -9.5z" />
    <glyph glyph-name="zero" unicode="0" horiz-adv-x="854" 
d="M467 710q150 0 247 -92t97 -238q0 -106 -52 -195.5t-144.5 -142t-203.5 -52.5q-150 0 -247 92t-97 238q0 107 52 196t144.5 141.5t203.5 52.5zM467 623q-129 0 -217 -88.5t-88 -214.5q0 -75 35 -133l429 387q-65 49 -159 49zM411 77q129 0 217.5 88.5t88.5 214.5
q0 75 -35 133l-430 -387q65 -49 159 -49z" />
    <glyph glyph-name="one" unicode="1" horiz-adv-x="390" 
d="M182 0l65 522h-160l9 80l85 3q38 1 59 19.5t29 57.5l4 18h89l-86 -700h-94z" />
    <glyph glyph-name="two" unicode="2" horiz-adv-x="653" 
d="M399 251l-221 -163h396l-10 -88h-536l9 72l268 196q-85 5 -139.5 63t-54.5 145q0 67 33 120.5t91 83.5t131 30q100 0 164 -57.5t64 -145.5q0 -74 -48.5 -133t-146.5 -123zM204 472q0 -59 37.5 -96.5t95.5 -37.5q67 0 116 46.5t49 112.5q0 57 -38.5 92.5t-98.5 35.5
q-70 0 -115.5 -43.5t-45.5 -109.5z" />
    <glyph glyph-name="three" unicode="3" horiz-adv-x="667" 
d="M388 467q98 0 159 -59t61 -156q0 -116 -79.5 -189t-208.5 -73q-132 0 -205.5 77t-56.5 196h99q-10 -83 36 -134.5t130 -51.5q55 0 97.5 22t65.5 61t23 90q0 66 -43 106t-112 40q-56 0 -102 -21l-31 68q91 61 265 175q-66 -3 -199 -3h-159l10 85h473l-10 -85l-229 -149
q8 1 16 1z" />
    <glyph glyph-name="four" unicode="4" horiz-adv-x="694" 
d="M670 418l-10 -80h-206l-41 -338h-96l41 338h-283l44 362h95l-35 -282h190l28 232h95l-28 -232h206z" />
    <glyph glyph-name="five" unicode="5" horiz-adv-x="668" 
d="M380 483q102 0 165 -59t63 -163q0 -119 -80.5 -195t-210.5 -76q-129 0 -201.5 74.5t-57.5 188.5h99q-5 -39 4.5 -72t30.5 -56t53.5 -35.5t73.5 -12.5q85 0 137 49.5t52 126.5q0 68 -41.5 107.5t-110.5 39.5q-88 0 -149 -62h-92l55 362h438l-10 -85h-357l-31 -189
q70 57 170 57z" />
    <glyph glyph-name="six" unicode="6" horiz-adv-x="661" 
d="M372 486q99 0 164 -64t65 -163q0 -116 -81 -192.5t-207 -76.5q-111 0 -183.5 65t-72.5 164q0 34 10.5 68.5t21 57t34 52.5t32.5 39.5t33 34.5l219 229h117l-226 -228q32 14 74 14zM313 77q82 0 135.5 51t53.5 130q0 65 -44.5 107.5t-112.5 42.5q-82 0 -135.5 -51.5
t-53.5 -130.5q0 -65 44.5 -107t112.5 -42z" />
    <glyph glyph-name="seven" unicode="7" horiz-adv-x="570" 
d="M567 700l-10 -82l-321 -618h-108l324 611h-351l11 89h455z" />
    <glyph glyph-name="eight" unicode="8" horiz-adv-x="646" 
d="M454 375q63 -17 97 -59t34 -102q0 -99 -79.5 -161.5t-206.5 -62.5q-74 0 -131 23.5t-88.5 66.5t-31.5 100q0 70 47 123t126 74l1 2q-98 34 -98 135q0 87 68.5 141.5t179.5 54.5q63 0 112.5 -20.5t77 -58.5t27.5 -87q0 -58 -36 -102.5t-98 -64.5zM368 628q-43 0 -76 -14.5
t-51.5 -41t-18.5 -60.5q0 -45 33 -70t87 -25q64 0 105.5 33.5t41.5 83.5q0 28 -15 49.5t-42.5 33t-63.5 11.5zM303 71q81 0 131 40.5t50 105.5q0 55 -40.5 87t-108.5 32q-81 0 -133 -42t-52 -104q0 -53 42.5 -86t110.5 -33z" />
    <glyph glyph-name="nine" unicode="9" horiz-adv-x="661" 
d="M373 710q110 0 183 -65t73 -164q0 -34 -10.5 -68.5t-21.5 -57t-34.5 -52.5t-32 -39.5t-32.5 -34.5l-219 -229h-117l226 228q-32 -14 -75 -14q-99 0 -164 64t-65 163q0 116 81.5 192.5t207.5 76.5zM341 292q82 0 135 51.5t53 130.5q0 65 -44 107t-112 42q-82 0 -135.5 -51
t-53.5 -130q0 -43 20 -77.5t56 -53.5t81 -19z" />
    <glyph glyph-name="question" unicode="?" horiz-adv-x="556" 
d="M277 211q-79 0 -129.5 37t-50.5 104q0 55 37 88t107 43l111 14q40 6 62 24.5t22 47.5q0 33 -29 52.5t-78 19.5q-54 0 -89 -26t-46 -74h-86q12 80 70.5 124.5t151.5 44.5q86 0 138 -38.5t52 -104.5q0 -55 -38.5 -90t-109.5 -45l-112 -14q-80 -11 -80 -68q0 -34 28.5 -52
t70.5 -18q47 0 81 23t46 63h85q-13 -71 -71 -113t-143 -42zM254 -10q-33 0 -54.5 20t-21.5 50q0 31 22.5 51.5t56.5 20.5q16 0 30.5 -5t24.5 -14.5t15.5 -22.5t5.5 -28q0 -20 -10 -36.5t-28 -26t-41 -9.5z" />
    <glyph glyph-name="A" unicode="A" horiz-adv-x="753" 
d="M599 0l-75 265h-285l-141 -265h-105l377 700h124l205 -700h-100zM376 527l-96 -180h222l-51 182q-18 67 -24 90h-5z" />
    <glyph glyph-name="B" unicode="B" horiz-adv-x="593" 
d="M444 364q47 -19 72 -56.5t25 -90.5q0 -96 -64.5 -156.5t-168.5 -60.5h-259l86 700h256q80 0 129.5 -43t49.5 -113q0 -63 -34 -110.5t-92 -69.5zM368 618h-150l-26 -216h148q59 0 95 35t36 92q0 41 -28 65t-75 24zM298 82q66 0 106.5 39.5t40.5 102.5q0 31 -14 54.5
t-40.5 36t-61.5 12.5h-146l-30 -245h145z" />
    <glyph glyph-name="C" unicode="C" horiz-adv-x="858" 
d="M418 -10q-152 0 -250 92t-98 241q0 107 52 195.5t145.5 140t208.5 51.5q124 0 209.5 -58.5t107.5 -157.5h-106q-23 60 -80 93.5t-134 33.5q-129 0 -215.5 -86t-86.5 -212q0 -110 68.5 -177t178.5 -67q123 0 208 81.5t89 204.5h100q-2 -107 -55.5 -193t-143.5 -134
t-198 -48z" />
    <glyph glyph-name="D" unicode="D" horiz-adv-x="680" 
d="M311 700q148 0 236.5 -84.5t88.5 -224.5q0 -111 -50.5 -200t-142 -140t-206.5 -51h-188l86 700h176zM239 88q129 0 212.5 86t83.5 216q0 49 -16 90.5t-45.5 70.5t-72 45t-94.5 16h-86l-65 -524h83z" />
    <glyph glyph-name="E" unicode="E" horiz-adv-x="502" 
d="M484 616h-266l-25 -207h263l-10 -84h-264l-29 -241h266l-10 -84h-360l86 700h360z" />
    <glyph glyph-name="F" unicode="F" horiz-adv-x="495" 
d="M482 611h-262l-26 -210h254l-11 -89h-254l-38 -312h-96l86 700h358z" />
    <glyph glyph-name="G" unicode="G" horiz-adv-x="852" 
d="M474 408h340q-3 -119 -56 -214.5t-144 -149.5t-203 -54q-149 0 -245 92t-96 240q0 108 52 196.5t145 140t208 51.5q122 0 207 -56.5t109 -152.5h-105q-25 57 -81.5 89t-132.5 32q-130 0 -216.5 -87t-86.5 -214q0 -110 67.5 -176.5t176.5 -66.5q111 0 191 68.5t104 180.5
h-244z" />
    <glyph glyph-name="H" unicode="H" horiz-adv-x="657" 
d="M536 700h96l-86 -700h-96l40 326h-305l-40 -326h-96l86 700h96l-35 -284h305z" />
    <glyph glyph-name="I" unicode="I" 
d="M49 0l86 700h96l-86 -700h-96z" />
    <glyph glyph-name="J" unicode="J" horiz-adv-x="546" 
d="M241 -10q-88 0 -140 49t-52 135q0 47 21 141h96q-19 -88 -19 -126q0 -52 25.5 -80t72.5 -28q52 0 85 33.5t40 94.5l60 491h96l-60 -493q-13 -104 -71.5 -160.5t-153.5 -56.5z" />
    <glyph glyph-name="K" unicode="K" horiz-adv-x="598" 
d="M606 700l-330 -349l248 -351h-117l-222 318h-1l-39 -318h-96l86 700h96l-39 -320h1l293 320h120z" />
    <glyph glyph-name="L" unicode="L" horiz-adv-x="464" 
d="M156 89h255l-11 -89h-351l86 700h96z" />
    <glyph glyph-name="M" unicode="M" horiz-adv-x="806" 
d="M49 0l86 700h148l108 -524h4l236 524h151l-86 -700h-93l73 592l-4 1l-248 -533h-86l-119 533l-4 -1l-72 -592h-94z" />
    <glyph glyph-name="N" unicode="N" horiz-adv-x="672" 
d="M49 0l86 700h104l246 -565l3 1l69 564h90l-86 -700h-103l-246 564h-3l-69 -564h-91z" />
    <glyph glyph-name="O" unicode="O" horiz-adv-x="853" 
d="M411 -10q-150 0 -247 92t-97 238q0 107 52.5 196t144.5 141.5t203 52.5q150 0 247 -92t97 -238q0 -80 -31 -151.5t-83.5 -124t-127 -83.5t-158.5 -31zM412 79q126 0 212.5 88t86.5 213q0 54 -18 99t-50 76t-77.5 48.5t-98.5 17.5q-126 0 -213 -88t-87 -213
q0 -108 68.5 -174.5t176.5 -66.5z" />
    <glyph glyph-name="P" unicode="P" horiz-adv-x="596" 
d="M369 700q93 0 147.5 -50.5t54.5 -135.5q0 -101 -68.5 -165t-179.5 -64h-142l-35 -285h-96l85 700h234zM319 371q69 0 110.5 38.5t41.5 100.5q0 48 -31 76t-84 28h-135l-30 -243h128z" />
    <glyph glyph-name="Q" unicode="Q" horiz-adv-x="863" 
d="M812 1l-64 -59l-107 117q-101 -69 -229 -69q-150 0 -247.5 92.5t-97.5 238.5q0 79 31 151t84 124.5t127 83t158 30.5q150 0 247 -92.5t97 -238.5q0 -152 -103 -263zM467 623q-94 0 -169 -49l348 -390q70 84 70 196q0 72 -31.5 127.5t-88.5 85.5t-129 30zM162 321
q0 -110 69.5 -177t180.5 -67q94 0 169 49l-349 390q-70 -83 -70 -195z" />
    <glyph glyph-name="R" unicode="R" horiz-adv-x="645" 
d="M485 0l-233 317h-69l-39 -317h-94l85 700h267q43 0 77.5 -11.5t58.5 -33t37 -53.5t13 -72q0 -92 -62 -152t-159 -60l241 -318h-123zM220 617l-28 -227h160q30 0 56 9.5t44 27t28 41t10 51.5q0 24 -7.5 42.5t-21 30.5t-33.5 18.5t-45 6.5h-163z" />
    <glyph glyph-name="S" unicode="S" horiz-adv-x="683" 
d="M339 -10q-150 0 -228 84t-58 212h107q-18 -98 33 -154.5t150 -56.5q85 0 136.5 41.5t51.5 110.5q0 18 -4.5 33t-10.5 25.5t-16.5 18.5t-19 12.5t-22 8.5t-20.5 5.5t-20 3.5l-114 17q-167 25 -167 158q0 89 66 145t177 56q103 0 165 -49.5t62 -132.5h-102q-1 19 -8 35.5
t-19 28.5t-28 20.5t-35 13t-41 4.5q-61 0 -100 -31t-39 -78q0 -16 5 -29t15 -21.5t19 -14.5t23.5 -10t21.5 -5.5t20 -3.5l109 -16q15 -2 28 -5t28.5 -7.5t28 -10t25.5 -13.5t23.5 -18t20 -23.5t15.5 -29t9.5 -35t3.5 -41.5q0 -74 -35.5 -130.5t-101.5 -87t-154 -30.5z" />
    <glyph glyph-name="T" unicode="T" horiz-adv-x="558" 
d="M561 700l-11 -89h-179l-75 -611h-96l75 611h-178l11 89h453z" />
    <glyph glyph-name="U" unicode="U" horiz-adv-x="641" 
d="M300 -10q-115 0 -178 72.5t-48 189.5l55 448h98l-55 -450q-4 -26 -1.5 -48t9.5 -41t18.5 -34t27 -25t34.5 -15.5t42 -5.5q71 0 115.5 44.5t54.5 124.5l56 450h96l-56 -455q-15 -121 -85 -188t-183 -67z" />
    <glyph glyph-name="V" unicode="V" horiz-adv-x="683" 
d="M593 700h105l-332 -700h-111l-159 700h102l124 -585h4z" />
    <glyph glyph-name="W" unicode="W" horiz-adv-x="890" 
d="M172 0l-71 700h98l46 -589h3l195 569h110l54 -569h3l191 589h99l-243 -700h-113l-58 572h-3l-196 -572h-115z" />
    <glyph glyph-name="X" unicode="X" horiz-adv-x="678" 
d="M680 700l-273 -330l215 -370h-114l-163 294l-236 -294h-115l307 371l-191 329h113l140 -252l202 252h115z" />
    <glyph glyph-name="Y" unicode="Y" horiz-adv-x="640" 
d="M242 0l33 273l-188 427h107l137 -328h3l218 328h113l-294 -427l-33 -273h-96z" />
    <glyph glyph-name="Z" unicode="Z" horiz-adv-x="597" 
d="M575 700l-8 -71l-413 -542h368l-10 -87h-486l9 71l412 542h-335l11 87h452z" />
    <glyph glyph-name="a" unicode="a" horiz-adv-x="648" 
d="M521 500h92l-61 -500h-92l12 101h-2q-32 -52 -86 -81.5t-118 -29.5q-98 0 -160.5 65t-62.5 167q0 123 79.5 205.5t200.5 82.5q67 0 115.5 -30t68.5 -83h1zM295 72q84 0 143 58.5t59 141.5q0 69 -43.5 112.5t-113.5 43.5q-57 0 -103 -26.5t-72 -72.5t-26 -103
q0 -69 43.5 -111.5t112.5 -42.5z" />
    <glyph glyph-name="b" unicode="b" horiz-adv-x="659" 
d="M394 510q97 0 159.5 -65t62.5 -167q0 -123 -79.5 -205.5t-200.5 -82.5q-67 0 -115 30t-68 83h-2l-12 -103h-93l88 720h93l-40 -321h2q16 26 38 46.5t48 35t56.5 22t62.5 7.5zM319 72q87 0 144 58t57 144q0 69 -43.5 111.5t-112.5 42.5q-83 0 -142 -58.5t-59 -141.5
q0 -27 7 -51.5t21 -43.5t33 -32.5t43.5 -21t51.5 -7.5z" />
    <glyph glyph-name="c" unicode="c" horiz-adv-x="620" 
d="M294 -10q-111 0 -181 65.5t-70 172.5q0 120 84.5 201t210.5 81q93 0 155.5 -45t76.5 -121h-99q-16 40 -52 62t-84 22q-84 0 -140 -58t-56 -141q0 -48 20 -84t55.5 -54.5t82.5 -18.5q78 0 130 51t54 130h97q-5 -115 -85 -189t-199 -74z" />
    <glyph glyph-name="d" unicode="d" horiz-adv-x="659" 
d="M548 720h92l-88 -720h-93l13 101h-2q-22 -35 -53.5 -60t-70 -38t-81.5 -13q-97 0 -159.5 65t-62.5 167q0 81 36 147t100 103.5t144 37.5q67 0 115 -30t68 -83h2zM295 72q83 0 142 58.5t59 141.5q0 34 -11.5 63t-31.5 49.5t-49.5 32t-64.5 11.5q-56 0 -102 -26.5
t-72 -72.5t-26 -103q0 -69 43 -111.5t113 -42.5z" />
    <glyph glyph-name="e" unicode="e" horiz-adv-x="609" 
d="M467 206h95q-15 -96 -92 -156t-180 -60q-108 0 -177 66.5t-69 173.5q0 78 36.5 142t103 101t149.5 37q114 0 177 -68.5t49 -181.5h-423q-1 -13 -1 -26q0 -77 42 -120t113 -43q69 0 118.5 38t58.5 97zM329 436q-59 0 -104.5 -28t-68.5 -77h312q-9 51 -45 78t-94 27z" />
    <glyph glyph-name="f" unicode="f" horiz-adv-x="419" 
d="M376 647q-38 0 -63 -13.5t-36 -34t-15 -51.5l-5 -48h168l-10 -79h-168l-52 -421h-91l52 421h-95l10 79h94l7 55q10 84 60 129.5t134 45.5q46 0 86 -12l-10 -80q-33 9 -66 9z" />
    <glyph glyph-name="g" unicode="g" horiz-adv-x="663" 
d="M536 500h92l-61 -500l-2 -18q-15 -120 -95.5 -186t-212.5 -66q-128 0 -202.5 72.5t-57.5 183.5h91q-12 -78 35.5 -127t135.5 -49q61 0 107 21t73.5 60.5t35.5 94.5l1 14l14 118q-32 -55 -87.5 -86.5t-122.5 -31.5q-96 0 -158.5 65.5t-62.5 166.5q0 119 79 198.5t199 79.5
q69 0 118 -30.5t68 -84.5zM310 82q83 0 142.5 57t59.5 137q0 68 -43.5 110t-116.5 42q-85 0 -141 -55t-56 -137q0 -69 43 -111.5t112 -42.5z" />
    <glyph glyph-name="h" unicode="h" horiz-adv-x="601" 
d="M377 510q93 0 139 -54.5t34 -152.5l-37 -303h-94l36 292q8 64 -21 100t-89 36q-72 0 -118.5 -45t-55.5 -124l-32 -259h-93l89 720h92l-39 -320q29 52 78 81t111 29z" />
    <glyph glyph-name="i" unicode="i" 
d="M179 600q-33 0 -55 19.5t-22 49.5q0 32 22.5 52.5t56.5 20.5q33 0 55 -20t22 -50q0 -31 -22.5 -51.5t-56.5 -20.5zM52 0l61 500h92l-61 -500h-92z" />
    <glyph glyph-name="j" unicode="j" horiz-adv-x="261" 
d="M181 600q-33 0 -54.5 19.5t-21.5 49.5q0 32 22.5 52.5t56.5 20.5q33 0 54.5 -20t21.5 -50q0 -21 -10 -37.5t-28 -25.5t-41 -9zM25 -242l91 742h92l-91 -742h-92z" />
    <glyph glyph-name="k" unicode="k" horiz-adv-x="517" 
d="M46 0l89 720h92l-55 -449l1 -1l227 230h118l-256 -249l200 -251h-113l-181 232h-1l-28 -232h-93z" />
    <glyph glyph-name="l" unicode="l" horiz-adv-x="246" 
d="M46 0l89 720h92l-88 -720h-93z" />
    <glyph glyph-name="m" unicode="m" horiz-adv-x="858" 
d="M657 510q80 0 121 -53.5t30 -143.5l-39 -313h-92l37 304q7 59 -17 91.5t-74 32.5q-56 0 -94 -39.5t-46 -104.5v-2l-35 -282h-93l38 304q7 59 -16.5 91.5t-73.5 32.5q-36 0 -66 -18t-49.5 -50.5t-25.5 -76.5l-1 -5l-34 -278h-92l62 500h92l-12 -91q28 49 70.5 75t94.5 26
q54 0 90.5 -28t49.5 -78q14 26 32.5 45.5t40.5 33t48 20.5t54 7z" />
    <glyph glyph-name="n" unicode="n" horiz-adv-x="589" 
d="M365 510q94 0 139.5 -54.5t33.5 -152.5l-37 -303h-93l35 292q8 64 -20.5 100t-88.5 36q-72 0 -118.5 -45t-56.5 -124l-32 -259h-92l61 500h93l-13 -100h1q28 53 77 81.5t111 28.5z" />
    <glyph glyph-name="o" unicode="o" horiz-adv-x="632" 
d="M296 -10q-72 0 -129.5 30t-90 85t-32.5 124q0 118 84 199.5t208 81.5q109 0 180.5 -67t71.5 -172q0 -117 -84 -199t-208 -82zM297 72q55 0 100.5 26.5t71 72.5t25.5 100q0 71 -44.5 114t-114.5 43q-83 0 -140.5 -58t-57.5 -141q0 -70 44.5 -113.5t115.5 -43.5z" />
    <glyph glyph-name="p" unicode="p" horiz-adv-x="648" 
d="M383 510q97 0 159.5 -65t62.5 -167q0 -123 -79.5 -205.5t-200.5 -82.5q-67 0 -115 30t-69 83h-1l-45 -363h-92l93 760h92l-12 -101h2q21 35 52.5 60t70.5 38t82 13zM308 72q87 0 144 58t57 144q0 69 -43.5 111.5t-112.5 42.5q-83 0 -142.5 -58.5t-59.5 -141.5
q0 -69 43.5 -112.5t113.5 -43.5z" />
    <glyph glyph-name="q" unicode="q" horiz-adv-x="648" 
d="M521 500h92l-93 -760h-92l44 361h-1q-33 -52 -87 -81.5t-118 -29.5q-98 0 -160 65t-62 167q0 123 79 205.5t201 82.5q66 0 114.5 -30t68.5 -83h2zM296 72q83 0 142 58.5t59 141.5q0 69 -43.5 112.5t-113.5 43.5q-57 0 -103 -26.5t-72 -72.5t-26 -103q0 -69 43.5 -111.5
t113.5 -42.5z" />
    <glyph glyph-name="r" unicode="r" horiz-adv-x="381" 
d="M357 510q9 0 15 -1l-12 -91h-15q-78 0 -129 -55t-63 -151l-26 -212h-92l61 500h89l-17 -135q56 145 189 145z" />
    <glyph glyph-name="s" unicode="s" horiz-adv-x="544" 
d="M259 -10q-106 0 -171.5 59t-53.5 155h94q-8 -61 28.5 -99t107.5 -38q39 0 69.5 12t47.5 33.5t17 48.5q0 14 -4.5 24.5t-11 16.5t-17 10.5t-17.5 6t-17 2.5l-113 15q-16 3 -27 5t-32 9.5t-34 18.5t-23.5 32t-10.5 49q0 71 56.5 115.5t148.5 44.5q86 0 134.5 -36t49.5 -99
h-94q-4 20 -16.5 34t-32.5 20.5t-46 6.5q-47 0 -77.5 -20.5t-30.5 -54.5q0 -12 5 -21.5t11 -14.5t16.5 -9t17 -5.5t16.5 -2.5l112 -15q18 -3 29 -5t32.5 -10t34.5 -20t24 -34t11 -51q0 -81 -64.5 -132t-168.5 -51z" />
    <glyph glyph-name="t" unicode="t" horiz-adv-x="390" 
d="M104 0l51 421h-94l8 71l32 2q24 1 40 9.5t26 25t15 42.5l12 71h80l-17 -142h124l-10 -79h-124l-52 -421h-91z" />
    <glyph glyph-name="u" unicode="u" horiz-adv-x="589" 
d="M462 500h92l-61 -500h-92l12 100h-1q-28 -52 -77 -81t-111 -29q-93 0 -139 54.5t-34 152.5l37 303h93l-35 -292q-5 -43 6 -73.5t37.5 -46.5t65.5 -16q72 0 119 45t56 124z" />
    <glyph glyph-name="v" unicode="v" horiz-adv-x="576" 
d="M205 0l-136 500h97l98 -408h4l198 408h101l-258 -500h-104z" />
    <glyph glyph-name="w" unicode="w" horiz-adv-x="867" 
d="M178 0l-109 500h95l73 -397h4l170 397h101l72 -398h4l171 398h100l-232 -500h-96l-76 410h-4l-177 -410h-96z" />
    <glyph glyph-name="x" unicode="x" horiz-adv-x="572" 
d="M558 500l-220 -243l169 -257h-110l-116 193l-164 -193h-113l235 260l-158 240h108l107 -176l149 176h113z" />
    <glyph glyph-name="y" unicode="y" horiz-adv-x="637" 
d="M510 500h92l-61 -500l-3 -20q-14 -117 -93 -183.5t-203 -66.5q-122 0 -188.5 68.5t-52.5 178.5h91q-12 -76 30.5 -121.5t125.5 -45.5q85 0 137.5 46t62.5 129l2 15l14 109l-1 1q-28 -52 -77.5 -80t-114.5 -28q-93 0 -138 54.5t-33 151.5l36 292h93l-34 -281
q-8 -64 21.5 -99.5t91.5 -35.5q69 0 115.5 44.5t55.5 120.5z" />
    <glyph glyph-name="z" unicode="z" horiz-adv-x="488" 
d="M460 500l-8 -67l-315 -357h285l-9 -76h-398l8 67l314 357h-257l9 76h371z" />
  </font>
</defs>
</svg>
